%TF.GenerationSoftware,KiCad,Pcbnew,8.0.5*%
%TF.CreationDate,2025-05-09T00:08:28-04:00*%
%TF.ProjectId,precharge-electrium-f24,70726563-6861-4726-9765-2d656c656374,rev?*%
%TF.SameCoordinates,Original*%
%TF.FileFunction,Copper,L2,Bot*%
%TF.FilePolarity,Positive*%
%FSLAX46Y46*%
G04 Gerber Fmt 4.6, Leading zero omitted, Abs format (unit mm)*
G04 Created by KiCad (PCBNEW 8.0.5) date 2025-05-09 00:08:28*
%MOMM*%
%LPD*%
G01*
G04 APERTURE LIST*
G04 Aperture macros list*
%AMRoundRect*
0 Rectangle with rounded corners*
0 $1 Rounding radius*
0 $2 $3 $4 $5 $6 $7 $8 $9 X,Y pos of 4 corners*
0 Add a 4 corners polygon primitive as box body*
4,1,4,$2,$3,$4,$5,$6,$7,$8,$9,$2,$3,0*
0 Add four circle primitives for the rounded corners*
1,1,$1+$1,$2,$3*
1,1,$1+$1,$4,$5*
1,1,$1+$1,$6,$7*
1,1,$1+$1,$8,$9*
0 Add four rect primitives between the rounded corners*
20,1,$1+$1,$2,$3,$4,$5,0*
20,1,$1+$1,$4,$5,$6,$7,0*
20,1,$1+$1,$6,$7,$8,$9,0*
20,1,$1+$1,$8,$9,$2,$3,0*%
G04 Aperture macros list end*
%TA.AperFunction,ComponentPad*%
%ADD10C,2.780000*%
%TD*%
%TA.AperFunction,ComponentPad*%
%ADD11RoundRect,0.250000X0.625000X-0.350000X0.625000X0.350000X-0.625000X0.350000X-0.625000X-0.350000X0*%
%TD*%
%TA.AperFunction,ComponentPad*%
%ADD12O,1.750000X1.200000*%
%TD*%
%TA.AperFunction,ComponentPad*%
%ADD13O,3.270000X6.540000*%
%TD*%
%TA.AperFunction,ComponentPad*%
%ADD14C,5.586000*%
%TD*%
%TA.AperFunction,ComponentPad*%
%ADD15C,1.800000*%
%TD*%
%TA.AperFunction,ViaPad*%
%ADD16C,4.500000*%
%TD*%
%TA.AperFunction,ViaPad*%
%ADD17C,0.600000*%
%TD*%
%TA.AperFunction,Conductor*%
%ADD18C,0.200000*%
%TD*%
G04 APERTURE END LIST*
D10*
%TO.P,F1,1,1*%
%TO.N,VCC*%
X144740000Y-104200000D03*
X144740000Y-107600000D03*
%TO.P,F1,2,2*%
%TO.N,OUT+*%
X154660000Y-104200000D03*
X154660000Y-107600000D03*
%TD*%
D11*
%TO.P,J3,1,Pin_1*%
%TO.N,/NO*%
X173250000Y-134500000D03*
D12*
%TO.P,J3,2,Pin_2*%
%TO.N,/SW*%
X173250000Y-132500000D03*
%TO.P,J3,3,Pin_3*%
%TO.N,/NC*%
X173250000Y-130500000D03*
%TO.P,J3,4,Pin_4*%
%TO.N,/+LED*%
X173250000Y-128500000D03*
%TO.P,J3,5,Pin_5*%
%TO.N,OUT-*%
X173250000Y-126500000D03*
%TD*%
D13*
%TO.P,J1,1,P1*%
%TO.N,VCC*%
X137255000Y-109795000D03*
%TO.P,J1,2,P2*%
%TO.N,GND*%
X137255000Y-101895000D03*
D14*
%TO.P,J1,P1*%
%TO.N,N/C*%
X126335000Y-118000000D03*
%TO.P,J1,P2*%
X126335000Y-93690000D03*
D15*
%TO.P,J1,P3*%
X119015000Y-113235000D03*
%TO.P,J1,P4*%
X119015000Y-98455000D03*
%TO.P,J1,P5*%
X119015000Y-106375000D03*
%TD*%
D13*
%TO.P,J2,1,P1*%
%TO.N,OUT+*%
X161945000Y-101895000D03*
%TO.P,J2,2,P2*%
%TO.N,OUT-*%
X161945000Y-109795000D03*
D14*
%TO.P,J2,P1*%
%TO.N,N/C*%
X172865000Y-93690000D03*
%TO.P,J2,P2*%
X172865000Y-118000000D03*
D15*
%TO.P,J2,P3*%
X180185000Y-98455000D03*
%TO.P,J2,P4*%
X180185000Y-113235000D03*
%TO.P,J2,P5*%
X180185000Y-105315000D03*
%TD*%
D16*
%TO.N,*%
X180000000Y-141250000D03*
X119000000Y-91250000D03*
X180250000Y-91000000D03*
X119000000Y-141250000D03*
D17*
%TO.N,/SW*%
X158690000Y-141250000D03*
X146190000Y-141250000D03*
X133415000Y-141250000D03*
X130100000Y-137250000D03*
%TO.N,GND*%
X139500000Y-88500000D03*
X121500000Y-121500000D03*
X130500000Y-103500000D03*
X145500000Y-94500000D03*
X133500000Y-106500000D03*
X136500000Y-94500000D03*
X127500000Y-109500000D03*
X121500000Y-118500000D03*
X178500000Y-106500000D03*
X175500000Y-97500000D03*
X121500000Y-97500000D03*
X178500000Y-133500000D03*
X121500000Y-130500000D03*
X147500000Y-113250000D03*
X156250000Y-140250000D03*
X124500000Y-103500000D03*
X121500000Y-103500000D03*
X178500000Y-94500000D03*
X181500000Y-100500000D03*
X138750000Y-117750000D03*
X127500000Y-100500000D03*
X118500000Y-100500000D03*
X175500000Y-109500000D03*
X151500000Y-94500000D03*
X121500000Y-100500000D03*
X172500000Y-103500000D03*
X172500000Y-88500000D03*
X172500000Y-97500000D03*
X175500000Y-121500000D03*
X121500000Y-109500000D03*
X127500000Y-133500000D03*
X133500000Y-97500000D03*
X181500000Y-94500000D03*
X178500000Y-109500000D03*
X142500000Y-94500000D03*
X130500000Y-109500000D03*
X147750000Y-143750000D03*
X181500000Y-124500000D03*
X130500000Y-88500000D03*
X172500000Y-121500000D03*
X143500000Y-140250000D03*
X127500000Y-136500000D03*
X121500000Y-115500000D03*
X124500000Y-112500000D03*
X178500000Y-97500000D03*
X178500000Y-112500000D03*
X169500000Y-88500000D03*
X121500000Y-106500000D03*
X121500000Y-94500000D03*
X181500000Y-121500000D03*
X141250000Y-117750000D03*
X133500000Y-103500000D03*
X175500000Y-136500000D03*
X127500000Y-121500000D03*
X127500000Y-106500000D03*
X166500000Y-100500000D03*
X145500000Y-88500000D03*
X172500000Y-100500000D03*
X118500000Y-109500000D03*
X169250000Y-109750000D03*
X136500000Y-91500000D03*
X181500000Y-103500000D03*
X148500000Y-94500000D03*
X169500000Y-97500000D03*
X127500000Y-97500000D03*
X157500000Y-139500000D03*
X139000000Y-143750000D03*
X163500000Y-91500000D03*
X175500000Y-124500000D03*
X156250000Y-137750000D03*
X148500000Y-88500000D03*
X156000000Y-143750000D03*
X142500000Y-97500000D03*
X124500000Y-106500000D03*
X166500000Y-106500000D03*
X137500000Y-119250000D03*
X127500000Y-112500000D03*
X130500000Y-94500000D03*
X143500000Y-137750000D03*
X167500000Y-143750000D03*
X166500000Y-91500000D03*
X142500000Y-100500000D03*
X181500000Y-109500000D03*
X134750000Y-119250000D03*
X154500000Y-91500000D03*
X144750000Y-143750000D03*
X121500000Y-112500000D03*
X118500000Y-103500000D03*
X118500000Y-133500000D03*
X140000000Y-119250000D03*
X178500000Y-103500000D03*
X175500000Y-139500000D03*
X163500000Y-94500000D03*
X133500000Y-88500000D03*
X169500000Y-103500000D03*
X181500000Y-130500000D03*
X157500000Y-136500000D03*
X145500000Y-100500000D03*
X169500000Y-100500000D03*
X164750000Y-143750000D03*
X139500000Y-100500000D03*
X155250000Y-139250000D03*
X172500000Y-112500000D03*
X148500000Y-100500000D03*
X157500000Y-88500000D03*
X141750000Y-143750000D03*
X166500000Y-88500000D03*
X124500000Y-97500000D03*
X142500000Y-136500000D03*
X133500000Y-94500000D03*
X160500000Y-91500000D03*
X157500000Y-91500000D03*
X133500000Y-143750000D03*
X154500000Y-88500000D03*
X142500000Y-88500000D03*
X118500000Y-115500000D03*
X139500000Y-91500000D03*
X133500000Y-100500000D03*
X144500000Y-136500000D03*
X153250000Y-143750000D03*
X124500000Y-109500000D03*
X145500000Y-97500000D03*
X144500000Y-139000000D03*
X175500000Y-103500000D03*
X136250000Y-143750000D03*
X172500000Y-106500000D03*
X130500000Y-97500000D03*
X121500000Y-133500000D03*
X124500000Y-136500000D03*
X160500000Y-94500000D03*
X155250000Y-136500000D03*
X181500000Y-115500000D03*
X148500000Y-97500000D03*
X118500000Y-118500000D03*
X160500000Y-88500000D03*
X181500000Y-133500000D03*
X133500000Y-91500000D03*
X127500000Y-88500000D03*
X138750000Y-120750000D03*
X151500000Y-91500000D03*
X139500000Y-94500000D03*
X178500000Y-100500000D03*
X139500000Y-97500000D03*
X175500000Y-142500000D03*
X124500000Y-139500000D03*
X157500000Y-94500000D03*
X127500000Y-130500000D03*
X181500000Y-118500000D03*
X172500000Y-142500000D03*
X130500000Y-106500000D03*
X130500000Y-143750000D03*
X136250000Y-120750000D03*
X159000000Y-143750000D03*
X148500000Y-91500000D03*
X181500000Y-136500000D03*
X175500000Y-88500000D03*
X130500000Y-100500000D03*
X136500000Y-88500000D03*
X151500000Y-88500000D03*
X150500000Y-143750000D03*
X118500000Y-130500000D03*
X124500000Y-88500000D03*
X130500000Y-91500000D03*
X136250000Y-117750000D03*
X130500000Y-112500000D03*
X118500000Y-94500000D03*
X136500000Y-97500000D03*
X142500000Y-139500000D03*
X118500000Y-127500000D03*
X181500000Y-127500000D03*
X163500000Y-88500000D03*
X118500000Y-136500000D03*
X154500000Y-94500000D03*
X172500000Y-124500000D03*
X133000000Y-120750000D03*
X124500000Y-121500000D03*
X166500000Y-97500000D03*
X127500000Y-142500000D03*
X175500000Y-127500000D03*
X142500000Y-91500000D03*
X175500000Y-133500000D03*
X178500000Y-136500000D03*
X118500000Y-121500000D03*
X144500000Y-116000000D03*
X124500000Y-142500000D03*
X124500000Y-100500000D03*
X166500000Y-94500000D03*
X175500000Y-100500000D03*
X170000000Y-112500000D03*
X118500000Y-124500000D03*
X124500000Y-133500000D03*
X175500000Y-106500000D03*
X121500000Y-136500000D03*
X127500000Y-103500000D03*
X162000000Y-143750000D03*
X145500000Y-91500000D03*
%TO.N,/NO*%
X122250000Y-128500000D03*
%TD*%
D18*
%TO.N,/SW*%
X130100000Y-137250000D02*
X130100000Y-140600000D01*
X158300000Y-141800000D02*
X146700000Y-141800000D01*
X158690000Y-141410000D02*
X158300000Y-141800000D01*
X130150000Y-137400000D02*
X130150000Y-137300000D01*
X159100000Y-141800000D02*
X168200000Y-141800000D01*
X158710000Y-141410000D02*
X159100000Y-141800000D01*
X146190000Y-141310000D02*
X145700000Y-141800000D01*
X133415000Y-141315000D02*
X133900000Y-141800000D01*
X146210000Y-141310000D02*
X146700000Y-141800000D01*
X169800000Y-134500000D02*
X171800000Y-132500000D01*
X130100000Y-140600000D02*
X131300000Y-141800000D01*
X132900000Y-141800000D02*
X133415000Y-141285000D01*
X169800000Y-140200000D02*
X169800000Y-134500000D01*
X131300000Y-141800000D02*
X132900000Y-141800000D01*
X130150000Y-137300000D02*
X130100000Y-137250000D01*
X168200000Y-141800000D02*
X169800000Y-140200000D01*
X145700000Y-141800000D02*
X133900000Y-141800000D01*
X171800000Y-132500000D02*
X173250000Y-132500000D01*
%TO.N,/NO*%
X173250000Y-138000000D02*
X168750000Y-142500000D01*
X125350000Y-131600000D02*
X122250000Y-128500000D01*
X125350000Y-136866422D02*
X125350000Y-131600000D01*
X130983578Y-142500000D02*
X125350000Y-136866422D01*
X168750000Y-142500000D02*
X130983578Y-142500000D01*
X173250000Y-134500000D02*
X173250000Y-138000000D01*
%TD*%
%TA.AperFunction,Conductor*%
%TO.N,VCC*%
G36*
X145239554Y-101256958D02*
G01*
X145320745Y-101285368D01*
X145320750Y-101285369D01*
X145499996Y-101305565D01*
X145500000Y-101305565D01*
X145500004Y-101305565D01*
X145679249Y-101285369D01*
X145679252Y-101285368D01*
X145679255Y-101285368D01*
X145760446Y-101256957D01*
X145801401Y-101250000D01*
X148198599Y-101250000D01*
X148239554Y-101256958D01*
X148320745Y-101285368D01*
X148320749Y-101285369D01*
X148389883Y-101293158D01*
X148454297Y-101320224D01*
X148493852Y-101377818D01*
X148500000Y-101416378D01*
X148500000Y-110446765D01*
X148480315Y-110513804D01*
X148461405Y-110536665D01*
X143630527Y-115126000D01*
X143535895Y-115215900D01*
X143473734Y-115247802D01*
X143450490Y-115250000D01*
X134374000Y-115250000D01*
X134306961Y-115230315D01*
X134261206Y-115177511D01*
X134250000Y-115126000D01*
X134250000Y-107624000D01*
X134269685Y-107556961D01*
X134322489Y-107511206D01*
X134374000Y-107500000D01*
X135163460Y-107500000D01*
X135230499Y-107519685D01*
X135276254Y-107572489D01*
X135286198Y-107641647D01*
X135283235Y-107656093D01*
X135254820Y-107762139D01*
X135220000Y-108026611D01*
X135220000Y-109545000D01*
X136620000Y-109545000D01*
X136620000Y-110045000D01*
X135220000Y-110045000D01*
X135220000Y-111563388D01*
X135254820Y-111827859D01*
X135323863Y-112085535D01*
X135425946Y-112331985D01*
X135425951Y-112331996D01*
X135559324Y-112563003D01*
X135559335Y-112563019D01*
X135721721Y-112774645D01*
X135721727Y-112774652D01*
X135910347Y-112963272D01*
X135910354Y-112963278D01*
X136121980Y-113125664D01*
X136121996Y-113125675D01*
X136353003Y-113259048D01*
X136353014Y-113259053D01*
X136599464Y-113361136D01*
X136857136Y-113430178D01*
X136857149Y-113430181D01*
X137005000Y-113449646D01*
X137005000Y-112358765D01*
X137069777Y-112385597D01*
X137192458Y-112410000D01*
X137317542Y-112410000D01*
X137440223Y-112385597D01*
X137505000Y-112358765D01*
X137505000Y-113449645D01*
X137652850Y-113430181D01*
X137652863Y-113430178D01*
X137910535Y-113361136D01*
X138156985Y-113259053D01*
X138156996Y-113259048D01*
X138388003Y-113125675D01*
X138388019Y-113125664D01*
X138599645Y-112963278D01*
X138599652Y-112963272D01*
X138788272Y-112774652D01*
X138788278Y-112774645D01*
X138950664Y-112563019D01*
X138950675Y-112563003D01*
X139084048Y-112331996D01*
X139084053Y-112331985D01*
X139186136Y-112085535D01*
X139255179Y-111827859D01*
X139289999Y-111563388D01*
X139290000Y-111563374D01*
X139290000Y-110045000D01*
X137890000Y-110045000D01*
X137890000Y-109545000D01*
X139290000Y-109545000D01*
X139290000Y-108026625D01*
X139289999Y-108026611D01*
X139255179Y-107762139D01*
X139226765Y-107656093D01*
X139228428Y-107586243D01*
X139267591Y-107528381D01*
X139331819Y-107500877D01*
X139346540Y-107500000D01*
X140000000Y-107500000D01*
X140000000Y-105303577D01*
X140019685Y-105236538D01*
X140039015Y-105213280D01*
X141115630Y-104199995D01*
X142944981Y-104199995D01*
X142944981Y-104200004D01*
X142965028Y-104467524D01*
X142965029Y-104467529D01*
X143024725Y-104729077D01*
X143024731Y-104729096D01*
X143122744Y-104978830D01*
X143256885Y-105211169D01*
X143309411Y-105277034D01*
X143956732Y-104629713D01*
X144048692Y-104767342D01*
X144172658Y-104891308D01*
X144310285Y-104983266D01*
X143662045Y-105631505D01*
X143842495Y-105754534D01*
X143912569Y-105788280D01*
X143964428Y-105835103D01*
X143982741Y-105902530D01*
X143961693Y-105969154D01*
X143912569Y-106011720D01*
X143842494Y-106045466D01*
X143842490Y-106045468D01*
X143662045Y-106168493D01*
X144310285Y-106816732D01*
X144172658Y-106908692D01*
X144048692Y-107032658D01*
X143956733Y-107170285D01*
X143309411Y-106522964D01*
X143256886Y-106588829D01*
X143122744Y-106821169D01*
X143024731Y-107070903D01*
X143024725Y-107070922D01*
X142965029Y-107332470D01*
X142965028Y-107332475D01*
X142944981Y-107599995D01*
X142944981Y-107600004D01*
X142965028Y-107867524D01*
X142965029Y-107867529D01*
X143024725Y-108129077D01*
X143024731Y-108129096D01*
X143122744Y-108378830D01*
X143256885Y-108611169D01*
X143309411Y-108677034D01*
X143956732Y-108029713D01*
X144048692Y-108167342D01*
X144172658Y-108291308D01*
X144310285Y-108383266D01*
X143662045Y-109031505D01*
X143842497Y-109154535D01*
X143842499Y-109154536D01*
X144084203Y-109270934D01*
X144084201Y-109270934D01*
X144340562Y-109350011D01*
X144340568Y-109350012D01*
X144605852Y-109389999D01*
X144605859Y-109390000D01*
X144874141Y-109390000D01*
X144874147Y-109389999D01*
X145139431Y-109350012D01*
X145139437Y-109350011D01*
X145395797Y-109270934D01*
X145637507Y-109154533D01*
X145817953Y-109031505D01*
X145169714Y-108383267D01*
X145307342Y-108291308D01*
X145431308Y-108167342D01*
X145523266Y-108029714D01*
X146170587Y-108677035D01*
X146170588Y-108677035D01*
X146223108Y-108611177D01*
X146223114Y-108611168D01*
X146357255Y-108378830D01*
X146455268Y-108129096D01*
X146455274Y-108129077D01*
X146514970Y-107867529D01*
X146514971Y-107867524D01*
X146535019Y-107600004D01*
X146535019Y-107599995D01*
X146514971Y-107332475D01*
X146514970Y-107332470D01*
X146455274Y-107070922D01*
X146455268Y-107070903D01*
X146357255Y-106821169D01*
X146223111Y-106588826D01*
X146170588Y-106522963D01*
X145523266Y-107170284D01*
X145431308Y-107032658D01*
X145307342Y-106908692D01*
X145169714Y-106816732D01*
X145817953Y-106168493D01*
X145637512Y-106045470D01*
X145637502Y-106045463D01*
X145567432Y-106011720D01*
X145515572Y-105964898D01*
X145497259Y-105897471D01*
X145518307Y-105830847D01*
X145567432Y-105788280D01*
X145637507Y-105754533D01*
X145817953Y-105631505D01*
X145169714Y-104983267D01*
X145307342Y-104891308D01*
X145431308Y-104767342D01*
X145523266Y-104629714D01*
X146170587Y-105277035D01*
X146170588Y-105277035D01*
X146223108Y-105211177D01*
X146223114Y-105211168D01*
X146357255Y-104978830D01*
X146455268Y-104729096D01*
X146455274Y-104729077D01*
X146514970Y-104467529D01*
X146514971Y-104467524D01*
X146535019Y-104200004D01*
X146535019Y-104199995D01*
X146514971Y-103932475D01*
X146514970Y-103932470D01*
X146455274Y-103670922D01*
X146455268Y-103670903D01*
X146357255Y-103421169D01*
X146223111Y-103188826D01*
X146170588Y-103122963D01*
X145523266Y-103770284D01*
X145431308Y-103632658D01*
X145307342Y-103508692D01*
X145169714Y-103416732D01*
X145817953Y-102768493D01*
X145637512Y-102645470D01*
X145637502Y-102645463D01*
X145395796Y-102529065D01*
X145395798Y-102529065D01*
X145139437Y-102449988D01*
X145139431Y-102449987D01*
X144874147Y-102410000D01*
X144605852Y-102410000D01*
X144340568Y-102449987D01*
X144340562Y-102449988D01*
X144084202Y-102529065D01*
X143842499Y-102645463D01*
X143842490Y-102645468D01*
X143662045Y-102768493D01*
X144310285Y-103416732D01*
X144172658Y-103508692D01*
X144048692Y-103632658D01*
X143956733Y-103770285D01*
X143309411Y-103122964D01*
X143256886Y-103188829D01*
X143122744Y-103421169D01*
X143024731Y-103670903D01*
X143024725Y-103670922D01*
X142965029Y-103932470D01*
X142965028Y-103932475D01*
X142944981Y-104199995D01*
X141115630Y-104199995D01*
X144214191Y-101283703D01*
X144276500Y-101252091D01*
X144299176Y-101250000D01*
X145198599Y-101250000D01*
X145239554Y-101256958D01*
G37*
%TD.AperFunction*%
%TD*%
%TA.AperFunction,Conductor*%
%TO.N,GND*%
G36*
X180253032Y-87500648D02*
G01*
X180586929Y-87517052D01*
X180599037Y-87518245D01*
X180702146Y-87533539D01*
X180926699Y-87566849D01*
X180938617Y-87569219D01*
X181259951Y-87649709D01*
X181271588Y-87653240D01*
X181342806Y-87678722D01*
X181583467Y-87764832D01*
X181594688Y-87769479D01*
X181894163Y-87911120D01*
X181904871Y-87916844D01*
X182188988Y-88087137D01*
X182199106Y-88093897D01*
X182465170Y-88291224D01*
X182474576Y-88298944D01*
X182720013Y-88521395D01*
X182728604Y-88529986D01*
X182857151Y-88671816D01*
X182951055Y-88775423D01*
X182958775Y-88784829D01*
X183156102Y-89050893D01*
X183162862Y-89061011D01*
X183291776Y-89276092D01*
X183333148Y-89345116D01*
X183338885Y-89355848D01*
X183480514Y-89655297D01*
X183485170Y-89666540D01*
X183596759Y-89978411D01*
X183600292Y-89990055D01*
X183680777Y-90311369D01*
X183683151Y-90323305D01*
X183731754Y-90650962D01*
X183732947Y-90663071D01*
X183749351Y-90996966D01*
X183749500Y-91003051D01*
X183749500Y-141246948D01*
X183749351Y-141253033D01*
X183732947Y-141586928D01*
X183731754Y-141599037D01*
X183683151Y-141926694D01*
X183680777Y-141938630D01*
X183600292Y-142259944D01*
X183596759Y-142271588D01*
X183485170Y-142583459D01*
X183480514Y-142594702D01*
X183338885Y-142894151D01*
X183333148Y-142904883D01*
X183162862Y-143188988D01*
X183156102Y-143199106D01*
X182958775Y-143465170D01*
X182951055Y-143474576D01*
X182728611Y-143720006D01*
X182720006Y-143728611D01*
X182474576Y-143951055D01*
X182465170Y-143958775D01*
X182199106Y-144156102D01*
X182188988Y-144162862D01*
X181904883Y-144333148D01*
X181894151Y-144338885D01*
X181594702Y-144480514D01*
X181583459Y-144485170D01*
X181271588Y-144596759D01*
X181259944Y-144600292D01*
X180938630Y-144680777D01*
X180926694Y-144683151D01*
X180599037Y-144731754D01*
X180586928Y-144732947D01*
X180271989Y-144748419D01*
X180253031Y-144749351D01*
X180246949Y-144749500D01*
X119003051Y-144749500D01*
X118996968Y-144749351D01*
X118976900Y-144748365D01*
X118663071Y-144732947D01*
X118650962Y-144731754D01*
X118323305Y-144683151D01*
X118311369Y-144680777D01*
X117990055Y-144600292D01*
X117978411Y-144596759D01*
X117666540Y-144485170D01*
X117655301Y-144480515D01*
X117355844Y-144338883D01*
X117345121Y-144333150D01*
X117061011Y-144162862D01*
X117050893Y-144156102D01*
X116784829Y-143958775D01*
X116775423Y-143951055D01*
X116703629Y-143885985D01*
X116529986Y-143728604D01*
X116521395Y-143720013D01*
X116298944Y-143474576D01*
X116291224Y-143465170D01*
X116093897Y-143199106D01*
X116087137Y-143188988D01*
X115916844Y-142904871D01*
X115911120Y-142894163D01*
X115769479Y-142594688D01*
X115764829Y-142583459D01*
X115729240Y-142483995D01*
X115653240Y-142271588D01*
X115649707Y-142259944D01*
X115640958Y-142225015D01*
X115569219Y-141938617D01*
X115566848Y-141926694D01*
X115560732Y-141885466D01*
X115518245Y-141599037D01*
X115517052Y-141586927D01*
X115500649Y-141253032D01*
X115500575Y-141250000D01*
X116344655Y-141250000D01*
X116364014Y-141570060D01*
X116364014Y-141570065D01*
X116364015Y-141570066D01*
X116421814Y-141885466D01*
X116421815Y-141885470D01*
X116421816Y-141885474D01*
X116517202Y-142191580D01*
X116517208Y-142191595D01*
X116648806Y-142483995D01*
X116648807Y-142483996D01*
X116648809Y-142484000D01*
X116708934Y-142583459D01*
X116814692Y-142758405D01*
X117012448Y-143010822D01*
X117239177Y-143237551D01*
X117239181Y-143237554D01*
X117491592Y-143435306D01*
X117766000Y-143601191D01*
X118058402Y-143732791D01*
X118058411Y-143732793D01*
X118058419Y-143732797D01*
X118297895Y-143807420D01*
X118364534Y-143828186D01*
X118679934Y-143885985D01*
X119000000Y-143905345D01*
X119320066Y-143885985D01*
X119635466Y-143828186D01*
X119808320Y-143774322D01*
X119941580Y-143732797D01*
X119941584Y-143732795D01*
X119941598Y-143732791D01*
X120234000Y-143601191D01*
X120508408Y-143435306D01*
X120760819Y-143237554D01*
X120987554Y-143010819D01*
X121185306Y-142758408D01*
X121351191Y-142484000D01*
X121482791Y-142191598D01*
X121578186Y-141885466D01*
X121635985Y-141570066D01*
X121655345Y-141250000D01*
X121635985Y-140929934D01*
X121578186Y-140614534D01*
X121513861Y-140408108D01*
X121482797Y-140308419D01*
X121482793Y-140308411D01*
X121482791Y-140308402D01*
X121372565Y-140063490D01*
X121351193Y-140016004D01*
X121351192Y-140016003D01*
X121351191Y-140016000D01*
X121185306Y-139741592D01*
X120987554Y-139489181D01*
X120987551Y-139489177D01*
X120760822Y-139262448D01*
X120508405Y-139064692D01*
X120457244Y-139033764D01*
X120234000Y-138898809D01*
X120233996Y-138898807D01*
X120233995Y-138898806D01*
X120034694Y-138809108D01*
X119941598Y-138767209D01*
X119941595Y-138767208D01*
X119941580Y-138767202D01*
X119635474Y-138671816D01*
X119635470Y-138671815D01*
X119635466Y-138671814D01*
X119320066Y-138614015D01*
X119320065Y-138614014D01*
X119320060Y-138614014D01*
X119000000Y-138594655D01*
X118679939Y-138614014D01*
X118679934Y-138614015D01*
X118364534Y-138671814D01*
X118364531Y-138671814D01*
X118364525Y-138671816D01*
X118058419Y-138767202D01*
X118058404Y-138767208D01*
X117766004Y-138898806D01*
X117766002Y-138898808D01*
X117491594Y-139064692D01*
X117239177Y-139262448D01*
X117012448Y-139489177D01*
X116814692Y-139741594D01*
X116648808Y-140016002D01*
X116648806Y-140016004D01*
X116517208Y-140308404D01*
X116517202Y-140308419D01*
X116421816Y-140614525D01*
X116364014Y-140929939D01*
X116344655Y-141250000D01*
X115500575Y-141250000D01*
X115500500Y-141246948D01*
X115500500Y-128500000D01*
X121544355Y-128500000D01*
X121564859Y-128668869D01*
X121564860Y-128668874D01*
X121625182Y-128827931D01*
X121687475Y-128918177D01*
X121721817Y-128967929D01*
X121827505Y-129061560D01*
X121849150Y-129080736D01*
X121957848Y-129137785D01*
X121999775Y-129159790D01*
X122164944Y-129200500D01*
X122191324Y-129200500D01*
X122258363Y-129220185D01*
X122279005Y-129236819D01*
X124813181Y-131770995D01*
X124846666Y-131832318D01*
X124849500Y-131858676D01*
X124849500Y-136932313D01*
X124883608Y-137059609D01*
X124916554Y-137116672D01*
X124949500Y-137173736D01*
X130583078Y-142807314D01*
X130676264Y-142900500D01*
X130790392Y-142966392D01*
X130917685Y-143000500D01*
X130917686Y-143000500D01*
X130917687Y-143000500D01*
X168815890Y-143000500D01*
X168815892Y-143000500D01*
X168943186Y-142966392D01*
X169057314Y-142900500D01*
X170707814Y-141250000D01*
X177344655Y-141250000D01*
X177364014Y-141570060D01*
X177364014Y-141570065D01*
X177364015Y-141570066D01*
X177421814Y-141885466D01*
X177421815Y-141885470D01*
X177421816Y-141885474D01*
X177517202Y-142191580D01*
X177517208Y-142191595D01*
X177648806Y-142483995D01*
X177648807Y-142483996D01*
X177648809Y-142484000D01*
X177708934Y-142583459D01*
X177814692Y-142758405D01*
X178012448Y-143010822D01*
X178239177Y-143237551D01*
X178239181Y-143237554D01*
X178491592Y-143435306D01*
X178766000Y-143601191D01*
X179058402Y-143732791D01*
X179058411Y-143732793D01*
X179058419Y-143732797D01*
X179297895Y-143807420D01*
X179364534Y-143828186D01*
X179679934Y-143885985D01*
X180000000Y-143905345D01*
X180320066Y-143885985D01*
X180635466Y-143828186D01*
X180808320Y-143774322D01*
X180941580Y-143732797D01*
X180941584Y-143732795D01*
X180941598Y-143732791D01*
X181234000Y-143601191D01*
X181508408Y-143435306D01*
X181760819Y-143237554D01*
X181987554Y-143010819D01*
X182185306Y-142758408D01*
X182351191Y-142484000D01*
X182482791Y-142191598D01*
X182578186Y-141885466D01*
X182635985Y-141570066D01*
X182655345Y-141250000D01*
X182635985Y-140929934D01*
X182578186Y-140614534D01*
X182513861Y-140408108D01*
X182482797Y-140308419D01*
X182482793Y-140308411D01*
X182482791Y-140308402D01*
X182372565Y-140063490D01*
X182351193Y-140016004D01*
X182351192Y-140016003D01*
X182351191Y-140016000D01*
X182185306Y-139741592D01*
X181987554Y-139489181D01*
X181987551Y-139489177D01*
X181760822Y-139262448D01*
X181508405Y-139064692D01*
X181457244Y-139033764D01*
X181234000Y-138898809D01*
X181233996Y-138898807D01*
X181233995Y-138898806D01*
X181034694Y-138809108D01*
X180941598Y-138767209D01*
X180941595Y-138767208D01*
X180941580Y-138767202D01*
X180635474Y-138671816D01*
X180635470Y-138671815D01*
X180635466Y-138671814D01*
X180320066Y-138614015D01*
X180320065Y-138614014D01*
X180320060Y-138614014D01*
X180000000Y-138594655D01*
X179679939Y-138614014D01*
X179679934Y-138614015D01*
X179364534Y-138671814D01*
X179364531Y-138671814D01*
X179364525Y-138671816D01*
X179058419Y-138767202D01*
X179058404Y-138767208D01*
X178766004Y-138898806D01*
X178766002Y-138898808D01*
X178491594Y-139064692D01*
X178239177Y-139262448D01*
X178012448Y-139489177D01*
X177814692Y-139741594D01*
X177648808Y-140016002D01*
X177648806Y-140016004D01*
X177517208Y-140308404D01*
X177517202Y-140308419D01*
X177421816Y-140614525D01*
X177364014Y-140929939D01*
X177344655Y-141250000D01*
X170707814Y-141250000D01*
X173650500Y-138307314D01*
X173716392Y-138193186D01*
X173750500Y-138065892D01*
X173750500Y-137934108D01*
X173750500Y-135624500D01*
X173770185Y-135557461D01*
X173822989Y-135511706D01*
X173874500Y-135500500D01*
X173940686Y-135500500D01*
X173940694Y-135500500D01*
X173977569Y-135497598D01*
X173977571Y-135497597D01*
X173977573Y-135497597D01*
X174019191Y-135485505D01*
X174135398Y-135451744D01*
X174276865Y-135368081D01*
X174393081Y-135251865D01*
X174476744Y-135110398D01*
X174522598Y-134952569D01*
X174525500Y-134915694D01*
X174525500Y-134084306D01*
X174522598Y-134047431D01*
X174476744Y-133889602D01*
X174393081Y-133748135D01*
X174393079Y-133748133D01*
X174393076Y-133748129D01*
X174276870Y-133631923D01*
X174276862Y-133631917D01*
X174135396Y-133548255D01*
X174127338Y-133545914D01*
X174068453Y-133508306D01*
X174039248Y-133444833D01*
X174048995Y-133375647D01*
X174093043Y-133323736D01*
X174162782Y-133277139D01*
X174302139Y-133137782D01*
X174411632Y-132973914D01*
X174487051Y-132791835D01*
X174525500Y-132598541D01*
X174525500Y-132401459D01*
X174525500Y-132401456D01*
X174487052Y-132208170D01*
X174487051Y-132208169D01*
X174487051Y-132208165D01*
X174414748Y-132033608D01*
X174411635Y-132026092D01*
X174411628Y-132026079D01*
X174302139Y-131862218D01*
X174302136Y-131862214D01*
X174162785Y-131722863D01*
X174162781Y-131722860D01*
X173998920Y-131613371D01*
X173993544Y-131610498D01*
X173994510Y-131608689D01*
X173947397Y-131570728D01*
X173925326Y-131504436D01*
X173942600Y-131436735D01*
X173993734Y-131389121D01*
X173997331Y-131387477D01*
X173998907Y-131386634D01*
X173998914Y-131386632D01*
X174162782Y-131277139D01*
X174302139Y-131137782D01*
X174411632Y-130973914D01*
X174487051Y-130791835D01*
X174525500Y-130598541D01*
X174525500Y-130401459D01*
X174525500Y-130401456D01*
X174487052Y-130208170D01*
X174487051Y-130208169D01*
X174487051Y-130208165D01*
X174487049Y-130208160D01*
X174411635Y-130026092D01*
X174411628Y-130026079D01*
X174302139Y-129862218D01*
X174302136Y-129862214D01*
X174162785Y-129722863D01*
X174162781Y-129722860D01*
X173998920Y-129613371D01*
X173993544Y-129610498D01*
X173994510Y-129608689D01*
X173947397Y-129570728D01*
X173925326Y-129504436D01*
X173942600Y-129436735D01*
X173993734Y-129389121D01*
X173997331Y-129387477D01*
X173998907Y-129386634D01*
X173998914Y-129386632D01*
X174162782Y-129277139D01*
X174302139Y-129137782D01*
X174411632Y-128973914D01*
X174487051Y-128791835D01*
X174525500Y-128598541D01*
X174525500Y-128401459D01*
X174525500Y-128401456D01*
X174487052Y-128208170D01*
X174487051Y-128208169D01*
X174487051Y-128208165D01*
X174472099Y-128172068D01*
X174411635Y-128026092D01*
X174411628Y-128026079D01*
X174302139Y-127862218D01*
X174302136Y-127862214D01*
X174162785Y-127722863D01*
X174162781Y-127722860D01*
X173998920Y-127613371D01*
X173993544Y-127610498D01*
X173994510Y-127608689D01*
X173947397Y-127570728D01*
X173925326Y-127504436D01*
X173942600Y-127436735D01*
X173993734Y-127389121D01*
X173997331Y-127387477D01*
X173998907Y-127386634D01*
X173998914Y-127386632D01*
X174162782Y-127277139D01*
X174302139Y-127137782D01*
X174411632Y-126973914D01*
X174487051Y-126791835D01*
X174525500Y-126598541D01*
X174525500Y-126401459D01*
X174525500Y-126401456D01*
X174487052Y-126208170D01*
X174487051Y-126208169D01*
X174487051Y-126208165D01*
X174487049Y-126208160D01*
X174411635Y-126026092D01*
X174411628Y-126026079D01*
X174302139Y-125862218D01*
X174302136Y-125862214D01*
X174162785Y-125722863D01*
X174162781Y-125722860D01*
X173998920Y-125613371D01*
X173998907Y-125613364D01*
X173816839Y-125537950D01*
X173816829Y-125537947D01*
X173623543Y-125499500D01*
X173623541Y-125499500D01*
X172876459Y-125499500D01*
X172876457Y-125499500D01*
X172683170Y-125537947D01*
X172683160Y-125537950D01*
X172501092Y-125613364D01*
X172501079Y-125613371D01*
X172337218Y-125722860D01*
X172337214Y-125722863D01*
X172197863Y-125862214D01*
X172197860Y-125862218D01*
X172088371Y-126026079D01*
X172088364Y-126026092D01*
X172012950Y-126208160D01*
X172012947Y-126208170D01*
X171974500Y-126401456D01*
X171974500Y-126401459D01*
X171974500Y-126598541D01*
X171974500Y-126598543D01*
X171974499Y-126598543D01*
X172012947Y-126791829D01*
X172012950Y-126791839D01*
X172088364Y-126973907D01*
X172088371Y-126973920D01*
X172197860Y-127137781D01*
X172197863Y-127137785D01*
X172337214Y-127277136D01*
X172337218Y-127277139D01*
X172501079Y-127386628D01*
X172506456Y-127389502D01*
X172505490Y-127391308D01*
X172552612Y-127429285D01*
X172574673Y-127495580D01*
X172557391Y-127563279D01*
X172506251Y-127610887D01*
X172502660Y-127612526D01*
X172501079Y-127613371D01*
X172337218Y-127722860D01*
X172337214Y-127722863D01*
X172197863Y-127862214D01*
X172197860Y-127862218D01*
X172088371Y-128026079D01*
X172088364Y-128026092D01*
X172012950Y-128208160D01*
X172012947Y-128208170D01*
X171974500Y-128401456D01*
X171974500Y-128401459D01*
X171974500Y-128598541D01*
X171974500Y-128598543D01*
X171974499Y-128598543D01*
X172012947Y-128791829D01*
X172012950Y-128791839D01*
X172088364Y-128973907D01*
X172088371Y-128973920D01*
X172197860Y-129137781D01*
X172197863Y-129137785D01*
X172337214Y-129277136D01*
X172337218Y-129277139D01*
X172501079Y-129386628D01*
X172506456Y-129389502D01*
X172505490Y-129391308D01*
X172552612Y-129429285D01*
X172574673Y-129495580D01*
X172557391Y-129563279D01*
X172506251Y-129610887D01*
X172502660Y-129612526D01*
X172501079Y-129613371D01*
X172337218Y-129722860D01*
X172337214Y-129722863D01*
X172197863Y-129862214D01*
X172197860Y-129862218D01*
X172088371Y-130026079D01*
X172088364Y-130026092D01*
X172012950Y-130208160D01*
X172012947Y-130208170D01*
X171974500Y-130401456D01*
X171974500Y-130401459D01*
X171974500Y-130598541D01*
X171974500Y-130598543D01*
X171974499Y-130598543D01*
X172012947Y-130791829D01*
X172012950Y-130791839D01*
X172088364Y-130973907D01*
X172088371Y-130973920D01*
X172197860Y-131137781D01*
X172197863Y-131137785D01*
X172337214Y-131277136D01*
X172337218Y-131277139D01*
X172501079Y-131386628D01*
X172506456Y-131389502D01*
X172505490Y-131391308D01*
X172552612Y-131429285D01*
X172574673Y-131495580D01*
X172557391Y-131563279D01*
X172506251Y-131610887D01*
X172502660Y-131612526D01*
X172501079Y-131613371D01*
X172337218Y-131722860D01*
X172337214Y-131722863D01*
X172197862Y-131862215D01*
X172164221Y-131912562D01*
X172142954Y-131944391D01*
X172089343Y-131989196D01*
X172039853Y-131999500D01*
X171734107Y-131999500D01*
X171606812Y-132033608D01*
X171492686Y-132099500D01*
X171492683Y-132099502D01*
X169399502Y-134192683D01*
X169399500Y-134192686D01*
X169333608Y-134306812D01*
X169299500Y-134434108D01*
X169299500Y-139941324D01*
X169279815Y-140008363D01*
X169263181Y-140029005D01*
X168029005Y-141263181D01*
X167967682Y-141296666D01*
X167941324Y-141299500D01*
X159511510Y-141299500D01*
X159444471Y-141279815D01*
X159398716Y-141227011D01*
X159388414Y-141190447D01*
X159375140Y-141081130D01*
X159375139Y-141081125D01*
X159314817Y-140922068D01*
X159280476Y-140872318D01*
X159218183Y-140782071D01*
X159090852Y-140669266D01*
X159090849Y-140669263D01*
X158940226Y-140590210D01*
X158775056Y-140549500D01*
X158604944Y-140549500D01*
X158439773Y-140590210D01*
X158289150Y-140669263D01*
X158161816Y-140782072D01*
X158065182Y-140922068D01*
X158004860Y-141081125D01*
X158004859Y-141081130D01*
X157991586Y-141190447D01*
X157963964Y-141254625D01*
X157906030Y-141293681D01*
X157868490Y-141299500D01*
X147011510Y-141299500D01*
X146944471Y-141279815D01*
X146898716Y-141227011D01*
X146888414Y-141190447D01*
X146875140Y-141081130D01*
X146875139Y-141081125D01*
X146814817Y-140922068D01*
X146780476Y-140872318D01*
X146718183Y-140782071D01*
X146590852Y-140669266D01*
X146590849Y-140669263D01*
X146440226Y-140590210D01*
X146275056Y-140549500D01*
X146104944Y-140549500D01*
X145939773Y-140590210D01*
X145789150Y-140669263D01*
X145661816Y-140782072D01*
X145565182Y-140922068D01*
X145504860Y-141081125D01*
X145504859Y-141081130D01*
X145491586Y-141190447D01*
X145463964Y-141254625D01*
X145406030Y-141293681D01*
X145368490Y-141299500D01*
X134236510Y-141299500D01*
X134169471Y-141279815D01*
X134123716Y-141227011D01*
X134113414Y-141190447D01*
X134100140Y-141081130D01*
X134100139Y-141081125D01*
X134039817Y-140922068D01*
X134005476Y-140872318D01*
X133943183Y-140782071D01*
X133815852Y-140669266D01*
X133815849Y-140669263D01*
X133665226Y-140590210D01*
X133500056Y-140549500D01*
X133329944Y-140549500D01*
X133164773Y-140590210D01*
X133014150Y-140669263D01*
X132886816Y-140782072D01*
X132790182Y-140922068D01*
X132729860Y-141081125D01*
X132729859Y-141081130D01*
X132716586Y-141190447D01*
X132688964Y-141254625D01*
X132631030Y-141293681D01*
X132593490Y-141299500D01*
X131558675Y-141299500D01*
X131491636Y-141279815D01*
X131470994Y-141263181D01*
X130636819Y-140429005D01*
X130603334Y-140367682D01*
X130600500Y-140341324D01*
X130600500Y-137796204D01*
X130620185Y-137729165D01*
X130623985Y-137724146D01*
X130623922Y-137724103D01*
X130656828Y-137676428D01*
X130724818Y-137577930D01*
X130785140Y-137418872D01*
X130805645Y-137250000D01*
X130785140Y-137081128D01*
X130724818Y-136922070D01*
X130628183Y-136782071D01*
X130500852Y-136669266D01*
X130500849Y-136669263D01*
X130350226Y-136590210D01*
X130185056Y-136549500D01*
X130014944Y-136549500D01*
X129849773Y-136590210D01*
X129699150Y-136669263D01*
X129571816Y-136782072D01*
X129475182Y-136922068D01*
X129414860Y-137081125D01*
X129414859Y-137081130D01*
X129394355Y-137250000D01*
X129414859Y-137418869D01*
X129414860Y-137418874D01*
X129475182Y-137577931D01*
X129576078Y-137724103D01*
X129573807Y-137725670D01*
X129598034Y-137777190D01*
X129599500Y-137796204D01*
X129599500Y-140108746D01*
X129579815Y-140175785D01*
X129527011Y-140221540D01*
X129457853Y-140231484D01*
X129394297Y-140202459D01*
X129387819Y-140196427D01*
X125886819Y-136695427D01*
X125853334Y-136634104D01*
X125850500Y-136607746D01*
X125850500Y-131534110D01*
X125850500Y-131534108D01*
X125816392Y-131406814D01*
X125750500Y-131292686D01*
X125657314Y-131199500D01*
X122985602Y-128527788D01*
X122952117Y-128466465D01*
X122950187Y-128455053D01*
X122935140Y-128331128D01*
X122874818Y-128172070D01*
X122778183Y-128032071D01*
X122650852Y-127919266D01*
X122650849Y-127919263D01*
X122500226Y-127840210D01*
X122335056Y-127799500D01*
X122164944Y-127799500D01*
X121999773Y-127840210D01*
X121849150Y-127919263D01*
X121721816Y-128032072D01*
X121625182Y-128172068D01*
X121564860Y-128331125D01*
X121564859Y-128331130D01*
X121544355Y-128500000D01*
X115500500Y-128500000D01*
X115500500Y-118000000D01*
X123136468Y-118000000D01*
X123156579Y-118358117D01*
X123156581Y-118358129D01*
X123216661Y-118711736D01*
X123216663Y-118711745D01*
X123315957Y-119056402D01*
X123453218Y-119387784D01*
X123453220Y-119387788D01*
X123453222Y-119387791D01*
X123626726Y-119701722D01*
X123834287Y-119994252D01*
X124073296Y-120261704D01*
X124340748Y-120500713D01*
X124633278Y-120708274D01*
X124947209Y-120881778D01*
X124947211Y-120881779D01*
X124947215Y-120881781D01*
X125054777Y-120926334D01*
X125278592Y-121019041D01*
X125623260Y-121118338D01*
X125976878Y-121178420D01*
X126335000Y-121198532D01*
X126693122Y-121178420D01*
X127046740Y-121118338D01*
X127391408Y-121019041D01*
X127722791Y-120881778D01*
X128036722Y-120708274D01*
X128329252Y-120500713D01*
X128596704Y-120261704D01*
X128835713Y-119994252D01*
X129043274Y-119701722D01*
X129216778Y-119387791D01*
X129354041Y-119056408D01*
X129453338Y-118711740D01*
X129513420Y-118358122D01*
X129533532Y-118000000D01*
X169666468Y-118000000D01*
X169686579Y-118358117D01*
X169686581Y-118358129D01*
X169746661Y-118711736D01*
X169746663Y-118711745D01*
X169845957Y-119056402D01*
X169983218Y-119387784D01*
X169983220Y-119387788D01*
X169983222Y-119387791D01*
X170156726Y-119701722D01*
X170364287Y-119994252D01*
X170603296Y-120261704D01*
X170870748Y-120500713D01*
X171163278Y-120708274D01*
X171477209Y-120881778D01*
X171477211Y-120881779D01*
X171477215Y-120881781D01*
X171584777Y-120926334D01*
X171808592Y-121019041D01*
X172153260Y-121118338D01*
X172506878Y-121178420D01*
X172865000Y-121198532D01*
X173223122Y-121178420D01*
X173576740Y-121118338D01*
X173921408Y-121019041D01*
X174252791Y-120881778D01*
X174566722Y-120708274D01*
X174859252Y-120500713D01*
X175126704Y-120261704D01*
X175365713Y-119994252D01*
X175573274Y-119701722D01*
X175746778Y-119387791D01*
X175884041Y-119056408D01*
X175983338Y-118711740D01*
X176043420Y-118358122D01*
X176063532Y-118000000D01*
X176043420Y-117641878D01*
X175983338Y-117288260D01*
X175884041Y-116943592D01*
X175791334Y-116719777D01*
X175746781Y-116612215D01*
X175746779Y-116612211D01*
X175573273Y-116298277D01*
X175365713Y-116005748D01*
X175126704Y-115738296D01*
X174859252Y-115499287D01*
X174566722Y-115291726D01*
X174461280Y-115233450D01*
X174252788Y-115118220D01*
X174252784Y-115118218D01*
X174022809Y-115022960D01*
X173921408Y-114980959D01*
X173921404Y-114980957D01*
X173921402Y-114980957D01*
X173576745Y-114881663D01*
X173576736Y-114881661D01*
X173223129Y-114821581D01*
X173223117Y-114821579D01*
X172865000Y-114801468D01*
X172506882Y-114821579D01*
X172506870Y-114821581D01*
X172153263Y-114881661D01*
X172153254Y-114881663D01*
X171808597Y-114980957D01*
X171477215Y-115118218D01*
X171477211Y-115118220D01*
X171163277Y-115291726D01*
X170870746Y-115499288D01*
X170603296Y-115738296D01*
X170364288Y-116005746D01*
X170156726Y-116298277D01*
X169983220Y-116612211D01*
X169983218Y-116612215D01*
X169845957Y-116943597D01*
X169746663Y-117288254D01*
X169746661Y-117288263D01*
X169686581Y-117641870D01*
X169686579Y-117641882D01*
X169666468Y-118000000D01*
X129533532Y-118000000D01*
X129513420Y-117641878D01*
X129453338Y-117288260D01*
X129354041Y-116943592D01*
X129261334Y-116719777D01*
X129216781Y-116612215D01*
X129216779Y-116612211D01*
X129043273Y-116298277D01*
X128835713Y-116005748D01*
X128596704Y-115738296D01*
X128329252Y-115499287D01*
X128036722Y-115291726D01*
X127931280Y-115233450D01*
X127722788Y-115118220D01*
X127722784Y-115118218D01*
X127492809Y-115022960D01*
X127391408Y-114980959D01*
X127391404Y-114980957D01*
X127391402Y-114980957D01*
X127046745Y-114881663D01*
X127046736Y-114881661D01*
X126693129Y-114821581D01*
X126693117Y-114821579D01*
X126335000Y-114801468D01*
X125976882Y-114821579D01*
X125976870Y-114821581D01*
X125623263Y-114881661D01*
X125623254Y-114881663D01*
X125278597Y-114980957D01*
X124947215Y-115118218D01*
X124947211Y-115118220D01*
X124633277Y-115291726D01*
X124340746Y-115499288D01*
X124073296Y-115738296D01*
X123834288Y-116005746D01*
X123626726Y-116298277D01*
X123453220Y-116612211D01*
X123453218Y-116612215D01*
X123315957Y-116943597D01*
X123216663Y-117288254D01*
X123216661Y-117288263D01*
X123156581Y-117641870D01*
X123156579Y-117641882D01*
X123136468Y-118000000D01*
X115500500Y-118000000D01*
X115500500Y-113234998D01*
X117709532Y-113234998D01*
X117709532Y-113235001D01*
X117729364Y-113461686D01*
X117729366Y-113461697D01*
X117788258Y-113681488D01*
X117788261Y-113681497D01*
X117884431Y-113887732D01*
X117884432Y-113887734D01*
X118014954Y-114074141D01*
X118175858Y-114235045D01*
X118175861Y-114235047D01*
X118362266Y-114365568D01*
X118568504Y-114461739D01*
X118788308Y-114520635D01*
X118950230Y-114534801D01*
X119014998Y-114540468D01*
X119015000Y-114540468D01*
X119015002Y-114540468D01*
X119071673Y-114535509D01*
X119241692Y-114520635D01*
X119461496Y-114461739D01*
X119667734Y-114365568D01*
X119854139Y-114235047D01*
X120015047Y-114074139D01*
X120145568Y-113887734D01*
X120241739Y-113681496D01*
X120300635Y-113461692D01*
X120320468Y-113235000D01*
X120300635Y-113008308D01*
X120241739Y-112788504D01*
X120145568Y-112582266D01*
X120015047Y-112395861D01*
X120015045Y-112395858D01*
X119854141Y-112234954D01*
X119667734Y-112104432D01*
X119667732Y-112104431D01*
X119461497Y-112008261D01*
X119461488Y-112008258D01*
X119241697Y-111949366D01*
X119241693Y-111949365D01*
X119241692Y-111949365D01*
X119241691Y-111949364D01*
X119241686Y-111949364D01*
X119015002Y-111929532D01*
X119014998Y-111929532D01*
X118788313Y-111949364D01*
X118788302Y-111949366D01*
X118568511Y-112008258D01*
X118568502Y-112008261D01*
X118362267Y-112104431D01*
X118362265Y-112104432D01*
X118175858Y-112234954D01*
X118014954Y-112395858D01*
X117884432Y-112582265D01*
X117884431Y-112582267D01*
X117788261Y-112788502D01*
X117788258Y-112788511D01*
X117729366Y-113008302D01*
X117729364Y-113008313D01*
X117709532Y-113234998D01*
X115500500Y-113234998D01*
X115500500Y-106374998D01*
X117709532Y-106374998D01*
X117709532Y-106375001D01*
X117729364Y-106601686D01*
X117729366Y-106601697D01*
X117788258Y-106821488D01*
X117788261Y-106821497D01*
X117884431Y-107027732D01*
X117884432Y-107027734D01*
X118014954Y-107214141D01*
X118175858Y-107375045D01*
X118175861Y-107375047D01*
X118362266Y-107505568D01*
X118568504Y-107601739D01*
X118788308Y-107660635D01*
X118950230Y-107674801D01*
X119014998Y-107680468D01*
X119015000Y-107680468D01*
X119015002Y-107680468D01*
X119071673Y-107675509D01*
X119241692Y-107660635D01*
X119378416Y-107624000D01*
X133744500Y-107624000D01*
X133744500Y-115126000D01*
X133744501Y-115126009D01*
X133756052Y-115233450D01*
X133756054Y-115233462D01*
X133767260Y-115284972D01*
X133801383Y-115387497D01*
X133801386Y-115387503D01*
X133879171Y-115508537D01*
X133879179Y-115508548D01*
X133924923Y-115561340D01*
X133924926Y-115561343D01*
X133924930Y-115561347D01*
X134033664Y-115655567D01*
X134033667Y-115655568D01*
X134033668Y-115655569D01*
X134055700Y-115665631D01*
X134164541Y-115715338D01*
X134231580Y-115735023D01*
X134231584Y-115735024D01*
X134374000Y-115755500D01*
X134374003Y-115755500D01*
X143450491Y-115755500D01*
X143455248Y-115755275D01*
X143498079Y-115753255D01*
X143498099Y-115753253D01*
X143498116Y-115753252D01*
X143521316Y-115751058D01*
X143568478Y-115744344D01*
X143568479Y-115744343D01*
X143568490Y-115744342D01*
X143704543Y-115697533D01*
X143766704Y-115665631D01*
X143884057Y-115582388D01*
X143978689Y-115492488D01*
X143978690Y-115492487D01*
X148809568Y-110903152D01*
X148850918Y-110858860D01*
X148869828Y-110835999D01*
X148903838Y-110789467D01*
X148905565Y-110787104D01*
X148905569Y-110787097D01*
X148965335Y-110656230D01*
X148965338Y-110656224D01*
X148985023Y-110589185D01*
X148985024Y-110589181D01*
X149005500Y-110446765D01*
X149005500Y-110158257D01*
X150469610Y-110158257D01*
X150469610Y-110158266D01*
X150481016Y-110266415D01*
X150481018Y-110266430D01*
X150492218Y-110318252D01*
X150492222Y-110318267D01*
X150526492Y-110421466D01*
X150526496Y-110421474D01*
X150604279Y-110542505D01*
X150604287Y-110542516D01*
X150650031Y-110595308D01*
X150650034Y-110595311D01*
X150650038Y-110595315D01*
X150758772Y-110689535D01*
X150758775Y-110689536D01*
X150758776Y-110689537D01*
X150790429Y-110703993D01*
X150889649Y-110749306D01*
X150956688Y-110768991D01*
X150956692Y-110768992D01*
X151099108Y-110789468D01*
X151099111Y-110789468D01*
X155200398Y-110789468D01*
X155200414Y-110789468D01*
X155248259Y-110787199D01*
X155271630Y-110784977D01*
X155319059Y-110778187D01*
X155391217Y-110753276D01*
X155455058Y-110731237D01*
X155455059Y-110731236D01*
X155455063Y-110731235D01*
X155508019Y-110703986D01*
X155514077Y-110701482D01*
X155517191Y-110699268D01*
X155517192Y-110699268D01*
X155634459Y-110615902D01*
X158354350Y-108026585D01*
X159909500Y-108026585D01*
X159909500Y-108026586D01*
X159909500Y-111563414D01*
X159944327Y-111827959D01*
X159976858Y-111949366D01*
X160013390Y-112085701D01*
X160115493Y-112332201D01*
X160115501Y-112332218D01*
X160248907Y-112563282D01*
X160248918Y-112563298D01*
X160411344Y-112774976D01*
X160411350Y-112774983D01*
X160600016Y-112963649D01*
X160600022Y-112963654D01*
X160811710Y-113126088D01*
X160811717Y-113126092D01*
X161042781Y-113259498D01*
X161042786Y-113259500D01*
X161042789Y-113259502D01*
X161042793Y-113259503D01*
X161042798Y-113259506D01*
X161289298Y-113361609D01*
X161289300Y-113361609D01*
X161289306Y-113361612D01*
X161547041Y-113430673D01*
X161745449Y-113456793D01*
X161811585Y-113465500D01*
X161811586Y-113465500D01*
X162078415Y-113465500D01*
X162131323Y-113458534D01*
X162342959Y-113430673D01*
X162600694Y-113361612D01*
X162847211Y-113259502D01*
X162889653Y-113234998D01*
X178879532Y-113234998D01*
X178879532Y-113235001D01*
X178899364Y-113461686D01*
X178899366Y-113461697D01*
X178958258Y-113681488D01*
X178958261Y-113681497D01*
X179054431Y-113887732D01*
X179054432Y-113887734D01*
X179184954Y-114074141D01*
X179345858Y-114235045D01*
X179345861Y-114235047D01*
X179532266Y-114365568D01*
X179738504Y-114461739D01*
X179958308Y-114520635D01*
X180120230Y-114534801D01*
X180184998Y-114540468D01*
X180185000Y-114540468D01*
X180185002Y-114540468D01*
X180241673Y-114535509D01*
X180411692Y-114520635D01*
X180631496Y-114461739D01*
X180837734Y-114365568D01*
X181024139Y-114235047D01*
X181185047Y-114074139D01*
X181315568Y-113887734D01*
X181411739Y-113681496D01*
X181470635Y-113461692D01*
X181490468Y-113235000D01*
X181470635Y-113008308D01*
X181411739Y-112788504D01*
X181315568Y-112582266D01*
X181185047Y-112395861D01*
X181185045Y-112395858D01*
X181024141Y-112234954D01*
X180837734Y-112104432D01*
X180837732Y-112104431D01*
X180631497Y-112008261D01*
X180631488Y-112008258D01*
X180411697Y-111949366D01*
X180411693Y-111949365D01*
X180411692Y-111949365D01*
X180411691Y-111949364D01*
X180411686Y-111949364D01*
X180185002Y-111929532D01*
X180184998Y-111929532D01*
X179958313Y-111949364D01*
X179958302Y-111949366D01*
X179738511Y-112008258D01*
X179738502Y-112008261D01*
X179532267Y-112104431D01*
X179532265Y-112104432D01*
X179345858Y-112234954D01*
X179184954Y-112395858D01*
X179054432Y-112582265D01*
X179054431Y-112582267D01*
X178958261Y-112788502D01*
X178958258Y-112788511D01*
X178899366Y-113008302D01*
X178899364Y-113008313D01*
X178879532Y-113234998D01*
X162889653Y-113234998D01*
X163078290Y-113126088D01*
X163289978Y-112963654D01*
X163478654Y-112774978D01*
X163641088Y-112563290D01*
X163774502Y-112332211D01*
X163876612Y-112085694D01*
X163945673Y-111827959D01*
X163980500Y-111563414D01*
X163980500Y-108026586D01*
X163945673Y-107762041D01*
X163876612Y-107504306D01*
X163867200Y-107481584D01*
X163774506Y-107257798D01*
X163774498Y-107257781D01*
X163641092Y-107026717D01*
X163641088Y-107026710D01*
X163521224Y-106870500D01*
X163478655Y-106815023D01*
X163478649Y-106815016D01*
X163289983Y-106626350D01*
X163289976Y-106626344D01*
X163078298Y-106463918D01*
X163078296Y-106463916D01*
X163078290Y-106463912D01*
X163078285Y-106463909D01*
X163078282Y-106463907D01*
X162847218Y-106330501D01*
X162847201Y-106330493D01*
X162600701Y-106228390D01*
X162342955Y-106159326D01*
X162078415Y-106124500D01*
X162078414Y-106124500D01*
X161811586Y-106124500D01*
X161811585Y-106124500D01*
X161547044Y-106159326D01*
X161289298Y-106228390D01*
X161042798Y-106330493D01*
X161042781Y-106330501D01*
X160811717Y-106463907D01*
X160811701Y-106463918D01*
X160600023Y-106626344D01*
X160600016Y-106626350D01*
X160411350Y-106815016D01*
X160411344Y-106815023D01*
X160248918Y-107026701D01*
X160248907Y-107026717D01*
X160115501Y-107257781D01*
X160115493Y-107257798D01*
X160013390Y-107504298D01*
X159944326Y-107762044D01*
X159909500Y-108026585D01*
X158354350Y-108026585D01*
X160060045Y-106402775D01*
X160101184Y-106358640D01*
X160120000Y-106335868D01*
X160155567Y-106287177D01*
X160215338Y-106156300D01*
X160235023Y-106089261D01*
X160235024Y-106089257D01*
X160255500Y-105946841D01*
X160255500Y-105018495D01*
X160275185Y-104951456D01*
X160327989Y-104905701D01*
X160397147Y-104895757D01*
X160460703Y-104924782D01*
X160467181Y-104930814D01*
X160600016Y-105063649D01*
X160600023Y-105063655D01*
X160750765Y-105179323D01*
X160811710Y-105226088D01*
X160811717Y-105226092D01*
X161042781Y-105359498D01*
X161042786Y-105359500D01*
X161042789Y-105359502D01*
X161042793Y-105359503D01*
X161042798Y-105359506D01*
X161289298Y-105461609D01*
X161289300Y-105461609D01*
X161289306Y-105461612D01*
X161547041Y-105530673D01*
X161745449Y-105556793D01*
X161811585Y-105565500D01*
X161811586Y-105565500D01*
X162078415Y-105565500D01*
X162131323Y-105558534D01*
X162342959Y-105530673D01*
X162600694Y-105461612D01*
X162847211Y-105359502D01*
X162924294Y-105314998D01*
X178879532Y-105314998D01*
X178879532Y-105315001D01*
X178899364Y-105541686D01*
X178899366Y-105541697D01*
X178958258Y-105761488D01*
X178958261Y-105761497D01*
X179054431Y-105967732D01*
X179054432Y-105967734D01*
X179184954Y-106154141D01*
X179345858Y-106315045D01*
X179367932Y-106330501D01*
X179532266Y-106445568D01*
X179738504Y-106541739D01*
X179958308Y-106600635D01*
X180120230Y-106614801D01*
X180184998Y-106620468D01*
X180185000Y-106620468D01*
X180185002Y-106620468D01*
X180241673Y-106615509D01*
X180411692Y-106600635D01*
X180631496Y-106541739D01*
X180837734Y-106445568D01*
X181024139Y-106315047D01*
X181185047Y-106154139D01*
X181315568Y-105967734D01*
X181411739Y-105761496D01*
X181470635Y-105541692D01*
X181490468Y-105315000D01*
X181470635Y-105088308D01*
X181417546Y-104890177D01*
X181411741Y-104868511D01*
X181411738Y-104868502D01*
X181359044Y-104755500D01*
X181315568Y-104662266D01*
X181185047Y-104475861D01*
X181185045Y-104475858D01*
X181024141Y-104314954D01*
X180837734Y-104184432D01*
X180837732Y-104184431D01*
X180631497Y-104088261D01*
X180631488Y-104088258D01*
X180411697Y-104029366D01*
X180411693Y-104029365D01*
X180411692Y-104029365D01*
X180411691Y-104029364D01*
X180411686Y-104029364D01*
X180185002Y-104009532D01*
X180184998Y-104009532D01*
X179958313Y-104029364D01*
X179958302Y-104029366D01*
X179738511Y-104088258D01*
X179738502Y-104088261D01*
X179532267Y-104184431D01*
X179532265Y-104184432D01*
X179345858Y-104314954D01*
X179184954Y-104475858D01*
X179054432Y-104662265D01*
X179054431Y-104662267D01*
X178958261Y-104868502D01*
X178958258Y-104868511D01*
X178899366Y-105088302D01*
X178899364Y-105088313D01*
X178879532Y-105314998D01*
X162924294Y-105314998D01*
X163078290Y-105226088D01*
X163289978Y-105063654D01*
X163478654Y-104874978D01*
X163595513Y-104722684D01*
X163651940Y-104681482D01*
X163721686Y-104677327D01*
X163745397Y-104685375D01*
X163811004Y-104715338D01*
X163878043Y-104735023D01*
X163878047Y-104735024D01*
X164020463Y-104755500D01*
X164020466Y-104755500D01*
X164625990Y-104755500D01*
X164626000Y-104755500D01*
X164733456Y-104743947D01*
X164784967Y-104732741D01*
X164819197Y-104721347D01*
X164887497Y-104698616D01*
X164887501Y-104698613D01*
X164887504Y-104698613D01*
X165008543Y-104620825D01*
X165061347Y-104575070D01*
X165155567Y-104466336D01*
X165215338Y-104335459D01*
X165235023Y-104268420D01*
X165235024Y-104268416D01*
X165255500Y-104126000D01*
X165255500Y-98454998D01*
X178879532Y-98454998D01*
X178879532Y-98455001D01*
X178899364Y-98681686D01*
X178899366Y-98681697D01*
X178958258Y-98901488D01*
X178958261Y-98901497D01*
X179054431Y-99107732D01*
X179054432Y-99107734D01*
X179184954Y-99294141D01*
X179345858Y-99455045D01*
X179345861Y-99455047D01*
X179532266Y-99585568D01*
X179738504Y-99681739D01*
X179958308Y-99740635D01*
X180120230Y-99754801D01*
X180184998Y-99760468D01*
X180185000Y-99760468D01*
X180185002Y-99760468D01*
X180241673Y-99755509D01*
X180411692Y-99740635D01*
X180631496Y-99681739D01*
X180837734Y-99585568D01*
X181024139Y-99455047D01*
X181185047Y-99294139D01*
X181315568Y-99107734D01*
X181411739Y-98901496D01*
X181470635Y-98681692D01*
X181490468Y-98455000D01*
X181470635Y-98228308D01*
X181411739Y-98008504D01*
X181315568Y-97802266D01*
X181185047Y-97615861D01*
X181185045Y-97615858D01*
X181024141Y-97454954D01*
X180837734Y-97324432D01*
X180837732Y-97324431D01*
X180631497Y-97228261D01*
X180631488Y-97228258D01*
X180411697Y-97169366D01*
X180411693Y-97169365D01*
X180411692Y-97169365D01*
X180411691Y-97169364D01*
X180411686Y-97169364D01*
X180185002Y-97149532D01*
X180184998Y-97149532D01*
X179958313Y-97169364D01*
X179958302Y-97169366D01*
X179738511Y-97228258D01*
X179738502Y-97228261D01*
X179532267Y-97324431D01*
X179532265Y-97324432D01*
X179345858Y-97454954D01*
X179184954Y-97615858D01*
X179054432Y-97802265D01*
X179054431Y-97802267D01*
X178958261Y-98008502D01*
X178958258Y-98008511D01*
X178899366Y-98228302D01*
X178899364Y-98228313D01*
X178879532Y-98454998D01*
X165255500Y-98454998D01*
X165255500Y-96874000D01*
X165243947Y-96766544D01*
X165232741Y-96715033D01*
X165230747Y-96709041D01*
X165198616Y-96612502D01*
X165198613Y-96612496D01*
X165120828Y-96491462D01*
X165120825Y-96491457D01*
X165120820Y-96491451D01*
X165075076Y-96438659D01*
X165075072Y-96438656D01*
X165075070Y-96438653D01*
X164966336Y-96344433D01*
X164966333Y-96344431D01*
X164966331Y-96344430D01*
X164835465Y-96284664D01*
X164835460Y-96284662D01*
X164835459Y-96284662D01*
X164768420Y-96264977D01*
X164768422Y-96264977D01*
X164768417Y-96264976D01*
X164701207Y-96255313D01*
X164626000Y-96244500D01*
X155549300Y-96244500D01*
X155502458Y-96246675D01*
X155502453Y-96246675D01*
X155502441Y-96246676D01*
X155479568Y-96248805D01*
X155479561Y-96248805D01*
X155433115Y-96255313D01*
X155296921Y-96301726D01*
X155234665Y-96333446D01*
X155117071Y-96416344D01*
X150691619Y-100595936D01*
X150691616Y-100595939D01*
X150650111Y-100640139D01*
X150650103Y-100640149D01*
X150631127Y-100662959D01*
X150595216Y-100711808D01*
X150579196Y-100746636D01*
X150535088Y-100842526D01*
X150535086Y-100842530D01*
X150535085Y-100842534D01*
X150515222Y-100909502D01*
X150515218Y-100909524D01*
X150494356Y-101051868D01*
X150489250Y-102931191D01*
X150485805Y-104198621D01*
X150485804Y-104198647D01*
X150485800Y-104199987D01*
X150485801Y-104199988D01*
X150480790Y-106044094D01*
X150480371Y-106198270D01*
X150476562Y-107599999D01*
X150473114Y-108868807D01*
X150469610Y-110158257D01*
X149005500Y-110158257D01*
X149005500Y-101416378D01*
X148999195Y-101336786D01*
X148993047Y-101298226D01*
X148993045Y-101298217D01*
X148974291Y-101220628D01*
X148974290Y-101220626D01*
X148910546Y-101091646D01*
X148910543Y-101091639D01*
X148875838Y-101041106D01*
X148875695Y-101040864D01*
X148870986Y-101034040D01*
X148773482Y-100928241D01*
X148773481Y-100928239D01*
X148650121Y-100854195D01*
X148650122Y-100854195D01*
X148650118Y-100854193D01*
X148585704Y-100827127D01*
X148585705Y-100827127D01*
X148585702Y-100827126D01*
X148446478Y-100790836D01*
X148442119Y-100790027D01*
X148442179Y-100789701D01*
X148420756Y-100784809D01*
X148406532Y-100779832D01*
X148406508Y-100779824D01*
X148324222Y-100758598D01*
X148283271Y-100751641D01*
X148283258Y-100751640D01*
X148198616Y-100744500D01*
X148198599Y-100744500D01*
X145801401Y-100744500D01*
X145801381Y-100744500D01*
X145716746Y-100751638D01*
X145716743Y-100751639D01*
X145675790Y-100758596D01*
X145675789Y-100758596D01*
X145593480Y-100779827D01*
X145593466Y-100779831D01*
X145579238Y-100784810D01*
X145552171Y-100790987D01*
X145513881Y-100795301D01*
X145486116Y-100795301D01*
X145447825Y-100790987D01*
X145420757Y-100784810D01*
X145406510Y-100779825D01*
X145324222Y-100758598D01*
X145283271Y-100751641D01*
X145283258Y-100751640D01*
X145198616Y-100744500D01*
X145198599Y-100744500D01*
X144299176Y-100744500D01*
X144292545Y-100744805D01*
X144252748Y-100746636D01*
X144230070Y-100748728D01*
X144230051Y-100748730D01*
X144184056Y-100755115D01*
X144047789Y-100801289D01*
X143985479Y-100832901D01*
X143867741Y-100915595D01*
X141726171Y-102931191D01*
X140769178Y-103831890D01*
X140378062Y-104199999D01*
X139692573Y-104845164D01*
X139650267Y-104890163D01*
X139650254Y-104890177D01*
X139630921Y-104913439D01*
X139630920Y-104913440D01*
X139594434Y-104963238D01*
X139594429Y-104963246D01*
X139534664Y-105094111D01*
X139514976Y-105161159D01*
X139494500Y-105303578D01*
X139494500Y-106870500D01*
X139474815Y-106937539D01*
X139422011Y-106983294D01*
X139370500Y-106994500D01*
X139346539Y-106994500D01*
X139316490Y-106995394D01*
X139301735Y-106996273D01*
X139271808Y-106998951D01*
X139132834Y-107036189D01*
X139132823Y-107036193D01*
X139090061Y-107054505D01*
X139020685Y-107062800D01*
X138957838Y-107032271D01*
X138942872Y-107016003D01*
X138935236Y-107006052D01*
X138831224Y-106870500D01*
X138788655Y-106815023D01*
X138788649Y-106815016D01*
X138599983Y-106626350D01*
X138599976Y-106626344D01*
X138388298Y-106463918D01*
X138388296Y-106463916D01*
X138388290Y-106463912D01*
X138388285Y-106463909D01*
X138388282Y-106463907D01*
X138157218Y-106330501D01*
X138157201Y-106330493D01*
X137910701Y-106228390D01*
X137652955Y-106159326D01*
X137388415Y-106124500D01*
X137388414Y-106124500D01*
X137121586Y-106124500D01*
X137121585Y-106124500D01*
X136857044Y-106159326D01*
X136599298Y-106228390D01*
X136352798Y-106330493D01*
X136352781Y-106330501D01*
X136121717Y-106463907D01*
X136121701Y-106463918D01*
X135910023Y-106626344D01*
X135910016Y-106626350D01*
X135721350Y-106815016D01*
X135566223Y-107017182D01*
X135509795Y-107058384D01*
X135440049Y-107062539D01*
X135416335Y-107054489D01*
X135372925Y-107034664D01*
X135372920Y-107034662D01*
X135372919Y-107034662D01*
X135313652Y-107017259D01*
X135305877Y-107014976D01*
X135243807Y-107006052D01*
X135163460Y-106994500D01*
X134374000Y-106994500D01*
X134373991Y-106994500D01*
X134373990Y-106994501D01*
X134266549Y-107006052D01*
X134266537Y-107006054D01*
X134215027Y-107017260D01*
X134112502Y-107051383D01*
X134112496Y-107051386D01*
X133991462Y-107129171D01*
X133991451Y-107129179D01*
X133938659Y-107174923D01*
X133844433Y-107283664D01*
X133844430Y-107283668D01*
X133784664Y-107414534D01*
X133764976Y-107481582D01*
X133751325Y-107576528D01*
X133744500Y-107624000D01*
X119378416Y-107624000D01*
X119461496Y-107601739D01*
X119667734Y-107505568D01*
X119854139Y-107375047D01*
X120015047Y-107214139D01*
X120145568Y-107027734D01*
X120241739Y-106821496D01*
X120300635Y-106601692D01*
X120320468Y-106375000D01*
X120300635Y-106148308D01*
X120241739Y-105928504D01*
X120145568Y-105722266D01*
X120015047Y-105535861D01*
X120015045Y-105535858D01*
X119854141Y-105374954D01*
X119667734Y-105244432D01*
X119667732Y-105244431D01*
X119461497Y-105148261D01*
X119461488Y-105148258D01*
X119241697Y-105089366D01*
X119241693Y-105089365D01*
X119241692Y-105089365D01*
X119241691Y-105089364D01*
X119241686Y-105089364D01*
X119015002Y-105069532D01*
X119014998Y-105069532D01*
X118788313Y-105089364D01*
X118788302Y-105089366D01*
X118568511Y-105148258D01*
X118568502Y-105148261D01*
X118362267Y-105244431D01*
X118362265Y-105244432D01*
X118175858Y-105374954D01*
X118014954Y-105535858D01*
X117884432Y-105722265D01*
X117884431Y-105722267D01*
X117788261Y-105928502D01*
X117788258Y-105928511D01*
X117729366Y-106148302D01*
X117729364Y-106148313D01*
X117709532Y-106374998D01*
X115500500Y-106374998D01*
X115500500Y-103656820D01*
X135320000Y-103656820D01*
X135320001Y-103656837D01*
X135353107Y-103908306D01*
X135418761Y-104153327D01*
X135515822Y-104387656D01*
X135515830Y-104387672D01*
X135642649Y-104607327D01*
X135642660Y-104607343D01*
X135754999Y-104753747D01*
X135755000Y-104753747D01*
X138755000Y-104753747D01*
X138867339Y-104607343D01*
X138867350Y-104607327D01*
X138994169Y-104387672D01*
X138994177Y-104387656D01*
X139091238Y-104153327D01*
X139156892Y-103908306D01*
X139189998Y-103656837D01*
X139190000Y-103656820D01*
X139190000Y-103395000D01*
X138755000Y-103395000D01*
X138755000Y-104753747D01*
X135755000Y-104753747D01*
X135755000Y-103395000D01*
X135320000Y-103395000D01*
X135320000Y-103656820D01*
X115500500Y-103656820D01*
X115500500Y-100133179D01*
X135320000Y-100133179D01*
X135320000Y-100395000D01*
X135755000Y-100395000D01*
X135755000Y-99852458D01*
X136620000Y-99852458D01*
X136620000Y-103937542D01*
X136644403Y-104060223D01*
X136692271Y-104175785D01*
X136761764Y-104279789D01*
X136850211Y-104368236D01*
X136954215Y-104437729D01*
X137069777Y-104485597D01*
X137192458Y-104510000D01*
X137317542Y-104510000D01*
X137440223Y-104485597D01*
X137555785Y-104437729D01*
X137659789Y-104368236D01*
X137748236Y-104279789D01*
X137817729Y-104175785D01*
X137865597Y-104060223D01*
X137890000Y-103937542D01*
X137890000Y-100395000D01*
X138755000Y-100395000D01*
X139190000Y-100395000D01*
X139190000Y-100133179D01*
X139189998Y-100133162D01*
X139156892Y-99881693D01*
X139091238Y-99636672D01*
X138994177Y-99402343D01*
X138994169Y-99402327D01*
X138867350Y-99182672D01*
X138867339Y-99182656D01*
X138755000Y-99036252D01*
X138755000Y-100395000D01*
X137890000Y-100395000D01*
X137890000Y-99852458D01*
X137865597Y-99729777D01*
X137817729Y-99614215D01*
X137748236Y-99510211D01*
X137659789Y-99421764D01*
X137555785Y-99352271D01*
X137440223Y-99304403D01*
X137317542Y-99280000D01*
X137192458Y-99280000D01*
X137069777Y-99304403D01*
X136954215Y-99352271D01*
X136850211Y-99421764D01*
X136761764Y-99510211D01*
X136692271Y-99614215D01*
X136644403Y-99729777D01*
X136620000Y-99852458D01*
X135755000Y-99852458D01*
X135755000Y-99036251D01*
X135642660Y-99182656D01*
X135642649Y-99182672D01*
X135515830Y-99402327D01*
X135515822Y-99402343D01*
X135418761Y-99636672D01*
X135353107Y-99881693D01*
X135320001Y-100133162D01*
X135320000Y-100133179D01*
X115500500Y-100133179D01*
X115500500Y-98454998D01*
X117709532Y-98454998D01*
X117709532Y-98455001D01*
X117729364Y-98681686D01*
X117729366Y-98681697D01*
X117788258Y-98901488D01*
X117788261Y-98901497D01*
X117884431Y-99107732D01*
X117884432Y-99107734D01*
X118014954Y-99294141D01*
X118175858Y-99455045D01*
X118175861Y-99455047D01*
X118362266Y-99585568D01*
X118568504Y-99681739D01*
X118788308Y-99740635D01*
X118950230Y-99754801D01*
X119014998Y-99760468D01*
X119015000Y-99760468D01*
X119015002Y-99760468D01*
X119071673Y-99755509D01*
X119241692Y-99740635D01*
X119461496Y-99681739D01*
X119667734Y-99585568D01*
X119854139Y-99455047D01*
X120015047Y-99294139D01*
X120145568Y-99107734D01*
X120241739Y-98901496D01*
X120300635Y-98681692D01*
X120320468Y-98455000D01*
X120300635Y-98228308D01*
X120241739Y-98008504D01*
X120145568Y-97802266D01*
X120015047Y-97615861D01*
X120015045Y-97615858D01*
X119854141Y-97454954D01*
X119667734Y-97324432D01*
X119667732Y-97324431D01*
X119461497Y-97228261D01*
X119461488Y-97228258D01*
X119241697Y-97169366D01*
X119241693Y-97169365D01*
X119241692Y-97169365D01*
X119241691Y-97169364D01*
X119241686Y-97169364D01*
X119015002Y-97149532D01*
X119014998Y-97149532D01*
X118788313Y-97169364D01*
X118788302Y-97169366D01*
X118568511Y-97228258D01*
X118568502Y-97228261D01*
X118362267Y-97324431D01*
X118362265Y-97324432D01*
X118175858Y-97454954D01*
X118014954Y-97615858D01*
X117884432Y-97802265D01*
X117884431Y-97802267D01*
X117788261Y-98008502D01*
X117788258Y-98008511D01*
X117729366Y-98228302D01*
X117729364Y-98228313D01*
X117709532Y-98454998D01*
X115500500Y-98454998D01*
X115500500Y-91250000D01*
X116344655Y-91250000D01*
X116364014Y-91570060D01*
X116364014Y-91570065D01*
X116364015Y-91570066D01*
X116421814Y-91885466D01*
X116421815Y-91885470D01*
X116421816Y-91885474D01*
X116517202Y-92191580D01*
X116517208Y-92191595D01*
X116517209Y-92191598D01*
X116536293Y-92234000D01*
X116648806Y-92483995D01*
X116648807Y-92483996D01*
X116648809Y-92484000D01*
X116814694Y-92758408D01*
X116913570Y-92884613D01*
X117012448Y-93010822D01*
X117239177Y-93237551D01*
X117239181Y-93237554D01*
X117491592Y-93435306D01*
X117766000Y-93601191D01*
X118058402Y-93732791D01*
X118058411Y-93732793D01*
X118058419Y-93732797D01*
X118297895Y-93807420D01*
X118364534Y-93828186D01*
X118679934Y-93885985D01*
X119000000Y-93905345D01*
X119320066Y-93885985D01*
X119635466Y-93828186D01*
X119808320Y-93774322D01*
X119941580Y-93732797D01*
X119941584Y-93732795D01*
X119941598Y-93732791D01*
X120036675Y-93690000D01*
X123136468Y-93690000D01*
X123156579Y-94048117D01*
X123156581Y-94048129D01*
X123216661Y-94401736D01*
X123216663Y-94401745D01*
X123315957Y-94746402D01*
X123453218Y-95077784D01*
X123453220Y-95077788D01*
X123453222Y-95077791D01*
X123626726Y-95391722D01*
X123834287Y-95684252D01*
X124073296Y-95951704D01*
X124340748Y-96190713D01*
X124633278Y-96398274D01*
X124801889Y-96491462D01*
X124947211Y-96571779D01*
X124947215Y-96571781D01*
X125045511Y-96612496D01*
X125278592Y-96709041D01*
X125623260Y-96808338D01*
X125976878Y-96868420D01*
X126335000Y-96888532D01*
X126693122Y-96868420D01*
X127046740Y-96808338D01*
X127391408Y-96709041D01*
X127722791Y-96571778D01*
X128036722Y-96398274D01*
X128329252Y-96190713D01*
X128596704Y-95951704D01*
X128835713Y-95684252D01*
X129043274Y-95391722D01*
X129216778Y-95077791D01*
X129354041Y-94746408D01*
X129453338Y-94401740D01*
X129513420Y-94048122D01*
X129533532Y-93690000D01*
X169666468Y-93690000D01*
X169686579Y-94048117D01*
X169686581Y-94048129D01*
X169746661Y-94401736D01*
X169746663Y-94401745D01*
X169845957Y-94746402D01*
X169983218Y-95077784D01*
X169983220Y-95077788D01*
X169983222Y-95077791D01*
X170156726Y-95391722D01*
X170364287Y-95684252D01*
X170603296Y-95951704D01*
X170870748Y-96190713D01*
X171163278Y-96398274D01*
X171331889Y-96491462D01*
X171477211Y-96571779D01*
X171477215Y-96571781D01*
X171575511Y-96612496D01*
X171808592Y-96709041D01*
X172153260Y-96808338D01*
X172506878Y-96868420D01*
X172865000Y-96888532D01*
X173223122Y-96868420D01*
X173576740Y-96808338D01*
X173921408Y-96709041D01*
X174252791Y-96571778D01*
X174566722Y-96398274D01*
X174859252Y-96190713D01*
X175126704Y-95951704D01*
X175365713Y-95684252D01*
X175573274Y-95391722D01*
X175746778Y-95077791D01*
X175884041Y-94746408D01*
X175983338Y-94401740D01*
X176043420Y-94048122D01*
X176063532Y-93690000D01*
X176043420Y-93331878D01*
X175983338Y-92978260D01*
X175884041Y-92633592D01*
X175791334Y-92409777D01*
X175746781Y-92302215D01*
X175746779Y-92302211D01*
X175685645Y-92191598D01*
X175573274Y-91988278D01*
X175365713Y-91695748D01*
X175126704Y-91428296D01*
X174859252Y-91189287D01*
X174592477Y-91000000D01*
X177594655Y-91000000D01*
X177614014Y-91320060D01*
X177614014Y-91320065D01*
X177614015Y-91320066D01*
X177671814Y-91635466D01*
X177671815Y-91635470D01*
X177671816Y-91635474D01*
X177767202Y-91941580D01*
X177767208Y-91941595D01*
X177898806Y-92233995D01*
X177898807Y-92233996D01*
X177898809Y-92234000D01*
X178033764Y-92457244D01*
X178064692Y-92508405D01*
X178262448Y-92760822D01*
X178489177Y-92987551D01*
X178489181Y-92987554D01*
X178741592Y-93185306D01*
X179016000Y-93351191D01*
X179308402Y-93482791D01*
X179308411Y-93482793D01*
X179308419Y-93482797D01*
X179547895Y-93557420D01*
X179614534Y-93578186D01*
X179929934Y-93635985D01*
X180250000Y-93655345D01*
X180570066Y-93635985D01*
X180885466Y-93578186D01*
X181058320Y-93524322D01*
X181191580Y-93482797D01*
X181191584Y-93482795D01*
X181191598Y-93482791D01*
X181484000Y-93351191D01*
X181758408Y-93185306D01*
X182010819Y-92987554D01*
X182237554Y-92760819D01*
X182435306Y-92508408D01*
X182601191Y-92234000D01*
X182732791Y-91941598D01*
X182828186Y-91635466D01*
X182885985Y-91320066D01*
X182905345Y-91000000D01*
X182885985Y-90679934D01*
X182828186Y-90364534D01*
X182807420Y-90297895D01*
X182732797Y-90058419D01*
X182732793Y-90058411D01*
X182732791Y-90058402D01*
X182601191Y-89766000D01*
X182435306Y-89491592D01*
X182237554Y-89239181D01*
X182237551Y-89239177D01*
X182010822Y-89012448D01*
X181884613Y-88913570D01*
X181758408Y-88814694D01*
X181484000Y-88648809D01*
X181483996Y-88648807D01*
X181483995Y-88648806D01*
X181284694Y-88559108D01*
X181191598Y-88517209D01*
X181191595Y-88517208D01*
X181191580Y-88517202D01*
X180885474Y-88421816D01*
X180885470Y-88421815D01*
X180885466Y-88421814D01*
X180570066Y-88364015D01*
X180570065Y-88364014D01*
X180570060Y-88364014D01*
X180250000Y-88344655D01*
X179929939Y-88364014D01*
X179929934Y-88364015D01*
X179614534Y-88421814D01*
X179614531Y-88421814D01*
X179614525Y-88421816D01*
X179308419Y-88517202D01*
X179308404Y-88517208D01*
X179016004Y-88648806D01*
X179016002Y-88648808D01*
X178741594Y-88814692D01*
X178489177Y-89012448D01*
X178262448Y-89239177D01*
X178064692Y-89491594D01*
X177898808Y-89766002D01*
X177898806Y-89766004D01*
X177767208Y-90058404D01*
X177767202Y-90058419D01*
X177671816Y-90364525D01*
X177671814Y-90364531D01*
X177671814Y-90364534D01*
X177648553Y-90491468D01*
X177614014Y-90679939D01*
X177594655Y-91000000D01*
X174592477Y-91000000D01*
X174566722Y-90981726D01*
X174473012Y-90929934D01*
X174252788Y-90808220D01*
X174252784Y-90808218D01*
X174022809Y-90712960D01*
X173921408Y-90670959D01*
X173921404Y-90670957D01*
X173921402Y-90670957D01*
X173576745Y-90571663D01*
X173576736Y-90571661D01*
X173223129Y-90511581D01*
X173223117Y-90511579D01*
X172865000Y-90491468D01*
X172506882Y-90511579D01*
X172506870Y-90511581D01*
X172153263Y-90571661D01*
X172153254Y-90571663D01*
X171808597Y-90670957D01*
X171477215Y-90808218D01*
X171477211Y-90808220D01*
X171163277Y-90981726D01*
X170870746Y-91189288D01*
X170603296Y-91428296D01*
X170364288Y-91695746D01*
X170156726Y-91988277D01*
X169983220Y-92302211D01*
X169983218Y-92302215D01*
X169845957Y-92633597D01*
X169746663Y-92978254D01*
X169746661Y-92978263D01*
X169686581Y-93331870D01*
X169686579Y-93331882D01*
X169666468Y-93690000D01*
X129533532Y-93690000D01*
X129513420Y-93331878D01*
X129453338Y-92978260D01*
X129354041Y-92633592D01*
X129261334Y-92409777D01*
X129216781Y-92302215D01*
X129216779Y-92302211D01*
X129155645Y-92191598D01*
X129043274Y-91988278D01*
X128835713Y-91695748D01*
X128596704Y-91428296D01*
X128329252Y-91189287D01*
X128036722Y-90981726D01*
X127943012Y-90929934D01*
X127722788Y-90808220D01*
X127722784Y-90808218D01*
X127492809Y-90712960D01*
X127391408Y-90670959D01*
X127391404Y-90670957D01*
X127391402Y-90670957D01*
X127046745Y-90571663D01*
X127046736Y-90571661D01*
X126693129Y-90511581D01*
X126693117Y-90511579D01*
X126335000Y-90491468D01*
X125976882Y-90511579D01*
X125976870Y-90511581D01*
X125623263Y-90571661D01*
X125623254Y-90571663D01*
X125278597Y-90670957D01*
X124947215Y-90808218D01*
X124947211Y-90808220D01*
X124633277Y-90981726D01*
X124340746Y-91189288D01*
X124073296Y-91428296D01*
X123834288Y-91695746D01*
X123626726Y-91988277D01*
X123453220Y-92302211D01*
X123453218Y-92302215D01*
X123315957Y-92633597D01*
X123216663Y-92978254D01*
X123216661Y-92978263D01*
X123156581Y-93331870D01*
X123156579Y-93331882D01*
X123136468Y-93690000D01*
X120036675Y-93690000D01*
X120234000Y-93601191D01*
X120508408Y-93435306D01*
X120760819Y-93237554D01*
X120987554Y-93010819D01*
X121185306Y-92758408D01*
X121351191Y-92484000D01*
X121482791Y-92191598D01*
X121578186Y-91885466D01*
X121635985Y-91570066D01*
X121655345Y-91250000D01*
X121635985Y-90929934D01*
X121578186Y-90614534D01*
X121557420Y-90547895D01*
X121482797Y-90308419D01*
X121482793Y-90308411D01*
X121482791Y-90308402D01*
X121351191Y-90016000D01*
X121185306Y-89741592D01*
X121025314Y-89537378D01*
X120987551Y-89489177D01*
X120760822Y-89262448D01*
X120508405Y-89064692D01*
X120421979Y-89012446D01*
X120234000Y-88898809D01*
X120233996Y-88898807D01*
X120233995Y-88898806D01*
X120034694Y-88809108D01*
X119941598Y-88767209D01*
X119941595Y-88767208D01*
X119941580Y-88767202D01*
X119635474Y-88671816D01*
X119635470Y-88671815D01*
X119635466Y-88671814D01*
X119320066Y-88614015D01*
X119320065Y-88614014D01*
X119320060Y-88614014D01*
X119000000Y-88594655D01*
X118679939Y-88614014D01*
X118679934Y-88614015D01*
X118364534Y-88671814D01*
X118364531Y-88671814D01*
X118364525Y-88671816D01*
X118058419Y-88767202D01*
X118058404Y-88767208D01*
X117766004Y-88898806D01*
X117766002Y-88898808D01*
X117491594Y-89064692D01*
X117239177Y-89262448D01*
X117012448Y-89489177D01*
X116814692Y-89741594D01*
X116648808Y-90016002D01*
X116648806Y-90016004D01*
X116517208Y-90308404D01*
X116517202Y-90308419D01*
X116421816Y-90614525D01*
X116421814Y-90614531D01*
X116421814Y-90614534D01*
X116375153Y-90869153D01*
X116364014Y-90929939D01*
X116344655Y-91250000D01*
X115500500Y-91250000D01*
X115500500Y-91003051D01*
X115500649Y-90996967D01*
X115509921Y-90808222D01*
X115517052Y-90663068D01*
X115518245Y-90650962D01*
X115538920Y-90511580D01*
X115566849Y-90323296D01*
X115569218Y-90311385D01*
X115649710Y-89990043D01*
X115653240Y-89978411D01*
X115764835Y-89666525D01*
X115769476Y-89655318D01*
X115911124Y-89355828D01*
X115916840Y-89345136D01*
X116087145Y-89060998D01*
X116093888Y-89050905D01*
X116291232Y-88784818D01*
X116298935Y-88775433D01*
X116521405Y-88529975D01*
X116529975Y-88521405D01*
X116775433Y-88298935D01*
X116784818Y-88291232D01*
X117050905Y-88093888D01*
X117060998Y-88087145D01*
X117345136Y-87916840D01*
X117355828Y-87911124D01*
X117655318Y-87769476D01*
X117666525Y-87764835D01*
X117978412Y-87653239D01*
X117990043Y-87649710D01*
X118311385Y-87569218D01*
X118323296Y-87566849D01*
X118650962Y-87518244D01*
X118663068Y-87517052D01*
X118996967Y-87500648D01*
X119003051Y-87500500D01*
X119065892Y-87500500D01*
X180184108Y-87500500D01*
X180246949Y-87500500D01*
X180253032Y-87500648D01*
G37*
%TD.AperFunction*%
%TD*%
%TA.AperFunction,Conductor*%
%TO.N,OUT+*%
G36*
X164693039Y-96769685D02*
G01*
X164738794Y-96822489D01*
X164750000Y-96874000D01*
X164750000Y-104126000D01*
X164730315Y-104193039D01*
X164677511Y-104238794D01*
X164626000Y-104250000D01*
X164020463Y-104250000D01*
X163953424Y-104230315D01*
X163907669Y-104177511D01*
X163897725Y-104108353D01*
X163900688Y-104093907D01*
X163945179Y-103927859D01*
X163979999Y-103663388D01*
X163980000Y-103663374D01*
X163980000Y-102145000D01*
X162580000Y-102145000D01*
X162580000Y-101645000D01*
X163980000Y-101645000D01*
X163980000Y-100126625D01*
X163979999Y-100126611D01*
X163945179Y-99862140D01*
X163876136Y-99604464D01*
X163774053Y-99358014D01*
X163774048Y-99358003D01*
X163640675Y-99126996D01*
X163640664Y-99126980D01*
X163478278Y-98915354D01*
X163478272Y-98915347D01*
X163289652Y-98726727D01*
X163289645Y-98726721D01*
X163078019Y-98564335D01*
X163078003Y-98564324D01*
X162846996Y-98430951D01*
X162846985Y-98430946D01*
X162600535Y-98328863D01*
X162342859Y-98259820D01*
X162195000Y-98240352D01*
X162195000Y-99331234D01*
X162130223Y-99304403D01*
X162007542Y-99280000D01*
X161882458Y-99280000D01*
X161759777Y-99304403D01*
X161695000Y-99331234D01*
X161695000Y-98240352D01*
X161694999Y-98240352D01*
X161547140Y-98259820D01*
X161289464Y-98328863D01*
X161043014Y-98430946D01*
X161043003Y-98430951D01*
X160811996Y-98564324D01*
X160811980Y-98564335D01*
X160600354Y-98726721D01*
X160600347Y-98726727D01*
X160411727Y-98915347D01*
X160411721Y-98915354D01*
X160249335Y-99126980D01*
X160249324Y-99126996D01*
X160115951Y-99358003D01*
X160115946Y-99358014D01*
X160013863Y-99604464D01*
X159944820Y-99862140D01*
X159910000Y-100126611D01*
X159910000Y-101645000D01*
X161310000Y-101645000D01*
X161310000Y-102145000D01*
X159910000Y-102145000D01*
X159910000Y-103663388D01*
X159944820Y-103927859D01*
X159989312Y-104093907D01*
X159987649Y-104163756D01*
X159948486Y-104221619D01*
X159884258Y-104249123D01*
X159869537Y-104250000D01*
X159750000Y-104250000D01*
X159750000Y-105946841D01*
X159730315Y-106013880D01*
X159711499Y-106036652D01*
X155285913Y-110249779D01*
X155223785Y-110281746D01*
X155200414Y-110283968D01*
X151099108Y-110283968D01*
X151032069Y-110264283D01*
X150986314Y-110211479D01*
X150975108Y-110159631D01*
X150986288Y-106045468D01*
X150991303Y-104199995D01*
X152864981Y-104199995D01*
X152864981Y-104200004D01*
X152885028Y-104467524D01*
X152885029Y-104467529D01*
X152944725Y-104729077D01*
X152944731Y-104729096D01*
X153042744Y-104978830D01*
X153176885Y-105211169D01*
X153229411Y-105277034D01*
X153876732Y-104629713D01*
X153968692Y-104767342D01*
X154092658Y-104891308D01*
X154230285Y-104983266D01*
X153582045Y-105631505D01*
X153762495Y-105754534D01*
X153832569Y-105788280D01*
X153884428Y-105835103D01*
X153902741Y-105902530D01*
X153881693Y-105969154D01*
X153832569Y-106011720D01*
X153762494Y-106045466D01*
X153762490Y-106045468D01*
X153582045Y-106168493D01*
X154230285Y-106816732D01*
X154092658Y-106908692D01*
X153968692Y-107032658D01*
X153876732Y-107170285D01*
X153229411Y-106522964D01*
X153176886Y-106588829D01*
X153042744Y-106821169D01*
X152944731Y-107070903D01*
X152944725Y-107070922D01*
X152885029Y-107332470D01*
X152885028Y-107332475D01*
X152864981Y-107599995D01*
X152864981Y-107600004D01*
X152885028Y-107867524D01*
X152885029Y-107867529D01*
X152944725Y-108129077D01*
X152944731Y-108129096D01*
X153042744Y-108378830D01*
X153176885Y-108611169D01*
X153229411Y-108677034D01*
X153876732Y-108029713D01*
X153968692Y-108167342D01*
X154092658Y-108291308D01*
X154230285Y-108383266D01*
X153582045Y-109031505D01*
X153762497Y-109154535D01*
X153762499Y-109154536D01*
X154004203Y-109270934D01*
X154004201Y-109270934D01*
X154260562Y-109350011D01*
X154260568Y-109350012D01*
X154525852Y-109389999D01*
X154525859Y-109390000D01*
X154794141Y-109390000D01*
X154794147Y-109389999D01*
X155059431Y-109350012D01*
X155059437Y-109350011D01*
X155315797Y-109270934D01*
X155557507Y-109154533D01*
X155737953Y-109031505D01*
X155089714Y-108383267D01*
X155227342Y-108291308D01*
X155351308Y-108167342D01*
X155443266Y-108029714D01*
X156090587Y-108677035D01*
X156090588Y-108677035D01*
X156143108Y-108611177D01*
X156143114Y-108611168D01*
X156277255Y-108378830D01*
X156375268Y-108129096D01*
X156375274Y-108129077D01*
X156434970Y-107867529D01*
X156434971Y-107867524D01*
X156455019Y-107600004D01*
X156455019Y-107599995D01*
X156434971Y-107332475D01*
X156434970Y-107332470D01*
X156375274Y-107070922D01*
X156375268Y-107070903D01*
X156277255Y-106821169D01*
X156143111Y-106588826D01*
X156090588Y-106522963D01*
X155443266Y-107170284D01*
X155351308Y-107032658D01*
X155227342Y-106908692D01*
X155089714Y-106816732D01*
X155737953Y-106168493D01*
X155557512Y-106045470D01*
X155557502Y-106045463D01*
X155487432Y-106011720D01*
X155435572Y-105964898D01*
X155417259Y-105897471D01*
X155438307Y-105830847D01*
X155487432Y-105788280D01*
X155557507Y-105754533D01*
X155737953Y-105631505D01*
X155089714Y-104983267D01*
X155227342Y-104891308D01*
X155351308Y-104767342D01*
X155443266Y-104629714D01*
X156090587Y-105277035D01*
X156090588Y-105277035D01*
X156143108Y-105211177D01*
X156143114Y-105211168D01*
X156277255Y-104978830D01*
X156375268Y-104729096D01*
X156375274Y-104729077D01*
X156434970Y-104467529D01*
X156434971Y-104467524D01*
X156455019Y-104200004D01*
X156455019Y-104199995D01*
X156434971Y-103932475D01*
X156434970Y-103932470D01*
X156375274Y-103670922D01*
X156375268Y-103670903D01*
X156277255Y-103421169D01*
X156143111Y-103188826D01*
X156090588Y-103122963D01*
X155443266Y-103770284D01*
X155351308Y-103632658D01*
X155227342Y-103508692D01*
X155089714Y-103416732D01*
X155737953Y-102768493D01*
X155557512Y-102645470D01*
X155557502Y-102645463D01*
X155315796Y-102529065D01*
X155315798Y-102529065D01*
X155059437Y-102449988D01*
X155059431Y-102449987D01*
X154794147Y-102410000D01*
X154525852Y-102410000D01*
X154260568Y-102449987D01*
X154260562Y-102449988D01*
X154004202Y-102529065D01*
X153762499Y-102645463D01*
X153762490Y-102645468D01*
X153582045Y-102768493D01*
X154230285Y-103416732D01*
X154092658Y-103508692D01*
X153968692Y-103632658D01*
X153876732Y-103770285D01*
X153229411Y-103122964D01*
X153176886Y-103188829D01*
X153042744Y-103421169D01*
X152944731Y-103670903D01*
X152944725Y-103670922D01*
X152885029Y-103932470D01*
X152885028Y-103932475D01*
X152864981Y-104199995D01*
X150991303Y-104199995D01*
X150999855Y-101053248D01*
X151019722Y-100986263D01*
X151038710Y-100963439D01*
X155464159Y-96783850D01*
X155526413Y-96752130D01*
X155549300Y-96750000D01*
X164626000Y-96750000D01*
X164693039Y-96769685D01*
G37*
%TD.AperFunction*%
%TD*%
M02*
