M48
; DRILL file {KiCad 8.0.5} date 2025-05-09T00:03:25-0400
; FORMAT={-:-/ absolute / inch / decimal}
; #@! TF.CreationDate,2025-05-09T00:03:25-04:00
; #@! TF.GenerationSoftware,Kicad,Pcbnew,8.0.5
; #@! TF.FileFunction,Plated,1,2,PTH
FMAT,2
INCH
; #@! TA.AperFunction,Plated,PTH,ViaDrill
T1C0.0118
; #@! TA.AperFunction,Plated,PTH,ComponentDrill
T2C0.0295
; #@! TA.AperFunction,Plated,PTH,ComponentDrill
T3C0.0472
; #@! TA.AperFunction,Plated,PTH,ComponentDrill
T4C0.0500
; #@! TA.AperFunction,Plated,PTH,ComponentDrill
T5C0.0701
; #@! TA.AperFunction,Plated,PTH,ViaDrill
T6C0.1181
; #@! TA.AperFunction,Plated,PTH,ComponentDrill
T7C0.1799
%
G90
G05
T1
X4.6654Y-3.7205
X4.6654Y-3.9567
X4.6654Y-4.0748
X4.6654Y-4.311
X4.6654Y-4.5472
X4.6654Y-4.6654
X4.6654Y-4.7835
X4.6654Y-4.9016
X4.6654Y-5.0197
X4.6654Y-5.1378
X4.6654Y-5.2559
X4.6654Y-5.374
X4.7835Y-3.7205
X4.7835Y-3.8386
X4.7835Y-3.9567
X4.7835Y-4.0748
X4.7835Y-4.1929
X4.7835Y-4.311
X4.7835Y-4.4291
X4.7835Y-4.5472
X4.7835Y-4.6654
X4.7835Y-4.7835
X4.7835Y-5.1378
X4.7835Y-5.2559
X4.7835Y-5.374
X4.813Y-5.0591
X4.9016Y-3.4843
X4.9016Y-3.8386
X4.9016Y-3.9567
X4.9016Y-4.0748
X4.9016Y-4.1929
X4.9016Y-4.311
X4.9016Y-4.4291
X4.9016Y-4.7835
X4.9016Y-5.2559
X4.9016Y-5.374
X4.9016Y-5.4921
X4.9016Y-5.6102
X5.0197Y-3.4843
X5.0197Y-3.8386
X5.0197Y-3.9567
X5.0197Y-4.0748
X5.0197Y-4.1929
X5.0197Y-4.311
X5.0197Y-4.4291
X5.0197Y-4.7835
X5.0197Y-5.1378
X5.0197Y-5.2559
X5.0197Y-5.374
X5.0197Y-5.6102
X5.122Y-5.4035
X5.1378Y-3.4843
X5.1378Y-3.6024
X5.1378Y-3.7205
X5.1378Y-3.8386
X5.1378Y-3.9567
X5.1378Y-4.0748
X5.1378Y-4.1929
X5.1378Y-4.311
X5.1378Y-4.4291
X5.1378Y-5.6594
X5.2362Y-4.7539
X5.2526Y-5.561
X5.2559Y-3.4843
X5.2559Y-3.6024
X5.2559Y-3.7205
X5.2559Y-3.8386
X5.2559Y-3.9567
X5.2559Y-4.0748
X5.2559Y-4.1929
X5.2559Y-5.6594
X5.3051Y-4.6949
X5.3642Y-4.6358
X5.3642Y-4.7539
X5.3642Y-5.6594
X5.374Y-3.4843
X5.374Y-3.6024
X5.374Y-3.7205
X5.374Y-3.8386
X5.4134Y-4.6949
X5.4626Y-4.6358
X5.4626Y-4.7539
X5.4724Y-5.6594
X5.4921Y-3.4843
X5.4921Y-3.6024
X5.4921Y-3.7205
X5.4921Y-3.8386
X5.4921Y-3.9567
X5.5118Y-4.6949
X5.561Y-4.6358
X5.5807Y-5.6594
X5.6102Y-3.4843
X5.6102Y-3.6024
X5.6102Y-3.7205
X5.6102Y-3.8386
X5.6102Y-3.9567
X5.6102Y-5.374
X5.6102Y-5.4921
X5.6496Y-5.4232
X5.6496Y-5.5217
X5.689Y-4.5669
X5.689Y-5.374
X5.689Y-5.4724
X5.6988Y-5.6594
X5.7283Y-3.4843
X5.7283Y-3.6024
X5.7283Y-3.7205
X5.7283Y-3.8386
X5.7283Y-3.9567
X5.7555Y-5.561
X5.8071Y-4.4587
X5.8169Y-5.6594
X5.8465Y-3.4843
X5.8465Y-3.6024
X5.8465Y-3.7205
X5.8465Y-3.8386
X5.8465Y-3.9567
X5.9252Y-5.6594
X5.9646Y-3.4843
X5.9646Y-3.6024
X5.9646Y-3.7205
X6.0335Y-5.6594
X6.0827Y-3.4843
X6.0827Y-3.6024
X6.0827Y-3.7205
X6.1122Y-5.374
X6.1122Y-5.4823
X6.1417Y-5.6594
X6.1516Y-5.4232
X6.1516Y-5.5217
X6.2008Y-3.4843
X6.2008Y-3.6024
X6.2008Y-3.7205
X6.2008Y-5.374
X6.2008Y-5.4921
X6.2476Y-5.561
X6.2598Y-5.6594
X6.3189Y-3.4843
X6.3189Y-3.6024
X6.3189Y-3.7205
X6.378Y-5.6594
X6.437Y-3.4843
X6.437Y-3.6024
X6.437Y-3.7205
X6.4862Y-5.6594
X6.5551Y-3.4843
X6.5551Y-3.6024
X6.5551Y-3.7205
X6.5551Y-3.8386
X6.5551Y-3.9567
X6.5551Y-4.1929
X6.5945Y-5.6594
X6.6634Y-4.3209
X6.6732Y-3.4843
X6.6732Y-3.8386
X6.6732Y-3.9567
X6.6732Y-4.0748
X6.6929Y-4.4291
X6.7913Y-3.4843
X6.7913Y-3.8386
X6.7913Y-3.9567
X6.7913Y-4.0748
X6.7913Y-4.1929
X6.7913Y-4.4291
X6.7913Y-4.7835
X6.7913Y-4.9016
X6.7913Y-5.6102
X6.9094Y-3.4843
X6.9094Y-3.8386
X6.9094Y-3.9567
X6.9094Y-4.0748
X6.9094Y-4.1929
X6.9094Y-4.311
X6.9094Y-4.7835
X6.9094Y-4.9016
X6.9094Y-5.0197
X6.9094Y-5.2559
X6.9094Y-5.374
X6.9094Y-5.4921
X6.9094Y-5.6102
X7.0276Y-3.7205
X7.0276Y-3.8386
X7.0276Y-3.9567
X7.0276Y-4.0748
X7.0276Y-4.1929
X7.0276Y-4.311
X7.0276Y-4.4291
X7.0276Y-5.2559
X7.0276Y-5.374
X7.1457Y-3.7205
X7.1457Y-3.9567
X7.1457Y-4.0748
X7.1457Y-4.311
X7.1457Y-4.5472
X7.1457Y-4.6654
X7.1457Y-4.7835
X7.1457Y-4.9016
X7.1457Y-5.0197
X7.1457Y-5.1378
X7.1457Y-5.2559
X7.1457Y-5.374
T2
X6.8209Y-4.9803
X6.8209Y-5.0591
X6.8209Y-5.1378
X6.8209Y-5.2165
X6.8209Y-5.2953
T3
X4.6856Y-3.8762
X4.6856Y-4.188
X4.6856Y-4.4581
X7.0939Y-3.8762
X7.0939Y-4.1463
X7.0939Y-4.4581
T5
X5.6984Y-4.1024
X5.6984Y-4.2362
X6.089Y-4.1024
X6.089Y-4.2362
T6
X4.685Y-3.5925
X4.685Y-5.561
X7.0866Y-5.561
X7.0965Y-3.5827
T7
X4.9738Y-3.6886
X4.9738Y-4.6457
X6.8057Y-3.6886
X6.8057Y-4.6457
T4
G00X5.4037Y-4.0896
M15
G01X5.4037Y-3.9337
M16
G05
G00X5.4037Y-4.4006
M15
G01X5.4037Y-4.2447
M16
G05
G00X6.3758Y-3.9337
M15
G01X6.3758Y-4.0896
M16
G05
G00X6.3758Y-4.2447
M15
G01X6.3758Y-4.4006
M16
G05
M30
