%TF.GenerationSoftware,KiCad,Pcbnew,8.0.5*%
%TF.CreationDate,2025-05-09T00:03:27-04:00*%
%TF.ProjectId,precharge-electrium-f24,70726563-6861-4726-9765-2d656c656374,rev?*%
%TF.SameCoordinates,Original*%
%TF.FileFunction,Drillmap*%
%TF.FilePolarity,Positive*%
%FSLAX45Y45*%
G04 Gerber Fmt 4.5, Leading zero omitted, Abs format (unit mm)*
G04 Created by KiCad (PCBNEW 8.0.5) date 2025-05-09 00:03:27*
%MOMM*%
%LPD*%
G01*
G04 APERTURE LIST*
%ADD10C,0.100000*%
%ADD11C,0.200000*%
%ADD12C,0.120000*%
%ADD13C,0.127000*%
%ADD14C,0.178000*%
%ADD15C,0.300000*%
%ADD16C,0.457000*%
G04 APERTURE END LIST*
D10*
X11500000Y-9100000D02*
G75*
G02*
X11900000Y-8700000I400000J0D01*
G01*
X18025000Y-8700000D02*
G75*
G02*
X18425000Y-9100000I0J-400000D01*
G01*
X18425000Y-14125000D02*
G75*
G02*
X18025000Y-14525000I-400000J0D01*
G01*
X18425000Y-9100000D02*
X18425000Y-14125000D01*
X11900000Y-14525000D02*
G75*
G02*
X11500000Y-14125000I0J400000D01*
G01*
X18025000Y-14525000D02*
X11900000Y-14525000D01*
X11900000Y-8700000D02*
X18025000Y-8700000D01*
X11500000Y-14125000D02*
X11500000Y-9100000D01*
D11*
D10*
X11835000Y-9435000D02*
X11865000Y-9465000D01*
X11865000Y-9435000D02*
X11835000Y-9465000D01*
X11835000Y-10035000D02*
X11865000Y-10065000D01*
X11865000Y-10035000D02*
X11835000Y-10065000D01*
X11835000Y-10335000D02*
X11865000Y-10365000D01*
X11865000Y-10335000D02*
X11835000Y-10365000D01*
X11835000Y-10935000D02*
X11865000Y-10965000D01*
X11865000Y-10935000D02*
X11835000Y-10965000D01*
X11835000Y-11535000D02*
X11865000Y-11565000D01*
X11865000Y-11535000D02*
X11835000Y-11565000D01*
X11835000Y-11835000D02*
X11865000Y-11865000D01*
X11865000Y-11835000D02*
X11835000Y-11865000D01*
X11835000Y-12135000D02*
X11865000Y-12165000D01*
X11865000Y-12135000D02*
X11835000Y-12165000D01*
X11835000Y-12435000D02*
X11865000Y-12465000D01*
X11865000Y-12435000D02*
X11835000Y-12465000D01*
X11835000Y-12735000D02*
X11865000Y-12765000D01*
X11865000Y-12735000D02*
X11835000Y-12765000D01*
X11835000Y-13035000D02*
X11865000Y-13065000D01*
X11865000Y-13035000D02*
X11835000Y-13065000D01*
X11835000Y-13335000D02*
X11865000Y-13365000D01*
X11865000Y-13335000D02*
X11835000Y-13365000D01*
X11835000Y-13635000D02*
X11865000Y-13665000D01*
X11865000Y-13635000D02*
X11835000Y-13665000D01*
X12135000Y-9435000D02*
X12165000Y-9465000D01*
X12165000Y-9435000D02*
X12135000Y-9465000D01*
X12135000Y-9735000D02*
X12165000Y-9765000D01*
X12165000Y-9735000D02*
X12135000Y-9765000D01*
X12135000Y-10035000D02*
X12165000Y-10065000D01*
X12165000Y-10035000D02*
X12135000Y-10065000D01*
X12135000Y-10335000D02*
X12165000Y-10365000D01*
X12165000Y-10335000D02*
X12135000Y-10365000D01*
X12135000Y-10635000D02*
X12165000Y-10665000D01*
X12165000Y-10635000D02*
X12135000Y-10665000D01*
X12135000Y-10935000D02*
X12165000Y-10965000D01*
X12165000Y-10935000D02*
X12135000Y-10965000D01*
X12135000Y-11235000D02*
X12165000Y-11265000D01*
X12165000Y-11235000D02*
X12135000Y-11265000D01*
X12135000Y-11535000D02*
X12165000Y-11565000D01*
X12165000Y-11535000D02*
X12135000Y-11565000D01*
X12135000Y-11835000D02*
X12165000Y-11865000D01*
X12165000Y-11835000D02*
X12135000Y-11865000D01*
X12135000Y-12135000D02*
X12165000Y-12165000D01*
X12165000Y-12135000D02*
X12135000Y-12165000D01*
X12135000Y-13035000D02*
X12165000Y-13065000D01*
X12165000Y-13035000D02*
X12135000Y-13065000D01*
X12135000Y-13335000D02*
X12165000Y-13365000D01*
X12165000Y-13335000D02*
X12135000Y-13365000D01*
X12135000Y-13635000D02*
X12165000Y-13665000D01*
X12165000Y-13635000D02*
X12135000Y-13665000D01*
X12210000Y-12835000D02*
X12240000Y-12865000D01*
X12240000Y-12835000D02*
X12210000Y-12865000D01*
X12435000Y-8835000D02*
X12465000Y-8865000D01*
X12465000Y-8835000D02*
X12435000Y-8865000D01*
X12435000Y-9735000D02*
X12465000Y-9765000D01*
X12465000Y-9735000D02*
X12435000Y-9765000D01*
X12435000Y-10035000D02*
X12465000Y-10065000D01*
X12465000Y-10035000D02*
X12435000Y-10065000D01*
X12435000Y-10335000D02*
X12465000Y-10365000D01*
X12465000Y-10335000D02*
X12435000Y-10365000D01*
X12435000Y-10635000D02*
X12465000Y-10665000D01*
X12465000Y-10635000D02*
X12435000Y-10665000D01*
X12435000Y-10935000D02*
X12465000Y-10965000D01*
X12465000Y-10935000D02*
X12435000Y-10965000D01*
X12435000Y-11235000D02*
X12465000Y-11265000D01*
X12465000Y-11235000D02*
X12435000Y-11265000D01*
X12435000Y-12135000D02*
X12465000Y-12165000D01*
X12465000Y-12135000D02*
X12435000Y-12165000D01*
X12435000Y-13335000D02*
X12465000Y-13365000D01*
X12465000Y-13335000D02*
X12435000Y-13365000D01*
X12435000Y-13635000D02*
X12465000Y-13665000D01*
X12465000Y-13635000D02*
X12435000Y-13665000D01*
X12435000Y-13935000D02*
X12465000Y-13965000D01*
X12465000Y-13935000D02*
X12435000Y-13965000D01*
X12435000Y-14235000D02*
X12465000Y-14265000D01*
X12465000Y-14235000D02*
X12435000Y-14265000D01*
X12735000Y-8835000D02*
X12765000Y-8865000D01*
X12765000Y-8835000D02*
X12735000Y-8865000D01*
X12735000Y-9735000D02*
X12765000Y-9765000D01*
X12765000Y-9735000D02*
X12735000Y-9765000D01*
X12735000Y-10035000D02*
X12765000Y-10065000D01*
X12765000Y-10035000D02*
X12735000Y-10065000D01*
X12735000Y-10335000D02*
X12765000Y-10365000D01*
X12765000Y-10335000D02*
X12735000Y-10365000D01*
X12735000Y-10635000D02*
X12765000Y-10665000D01*
X12765000Y-10635000D02*
X12735000Y-10665000D01*
X12735000Y-10935000D02*
X12765000Y-10965000D01*
X12765000Y-10935000D02*
X12735000Y-10965000D01*
X12735000Y-11235000D02*
X12765000Y-11265000D01*
X12765000Y-11235000D02*
X12735000Y-11265000D01*
X12735000Y-12135000D02*
X12765000Y-12165000D01*
X12765000Y-12135000D02*
X12735000Y-12165000D01*
X12735000Y-13035000D02*
X12765000Y-13065000D01*
X12765000Y-13035000D02*
X12735000Y-13065000D01*
X12735000Y-13335000D02*
X12765000Y-13365000D01*
X12765000Y-13335000D02*
X12735000Y-13365000D01*
X12735000Y-13635000D02*
X12765000Y-13665000D01*
X12765000Y-13635000D02*
X12735000Y-13665000D01*
X12735000Y-14235000D02*
X12765000Y-14265000D01*
X12765000Y-14235000D02*
X12735000Y-14265000D01*
X12995000Y-13710000D02*
X13025000Y-13740000D01*
X13025000Y-13710000D02*
X12995000Y-13740000D01*
X13035000Y-8835000D02*
X13065000Y-8865000D01*
X13065000Y-8835000D02*
X13035000Y-8865000D01*
X13035000Y-9135000D02*
X13065000Y-9165000D01*
X13065000Y-9135000D02*
X13035000Y-9165000D01*
X13035000Y-9435000D02*
X13065000Y-9465000D01*
X13065000Y-9435000D02*
X13035000Y-9465000D01*
X13035000Y-9735000D02*
X13065000Y-9765000D01*
X13065000Y-9735000D02*
X13035000Y-9765000D01*
X13035000Y-10035000D02*
X13065000Y-10065000D01*
X13065000Y-10035000D02*
X13035000Y-10065000D01*
X13035000Y-10335000D02*
X13065000Y-10365000D01*
X13065000Y-10335000D02*
X13035000Y-10365000D01*
X13035000Y-10635000D02*
X13065000Y-10665000D01*
X13065000Y-10635000D02*
X13035000Y-10665000D01*
X13035000Y-10935000D02*
X13065000Y-10965000D01*
X13065000Y-10935000D02*
X13035000Y-10965000D01*
X13035000Y-11235000D02*
X13065000Y-11265000D01*
X13065000Y-11235000D02*
X13035000Y-11265000D01*
X13035000Y-14360000D02*
X13065000Y-14390000D01*
X13065000Y-14360000D02*
X13035000Y-14390000D01*
X13285000Y-12060000D02*
X13315000Y-12090000D01*
X13315000Y-12060000D02*
X13285000Y-12090000D01*
X13326500Y-14110000D02*
X13356500Y-14140000D01*
X13356500Y-14110000D02*
X13326500Y-14140000D01*
X13335000Y-8835000D02*
X13365000Y-8865000D01*
X13365000Y-8835000D02*
X13335000Y-8865000D01*
X13335000Y-9135000D02*
X13365000Y-9165000D01*
X13365000Y-9135000D02*
X13335000Y-9165000D01*
X13335000Y-9435000D02*
X13365000Y-9465000D01*
X13365000Y-9435000D02*
X13335000Y-9465000D01*
X13335000Y-9735000D02*
X13365000Y-9765000D01*
X13365000Y-9735000D02*
X13335000Y-9765000D01*
X13335000Y-10035000D02*
X13365000Y-10065000D01*
X13365000Y-10035000D02*
X13335000Y-10065000D01*
X13335000Y-10335000D02*
X13365000Y-10365000D01*
X13365000Y-10335000D02*
X13335000Y-10365000D01*
X13335000Y-10635000D02*
X13365000Y-10665000D01*
X13365000Y-10635000D02*
X13335000Y-10665000D01*
X13335000Y-14360000D02*
X13365000Y-14390000D01*
X13365000Y-14360000D02*
X13335000Y-14390000D01*
X13460000Y-11910000D02*
X13490000Y-11940000D01*
X13490000Y-11910000D02*
X13460000Y-11940000D01*
X13610000Y-11760000D02*
X13640000Y-11790000D01*
X13640000Y-11760000D02*
X13610000Y-11790000D01*
X13610000Y-12060000D02*
X13640000Y-12090000D01*
X13640000Y-12060000D02*
X13610000Y-12090000D01*
X13610000Y-14360000D02*
X13640000Y-14390000D01*
X13640000Y-14360000D02*
X13610000Y-14390000D01*
X13635000Y-8835000D02*
X13665000Y-8865000D01*
X13665000Y-8835000D02*
X13635000Y-8865000D01*
X13635000Y-9135000D02*
X13665000Y-9165000D01*
X13665000Y-9135000D02*
X13635000Y-9165000D01*
X13635000Y-9435000D02*
X13665000Y-9465000D01*
X13665000Y-9435000D02*
X13635000Y-9465000D01*
X13635000Y-9735000D02*
X13665000Y-9765000D01*
X13665000Y-9735000D02*
X13635000Y-9765000D01*
X13735000Y-11910000D02*
X13765000Y-11940000D01*
X13765000Y-11910000D02*
X13735000Y-11940000D01*
X13860000Y-11760000D02*
X13890000Y-11790000D01*
X13890000Y-11760000D02*
X13860000Y-11790000D01*
X13860000Y-12060000D02*
X13890000Y-12090000D01*
X13890000Y-12060000D02*
X13860000Y-12090000D01*
X13885000Y-14360000D02*
X13915000Y-14390000D01*
X13915000Y-14360000D02*
X13885000Y-14390000D01*
X13935000Y-8835000D02*
X13965000Y-8865000D01*
X13965000Y-8835000D02*
X13935000Y-8865000D01*
X13935000Y-9135000D02*
X13965000Y-9165000D01*
X13965000Y-9135000D02*
X13935000Y-9165000D01*
X13935000Y-9435000D02*
X13965000Y-9465000D01*
X13965000Y-9435000D02*
X13935000Y-9465000D01*
X13935000Y-9735000D02*
X13965000Y-9765000D01*
X13965000Y-9735000D02*
X13935000Y-9765000D01*
X13935000Y-10035000D02*
X13965000Y-10065000D01*
X13965000Y-10035000D02*
X13935000Y-10065000D01*
X13985000Y-11910000D02*
X14015000Y-11940000D01*
X14015000Y-11910000D02*
X13985000Y-11940000D01*
X14110000Y-11760000D02*
X14140000Y-11790000D01*
X14140000Y-11760000D02*
X14110000Y-11790000D01*
X14160000Y-14360000D02*
X14190000Y-14390000D01*
X14190000Y-14360000D02*
X14160000Y-14390000D01*
X14235000Y-8835000D02*
X14265000Y-8865000D01*
X14265000Y-8835000D02*
X14235000Y-8865000D01*
X14235000Y-9135000D02*
X14265000Y-9165000D01*
X14265000Y-9135000D02*
X14235000Y-9165000D01*
X14235000Y-9435000D02*
X14265000Y-9465000D01*
X14265000Y-9435000D02*
X14235000Y-9465000D01*
X14235000Y-9735000D02*
X14265000Y-9765000D01*
X14265000Y-9735000D02*
X14235000Y-9765000D01*
X14235000Y-10035000D02*
X14265000Y-10065000D01*
X14265000Y-10035000D02*
X14235000Y-10065000D01*
X14235000Y-13635000D02*
X14265000Y-13665000D01*
X14265000Y-13635000D02*
X14235000Y-13665000D01*
X14235000Y-13935000D02*
X14265000Y-13965000D01*
X14265000Y-13935000D02*
X14235000Y-13965000D01*
X14335000Y-13760000D02*
X14365000Y-13790000D01*
X14365000Y-13760000D02*
X14335000Y-13790000D01*
X14335000Y-14010000D02*
X14365000Y-14040000D01*
X14365000Y-14010000D02*
X14335000Y-14040000D01*
X14435000Y-11585000D02*
X14465000Y-11615000D01*
X14465000Y-11585000D02*
X14435000Y-11615000D01*
X14435000Y-13635000D02*
X14465000Y-13665000D01*
X14465000Y-13635000D02*
X14435000Y-13665000D01*
X14435000Y-13885000D02*
X14465000Y-13915000D01*
X14465000Y-13885000D02*
X14435000Y-13915000D01*
X14460000Y-14360000D02*
X14490000Y-14390000D01*
X14490000Y-14360000D02*
X14460000Y-14390000D01*
X14535000Y-8835000D02*
X14565000Y-8865000D01*
X14565000Y-8835000D02*
X14535000Y-8865000D01*
X14535000Y-9135000D02*
X14565000Y-9165000D01*
X14565000Y-9135000D02*
X14535000Y-9165000D01*
X14535000Y-9435000D02*
X14565000Y-9465000D01*
X14565000Y-9435000D02*
X14535000Y-9465000D01*
X14535000Y-9735000D02*
X14565000Y-9765000D01*
X14565000Y-9735000D02*
X14535000Y-9765000D01*
X14535000Y-10035000D02*
X14565000Y-10065000D01*
X14565000Y-10035000D02*
X14535000Y-10065000D01*
X14604000Y-14110000D02*
X14634000Y-14140000D01*
X14634000Y-14110000D02*
X14604000Y-14140000D01*
X14735000Y-11310000D02*
X14765000Y-11340000D01*
X14765000Y-11310000D02*
X14735000Y-11340000D01*
X14760000Y-14360000D02*
X14790000Y-14390000D01*
X14790000Y-14360000D02*
X14760000Y-14390000D01*
X14835000Y-8835000D02*
X14865000Y-8865000D01*
X14865000Y-8835000D02*
X14835000Y-8865000D01*
X14835000Y-9135000D02*
X14865000Y-9165000D01*
X14865000Y-9135000D02*
X14835000Y-9165000D01*
X14835000Y-9435000D02*
X14865000Y-9465000D01*
X14865000Y-9435000D02*
X14835000Y-9465000D01*
X14835000Y-9735000D02*
X14865000Y-9765000D01*
X14865000Y-9735000D02*
X14835000Y-9765000D01*
X14835000Y-10035000D02*
X14865000Y-10065000D01*
X14865000Y-10035000D02*
X14835000Y-10065000D01*
X15035000Y-14360000D02*
X15065000Y-14390000D01*
X15065000Y-14360000D02*
X15035000Y-14390000D01*
X15135000Y-8835000D02*
X15165000Y-8865000D01*
X15165000Y-8835000D02*
X15135000Y-8865000D01*
X15135000Y-9135000D02*
X15165000Y-9165000D01*
X15165000Y-9135000D02*
X15135000Y-9165000D01*
X15135000Y-9435000D02*
X15165000Y-9465000D01*
X15165000Y-9435000D02*
X15135000Y-9465000D01*
X15310000Y-14360000D02*
X15340000Y-14390000D01*
X15340000Y-14360000D02*
X15310000Y-14390000D01*
X15435000Y-8835000D02*
X15465000Y-8865000D01*
X15465000Y-8835000D02*
X15435000Y-8865000D01*
X15435000Y-9135000D02*
X15465000Y-9165000D01*
X15465000Y-9135000D02*
X15435000Y-9165000D01*
X15435000Y-9435000D02*
X15465000Y-9465000D01*
X15465000Y-9435000D02*
X15435000Y-9465000D01*
X15510000Y-13635000D02*
X15540000Y-13665000D01*
X15540000Y-13635000D02*
X15510000Y-13665000D01*
X15510000Y-13910000D02*
X15540000Y-13940000D01*
X15540000Y-13910000D02*
X15510000Y-13940000D01*
X15585000Y-14360000D02*
X15615000Y-14390000D01*
X15615000Y-14360000D02*
X15585000Y-14390000D01*
X15610000Y-13760000D02*
X15640000Y-13790000D01*
X15640000Y-13760000D02*
X15610000Y-13790000D01*
X15610000Y-14010000D02*
X15640000Y-14040000D01*
X15640000Y-14010000D02*
X15610000Y-14040000D01*
X15735000Y-8835000D02*
X15765000Y-8865000D01*
X15765000Y-8835000D02*
X15735000Y-8865000D01*
X15735000Y-9135000D02*
X15765000Y-9165000D01*
X15765000Y-9135000D02*
X15735000Y-9165000D01*
X15735000Y-9435000D02*
X15765000Y-9465000D01*
X15765000Y-9435000D02*
X15735000Y-9465000D01*
X15735000Y-13635000D02*
X15765000Y-13665000D01*
X15765000Y-13635000D02*
X15735000Y-13665000D01*
X15735000Y-13935000D02*
X15765000Y-13965000D01*
X15765000Y-13935000D02*
X15735000Y-13965000D01*
X15854000Y-14110000D02*
X15884000Y-14140000D01*
X15884000Y-14110000D02*
X15854000Y-14140000D01*
X15885000Y-14360000D02*
X15915000Y-14390000D01*
X15915000Y-14360000D02*
X15885000Y-14390000D01*
X16035000Y-8835000D02*
X16065000Y-8865000D01*
X16065000Y-8835000D02*
X16035000Y-8865000D01*
X16035000Y-9135000D02*
X16065000Y-9165000D01*
X16065000Y-9135000D02*
X16035000Y-9165000D01*
X16035000Y-9435000D02*
X16065000Y-9465000D01*
X16065000Y-9435000D02*
X16035000Y-9465000D01*
X16185000Y-14360000D02*
X16215000Y-14390000D01*
X16215000Y-14360000D02*
X16185000Y-14390000D01*
X16335000Y-8835000D02*
X16365000Y-8865000D01*
X16365000Y-8835000D02*
X16335000Y-8865000D01*
X16335000Y-9135000D02*
X16365000Y-9165000D01*
X16365000Y-9135000D02*
X16335000Y-9165000D01*
X16335000Y-9435000D02*
X16365000Y-9465000D01*
X16365000Y-9435000D02*
X16335000Y-9465000D01*
X16460000Y-14360000D02*
X16490000Y-14390000D01*
X16490000Y-14360000D02*
X16460000Y-14390000D01*
X16635000Y-8835000D02*
X16665000Y-8865000D01*
X16665000Y-8835000D02*
X16635000Y-8865000D01*
X16635000Y-9135000D02*
X16665000Y-9165000D01*
X16665000Y-9135000D02*
X16635000Y-9165000D01*
X16635000Y-9435000D02*
X16665000Y-9465000D01*
X16665000Y-9435000D02*
X16635000Y-9465000D01*
X16635000Y-9735000D02*
X16665000Y-9765000D01*
X16665000Y-9735000D02*
X16635000Y-9765000D01*
X16635000Y-10035000D02*
X16665000Y-10065000D01*
X16665000Y-10035000D02*
X16635000Y-10065000D01*
X16635000Y-10635000D02*
X16665000Y-10665000D01*
X16665000Y-10635000D02*
X16635000Y-10665000D01*
X16735000Y-14360000D02*
X16765000Y-14390000D01*
X16765000Y-14360000D02*
X16735000Y-14390000D01*
X16910000Y-10960000D02*
X16940000Y-10990000D01*
X16940000Y-10960000D02*
X16910000Y-10990000D01*
X16935000Y-8835000D02*
X16965000Y-8865000D01*
X16965000Y-8835000D02*
X16935000Y-8865000D01*
X16935000Y-9735000D02*
X16965000Y-9765000D01*
X16965000Y-9735000D02*
X16935000Y-9765000D01*
X16935000Y-10035000D02*
X16965000Y-10065000D01*
X16965000Y-10035000D02*
X16935000Y-10065000D01*
X16935000Y-10335000D02*
X16965000Y-10365000D01*
X16965000Y-10335000D02*
X16935000Y-10365000D01*
X16985000Y-11235000D02*
X17015000Y-11265000D01*
X17015000Y-11235000D02*
X16985000Y-11265000D01*
X17235000Y-8835000D02*
X17265000Y-8865000D01*
X17265000Y-8835000D02*
X17235000Y-8865000D01*
X17235000Y-9735000D02*
X17265000Y-9765000D01*
X17265000Y-9735000D02*
X17235000Y-9765000D01*
X17235000Y-10035000D02*
X17265000Y-10065000D01*
X17265000Y-10035000D02*
X17235000Y-10065000D01*
X17235000Y-10335000D02*
X17265000Y-10365000D01*
X17265000Y-10335000D02*
X17235000Y-10365000D01*
X17235000Y-10635000D02*
X17265000Y-10665000D01*
X17265000Y-10635000D02*
X17235000Y-10665000D01*
X17235000Y-11235000D02*
X17265000Y-11265000D01*
X17265000Y-11235000D02*
X17235000Y-11265000D01*
X17235000Y-12135000D02*
X17265000Y-12165000D01*
X17265000Y-12135000D02*
X17235000Y-12165000D01*
X17235000Y-12435000D02*
X17265000Y-12465000D01*
X17265000Y-12435000D02*
X17235000Y-12465000D01*
X17235000Y-14235000D02*
X17265000Y-14265000D01*
X17265000Y-14235000D02*
X17235000Y-14265000D01*
X17535000Y-8835000D02*
X17565000Y-8865000D01*
X17565000Y-8835000D02*
X17535000Y-8865000D01*
X17535000Y-9735000D02*
X17565000Y-9765000D01*
X17565000Y-9735000D02*
X17535000Y-9765000D01*
X17535000Y-10035000D02*
X17565000Y-10065000D01*
X17565000Y-10035000D02*
X17535000Y-10065000D01*
X17535000Y-10335000D02*
X17565000Y-10365000D01*
X17565000Y-10335000D02*
X17535000Y-10365000D01*
X17535000Y-10635000D02*
X17565000Y-10665000D01*
X17565000Y-10635000D02*
X17535000Y-10665000D01*
X17535000Y-10935000D02*
X17565000Y-10965000D01*
X17565000Y-10935000D02*
X17535000Y-10965000D01*
X17535000Y-12135000D02*
X17565000Y-12165000D01*
X17565000Y-12135000D02*
X17535000Y-12165000D01*
X17535000Y-12435000D02*
X17565000Y-12465000D01*
X17565000Y-12435000D02*
X17535000Y-12465000D01*
X17535000Y-12735000D02*
X17565000Y-12765000D01*
X17565000Y-12735000D02*
X17535000Y-12765000D01*
X17535000Y-13335000D02*
X17565000Y-13365000D01*
X17565000Y-13335000D02*
X17535000Y-13365000D01*
X17535000Y-13635000D02*
X17565000Y-13665000D01*
X17565000Y-13635000D02*
X17535000Y-13665000D01*
X17535000Y-13935000D02*
X17565000Y-13965000D01*
X17565000Y-13935000D02*
X17535000Y-13965000D01*
X17535000Y-14235000D02*
X17565000Y-14265000D01*
X17565000Y-14235000D02*
X17535000Y-14265000D01*
X17835000Y-9435000D02*
X17865000Y-9465000D01*
X17865000Y-9435000D02*
X17835000Y-9465000D01*
X17835000Y-9735000D02*
X17865000Y-9765000D01*
X17865000Y-9735000D02*
X17835000Y-9765000D01*
X17835000Y-10035000D02*
X17865000Y-10065000D01*
X17865000Y-10035000D02*
X17835000Y-10065000D01*
X17835000Y-10335000D02*
X17865000Y-10365000D01*
X17865000Y-10335000D02*
X17835000Y-10365000D01*
X17835000Y-10635000D02*
X17865000Y-10665000D01*
X17865000Y-10635000D02*
X17835000Y-10665000D01*
X17835000Y-10935000D02*
X17865000Y-10965000D01*
X17865000Y-10935000D02*
X17835000Y-10965000D01*
X17835000Y-11235000D02*
X17865000Y-11265000D01*
X17865000Y-11235000D02*
X17835000Y-11265000D01*
X17835000Y-13335000D02*
X17865000Y-13365000D01*
X17865000Y-13335000D02*
X17835000Y-13365000D01*
X17835000Y-13635000D02*
X17865000Y-13665000D01*
X17865000Y-13635000D02*
X17835000Y-13665000D01*
X18135000Y-9435000D02*
X18165000Y-9465000D01*
X18165000Y-9435000D02*
X18135000Y-9465000D01*
X18135000Y-10035000D02*
X18165000Y-10065000D01*
X18165000Y-10035000D02*
X18135000Y-10065000D01*
X18135000Y-10335000D02*
X18165000Y-10365000D01*
X18165000Y-10335000D02*
X18135000Y-10365000D01*
X18135000Y-10935000D02*
X18165000Y-10965000D01*
X18165000Y-10935000D02*
X18135000Y-10965000D01*
X18135000Y-11535000D02*
X18165000Y-11565000D01*
X18165000Y-11535000D02*
X18135000Y-11565000D01*
X18135000Y-11835000D02*
X18165000Y-11865000D01*
X18165000Y-11835000D02*
X18135000Y-11865000D01*
X18135000Y-12135000D02*
X18165000Y-12165000D01*
X18165000Y-12135000D02*
X18135000Y-12165000D01*
X18135000Y-12435000D02*
X18165000Y-12465000D01*
X18165000Y-12435000D02*
X18135000Y-12465000D01*
X18135000Y-12735000D02*
X18165000Y-12765000D01*
X18165000Y-12735000D02*
X18135000Y-12765000D01*
X18135000Y-13035000D02*
X18165000Y-13065000D01*
X18165000Y-13035000D02*
X18135000Y-13065000D01*
X18135000Y-13335000D02*
X18165000Y-13365000D01*
X18165000Y-13335000D02*
X18135000Y-13365000D01*
X18135000Y-13635000D02*
X18165000Y-13665000D01*
X18165000Y-13635000D02*
X18135000Y-13665000D01*
X17362500Y-12650000D02*
G75*
G02*
X17287500Y-12650000I-37500J0D01*
G01*
X17287500Y-12650000D02*
G75*
G02*
X17362500Y-12650000I37500J0D01*
G01*
X17362500Y-12850000D02*
G75*
G02*
X17287500Y-12850000I-37500J0D01*
G01*
X17287500Y-12850000D02*
G75*
G02*
X17362500Y-12850000I37500J0D01*
G01*
X17362500Y-13050000D02*
G75*
G02*
X17287500Y-13050000I-37500J0D01*
G01*
X17287500Y-13050000D02*
G75*
G02*
X17362500Y-13050000I37500J0D01*
G01*
X17362500Y-13250000D02*
G75*
G02*
X17287500Y-13250000I-37500J0D01*
G01*
X17287500Y-13250000D02*
G75*
G02*
X17362500Y-13250000I37500J0D01*
G01*
X17362500Y-13450000D02*
G75*
G02*
X17287500Y-13450000I-37500J0D01*
G01*
X17287500Y-13450000D02*
G75*
G02*
X17362500Y-13450000I37500J0D01*
G01*
D12*
X11901500Y-9785500D02*
X11901500Y-9905500D01*
X11841500Y-9845500D02*
X11961500Y-9845500D01*
X11901500Y-10577500D02*
X11901500Y-10697500D01*
X11841500Y-10637500D02*
X11961500Y-10637500D01*
X11901500Y-11263500D02*
X11901500Y-11383500D01*
X11841500Y-11323500D02*
X11961500Y-11323500D01*
X18018500Y-9785500D02*
X18018500Y-9905500D01*
X17958500Y-9845500D02*
X18078500Y-9845500D01*
X18018500Y-10471500D02*
X18018500Y-10591500D01*
X17958500Y-10531500D02*
X18078500Y-10531500D01*
X18018500Y-11263500D02*
X18018500Y-11383500D01*
X17958500Y-11323500D02*
X18078500Y-11323500D01*
D13*
X13770402Y-10234402D02*
X13770402Y-10144598D01*
X13680598Y-10144598D01*
X13680598Y-10234402D01*
X13770402Y-10234402D01*
D10*
X13789000Y-10387500D02*
X13789000Y-9991500D01*
X13662000Y-9991500D02*
G75*
G02*
X13789000Y-9991500I63500J0D01*
G01*
X13662000Y-9991500D02*
X13662000Y-10387500D01*
X13662000Y-10387500D02*
G75*
G03*
X13789000Y-10387500I63500J0D01*
G01*
D13*
X13770402Y-11024402D02*
X13770402Y-10934598D01*
X13680598Y-10934598D01*
X13680598Y-11024402D01*
X13770402Y-11024402D01*
D10*
X13789000Y-11177500D02*
X13789000Y-10781500D01*
X13662000Y-10781500D02*
G75*
G02*
X13789000Y-10781500I63500J0D01*
G01*
X13662000Y-10781500D02*
X13662000Y-11177500D01*
X13662000Y-11177500D02*
G75*
G03*
X13789000Y-11177500I63500J0D01*
G01*
D13*
X16239402Y-10234402D02*
X16239402Y-10144598D01*
X16149598Y-10144598D01*
X16149598Y-10234402D01*
X16239402Y-10234402D01*
D10*
X16131000Y-9991500D02*
X16131000Y-10387500D01*
X16258000Y-10387500D02*
G75*
G02*
X16131000Y-10387500I-63500J0D01*
G01*
X16258000Y-10387500D02*
X16258000Y-9991500D01*
X16258000Y-9991500D02*
G75*
G03*
X16131000Y-9991500I-63500J0D01*
G01*
D13*
X16239402Y-11024402D02*
X16239402Y-10934598D01*
X16149598Y-10934598D01*
X16149598Y-11024402D01*
X16239402Y-11024402D01*
D10*
X16131000Y-10781500D02*
X16131000Y-11177500D01*
X16258000Y-11177500D02*
G75*
G02*
X16131000Y-11177500I-63500J0D01*
G01*
X16258000Y-11177500D02*
X16258000Y-10781500D01*
X16258000Y-10781500D02*
G75*
G03*
X16131000Y-10781500I-63500J0D01*
G01*
D14*
X14474000Y-10509000D02*
X14563000Y-10420000D01*
X14474000Y-10331000D01*
X14385000Y-10420000D01*
X14474000Y-10509000D01*
X14474000Y-10849000D02*
X14563000Y-10760000D01*
X14474000Y-10671000D01*
X14385000Y-10760000D01*
X14474000Y-10849000D01*
X15466000Y-10509000D02*
X15555000Y-10420000D01*
X15466000Y-10331000D01*
X15377000Y-10420000D01*
X15466000Y-10509000D01*
X15466000Y-10849000D02*
X15555000Y-10760000D01*
X15466000Y-10671000D01*
X15377000Y-10760000D01*
X15466000Y-10849000D01*
D15*
X11750000Y-8975000D02*
X12050000Y-9275000D01*
X12050000Y-8975000D02*
X11750000Y-9275000D01*
X12050000Y-9125000D02*
G75*
G02*
X11750000Y-9125000I-150000J0D01*
G01*
X11750000Y-9125000D02*
G75*
G02*
X12050000Y-9125000I150000J0D01*
G01*
X11750000Y-13975000D02*
X12050000Y-14275000D01*
X12050000Y-13975000D02*
X11750000Y-14275000D01*
X12050000Y-14125000D02*
G75*
G02*
X11750000Y-14125000I-150000J0D01*
G01*
X11750000Y-14125000D02*
G75*
G02*
X12050000Y-14125000I150000J0D01*
G01*
X17850000Y-13975000D02*
X18150000Y-14275000D01*
X18150000Y-13975000D02*
X17850000Y-14275000D01*
X18150000Y-14125000D02*
G75*
G02*
X17850000Y-14125000I-150000J0D01*
G01*
X17850000Y-14125000D02*
G75*
G02*
X18150000Y-14125000I150000J0D01*
G01*
X17875000Y-8950000D02*
X18175000Y-9250000D01*
X18175000Y-8950000D02*
X17875000Y-9250000D01*
X18175000Y-9100000D02*
G75*
G02*
X17875000Y-9100000I-150000J0D01*
G01*
X17875000Y-9100000D02*
G75*
G02*
X18175000Y-9100000I150000J0D01*
G01*
D16*
X12405000Y-9140500D02*
X12862000Y-9597500D01*
X12862000Y-9140500D02*
X12405000Y-9597500D01*
X12633500Y-9140500D02*
X12633500Y-9597500D01*
X12405000Y-9369000D02*
X12862000Y-9369000D01*
X12405000Y-11571500D02*
X12862000Y-12028500D01*
X12862000Y-11571500D02*
X12405000Y-12028500D01*
X12633500Y-11571500D02*
X12633500Y-12028500D01*
X12405000Y-11800000D02*
X12862000Y-11800000D01*
X17058000Y-9140500D02*
X17515000Y-9597500D01*
X17515000Y-9140500D02*
X17058000Y-9597500D01*
X17286500Y-9140500D02*
X17286500Y-9597500D01*
X17058000Y-9369000D02*
X17515000Y-9369000D01*
X17058000Y-11571500D02*
X17515000Y-12028500D01*
X17515000Y-11571500D02*
X17058000Y-12028500D01*
X17286500Y-11571500D02*
X17286500Y-12028500D01*
X17058000Y-11800000D02*
X17515000Y-11800000D01*
D11*
X11755777Y-14841484D02*
X11755777Y-14641484D01*
X11755777Y-14641484D02*
X11803396Y-14641484D01*
X11803396Y-14641484D02*
X11831967Y-14651008D01*
X11831967Y-14651008D02*
X11851015Y-14670055D01*
X11851015Y-14670055D02*
X11860539Y-14689103D01*
X11860539Y-14689103D02*
X11870062Y-14727198D01*
X11870062Y-14727198D02*
X11870062Y-14755769D01*
X11870062Y-14755769D02*
X11860539Y-14793865D01*
X11860539Y-14793865D02*
X11851015Y-14812912D01*
X11851015Y-14812912D02*
X11831967Y-14831960D01*
X11831967Y-14831960D02*
X11803396Y-14841484D01*
X11803396Y-14841484D02*
X11755777Y-14841484D01*
X11955777Y-14841484D02*
X11955777Y-14708150D01*
X11955777Y-14746246D02*
X11965301Y-14727198D01*
X11965301Y-14727198D02*
X11974824Y-14717674D01*
X11974824Y-14717674D02*
X11993872Y-14708150D01*
X11993872Y-14708150D02*
X12012920Y-14708150D01*
X12079586Y-14841484D02*
X12079586Y-14708150D01*
X12079586Y-14641484D02*
X12070062Y-14651008D01*
X12070062Y-14651008D02*
X12079586Y-14660531D01*
X12079586Y-14660531D02*
X12089110Y-14651008D01*
X12089110Y-14651008D02*
X12079586Y-14641484D01*
X12079586Y-14641484D02*
X12079586Y-14660531D01*
X12203396Y-14841484D02*
X12184348Y-14831960D01*
X12184348Y-14831960D02*
X12174824Y-14812912D01*
X12174824Y-14812912D02*
X12174824Y-14641484D01*
X12308158Y-14841484D02*
X12289110Y-14831960D01*
X12289110Y-14831960D02*
X12279586Y-14812912D01*
X12279586Y-14812912D02*
X12279586Y-14641484D01*
X12536729Y-14841484D02*
X12536729Y-14641484D01*
X12536729Y-14641484D02*
X12603396Y-14784341D01*
X12603396Y-14784341D02*
X12670062Y-14641484D01*
X12670062Y-14641484D02*
X12670062Y-14841484D01*
X12851015Y-14841484D02*
X12851015Y-14736722D01*
X12851015Y-14736722D02*
X12841491Y-14717674D01*
X12841491Y-14717674D02*
X12822443Y-14708150D01*
X12822443Y-14708150D02*
X12784348Y-14708150D01*
X12784348Y-14708150D02*
X12765301Y-14717674D01*
X12851015Y-14831960D02*
X12831967Y-14841484D01*
X12831967Y-14841484D02*
X12784348Y-14841484D01*
X12784348Y-14841484D02*
X12765301Y-14831960D01*
X12765301Y-14831960D02*
X12755777Y-14812912D01*
X12755777Y-14812912D02*
X12755777Y-14793865D01*
X12755777Y-14793865D02*
X12765301Y-14774817D01*
X12765301Y-14774817D02*
X12784348Y-14765293D01*
X12784348Y-14765293D02*
X12831967Y-14765293D01*
X12831967Y-14765293D02*
X12851015Y-14755769D01*
X12946253Y-14708150D02*
X12946253Y-14908150D01*
X12946253Y-14717674D02*
X12965301Y-14708150D01*
X12965301Y-14708150D02*
X13003396Y-14708150D01*
X13003396Y-14708150D02*
X13022443Y-14717674D01*
X13022443Y-14717674D02*
X13031967Y-14727198D01*
X13031967Y-14727198D02*
X13041491Y-14746246D01*
X13041491Y-14746246D02*
X13041491Y-14803388D01*
X13041491Y-14803388D02*
X13031967Y-14822436D01*
X13031967Y-14822436D02*
X13022443Y-14831960D01*
X13022443Y-14831960D02*
X13003396Y-14841484D01*
X13003396Y-14841484D02*
X12965301Y-14841484D01*
X12965301Y-14841484D02*
X12946253Y-14831960D01*
X13127205Y-14822436D02*
X13136729Y-14831960D01*
X13136729Y-14831960D02*
X13127205Y-14841484D01*
X13127205Y-14841484D02*
X13117682Y-14831960D01*
X13117682Y-14831960D02*
X13127205Y-14822436D01*
X13127205Y-14822436D02*
X13127205Y-14841484D01*
X13127205Y-14717674D02*
X13136729Y-14727198D01*
X13136729Y-14727198D02*
X13127205Y-14736722D01*
X13127205Y-14736722D02*
X13117682Y-14727198D01*
X13117682Y-14727198D02*
X13127205Y-14717674D01*
X13127205Y-14717674D02*
X13127205Y-14736722D01*
D10*
X11465000Y-15155000D02*
X11495000Y-15185000D01*
X11495000Y-15155000D02*
X11465000Y-15185000D01*
D11*
X11793872Y-15061484D02*
X11812920Y-15061484D01*
X11812920Y-15061484D02*
X11831967Y-15071008D01*
X11831967Y-15071008D02*
X11841491Y-15080531D01*
X11841491Y-15080531D02*
X11851015Y-15099579D01*
X11851015Y-15099579D02*
X11860539Y-15137674D01*
X11860539Y-15137674D02*
X11860539Y-15185293D01*
X11860539Y-15185293D02*
X11851015Y-15223388D01*
X11851015Y-15223388D02*
X11841491Y-15242436D01*
X11841491Y-15242436D02*
X11831967Y-15251960D01*
X11831967Y-15251960D02*
X11812920Y-15261484D01*
X11812920Y-15261484D02*
X11793872Y-15261484D01*
X11793872Y-15261484D02*
X11774824Y-15251960D01*
X11774824Y-15251960D02*
X11765301Y-15242436D01*
X11765301Y-15242436D02*
X11755777Y-15223388D01*
X11755777Y-15223388D02*
X11746253Y-15185293D01*
X11746253Y-15185293D02*
X11746253Y-15137674D01*
X11746253Y-15137674D02*
X11755777Y-15099579D01*
X11755777Y-15099579D02*
X11765301Y-15080531D01*
X11765301Y-15080531D02*
X11774824Y-15071008D01*
X11774824Y-15071008D02*
X11793872Y-15061484D01*
X11946253Y-15242436D02*
X11955777Y-15251960D01*
X11955777Y-15251960D02*
X11946253Y-15261484D01*
X11946253Y-15261484D02*
X11936729Y-15251960D01*
X11936729Y-15251960D02*
X11946253Y-15242436D01*
X11946253Y-15242436D02*
X11946253Y-15261484D01*
X12022443Y-15061484D02*
X12146253Y-15061484D01*
X12146253Y-15061484D02*
X12079586Y-15137674D01*
X12079586Y-15137674D02*
X12108158Y-15137674D01*
X12108158Y-15137674D02*
X12127205Y-15147198D01*
X12127205Y-15147198D02*
X12136729Y-15156722D01*
X12136729Y-15156722D02*
X12146253Y-15175769D01*
X12146253Y-15175769D02*
X12146253Y-15223388D01*
X12146253Y-15223388D02*
X12136729Y-15242436D01*
X12136729Y-15242436D02*
X12127205Y-15251960D01*
X12127205Y-15251960D02*
X12108158Y-15261484D01*
X12108158Y-15261484D02*
X12051015Y-15261484D01*
X12051015Y-15261484D02*
X12031967Y-15251960D01*
X12031967Y-15251960D02*
X12022443Y-15242436D01*
X12270062Y-15061484D02*
X12289110Y-15061484D01*
X12289110Y-15061484D02*
X12308158Y-15071008D01*
X12308158Y-15071008D02*
X12317682Y-15080531D01*
X12317682Y-15080531D02*
X12327205Y-15099579D01*
X12327205Y-15099579D02*
X12336729Y-15137674D01*
X12336729Y-15137674D02*
X12336729Y-15185293D01*
X12336729Y-15185293D02*
X12327205Y-15223388D01*
X12327205Y-15223388D02*
X12317682Y-15242436D01*
X12317682Y-15242436D02*
X12308158Y-15251960D01*
X12308158Y-15251960D02*
X12289110Y-15261484D01*
X12289110Y-15261484D02*
X12270062Y-15261484D01*
X12270062Y-15261484D02*
X12251015Y-15251960D01*
X12251015Y-15251960D02*
X12241491Y-15242436D01*
X12241491Y-15242436D02*
X12231967Y-15223388D01*
X12231967Y-15223388D02*
X12222443Y-15185293D01*
X12222443Y-15185293D02*
X12222443Y-15137674D01*
X12222443Y-15137674D02*
X12231967Y-15099579D01*
X12231967Y-15099579D02*
X12241491Y-15080531D01*
X12241491Y-15080531D02*
X12251015Y-15071008D01*
X12251015Y-15071008D02*
X12270062Y-15061484D01*
X12460539Y-15061484D02*
X12479586Y-15061484D01*
X12479586Y-15061484D02*
X12498634Y-15071008D01*
X12498634Y-15071008D02*
X12508158Y-15080531D01*
X12508158Y-15080531D02*
X12517682Y-15099579D01*
X12517682Y-15099579D02*
X12527205Y-15137674D01*
X12527205Y-15137674D02*
X12527205Y-15185293D01*
X12527205Y-15185293D02*
X12517682Y-15223388D01*
X12517682Y-15223388D02*
X12508158Y-15242436D01*
X12508158Y-15242436D02*
X12498634Y-15251960D01*
X12498634Y-15251960D02*
X12479586Y-15261484D01*
X12479586Y-15261484D02*
X12460539Y-15261484D01*
X12460539Y-15261484D02*
X12441491Y-15251960D01*
X12441491Y-15251960D02*
X12431967Y-15242436D01*
X12431967Y-15242436D02*
X12422443Y-15223388D01*
X12422443Y-15223388D02*
X12412920Y-15185293D01*
X12412920Y-15185293D02*
X12412920Y-15137674D01*
X12412920Y-15137674D02*
X12422443Y-15099579D01*
X12422443Y-15099579D02*
X12431967Y-15080531D01*
X12431967Y-15080531D02*
X12441491Y-15071008D01*
X12441491Y-15071008D02*
X12460539Y-15061484D01*
X12612920Y-15261484D02*
X12612920Y-15128150D01*
X12612920Y-15147198D02*
X12622443Y-15137674D01*
X12622443Y-15137674D02*
X12641491Y-15128150D01*
X12641491Y-15128150D02*
X12670063Y-15128150D01*
X12670063Y-15128150D02*
X12689110Y-15137674D01*
X12689110Y-15137674D02*
X12698634Y-15156722D01*
X12698634Y-15156722D02*
X12698634Y-15261484D01*
X12698634Y-15156722D02*
X12708158Y-15137674D01*
X12708158Y-15137674D02*
X12727205Y-15128150D01*
X12727205Y-15128150D02*
X12755777Y-15128150D01*
X12755777Y-15128150D02*
X12774824Y-15137674D01*
X12774824Y-15137674D02*
X12784348Y-15156722D01*
X12784348Y-15156722D02*
X12784348Y-15261484D01*
X12879586Y-15261484D02*
X12879586Y-15128150D01*
X12879586Y-15147198D02*
X12889110Y-15137674D01*
X12889110Y-15137674D02*
X12908158Y-15128150D01*
X12908158Y-15128150D02*
X12936729Y-15128150D01*
X12936729Y-15128150D02*
X12955777Y-15137674D01*
X12955777Y-15137674D02*
X12965301Y-15156722D01*
X12965301Y-15156722D02*
X12965301Y-15261484D01*
X12965301Y-15156722D02*
X12974824Y-15137674D01*
X12974824Y-15137674D02*
X12993872Y-15128150D01*
X12993872Y-15128150D02*
X13022443Y-15128150D01*
X13022443Y-15128150D02*
X13041491Y-15137674D01*
X13041491Y-15137674D02*
X13051015Y-15156722D01*
X13051015Y-15156722D02*
X13051015Y-15261484D01*
X13441491Y-15051960D02*
X13270063Y-15309103D01*
X13698634Y-15061484D02*
X13717682Y-15061484D01*
X13717682Y-15061484D02*
X13736729Y-15071008D01*
X13736729Y-15071008D02*
X13746253Y-15080531D01*
X13746253Y-15080531D02*
X13755777Y-15099579D01*
X13755777Y-15099579D02*
X13765301Y-15137674D01*
X13765301Y-15137674D02*
X13765301Y-15185293D01*
X13765301Y-15185293D02*
X13755777Y-15223388D01*
X13755777Y-15223388D02*
X13746253Y-15242436D01*
X13746253Y-15242436D02*
X13736729Y-15251960D01*
X13736729Y-15251960D02*
X13717682Y-15261484D01*
X13717682Y-15261484D02*
X13698634Y-15261484D01*
X13698634Y-15261484D02*
X13679586Y-15251960D01*
X13679586Y-15251960D02*
X13670063Y-15242436D01*
X13670063Y-15242436D02*
X13660539Y-15223388D01*
X13660539Y-15223388D02*
X13651015Y-15185293D01*
X13651015Y-15185293D02*
X13651015Y-15137674D01*
X13651015Y-15137674D02*
X13660539Y-15099579D01*
X13660539Y-15099579D02*
X13670063Y-15080531D01*
X13670063Y-15080531D02*
X13679586Y-15071008D01*
X13679586Y-15071008D02*
X13698634Y-15061484D01*
X13851015Y-15242436D02*
X13860539Y-15251960D01*
X13860539Y-15251960D02*
X13851015Y-15261484D01*
X13851015Y-15261484D02*
X13841491Y-15251960D01*
X13841491Y-15251960D02*
X13851015Y-15242436D01*
X13851015Y-15242436D02*
X13851015Y-15261484D01*
X13984348Y-15061484D02*
X14003396Y-15061484D01*
X14003396Y-15061484D02*
X14022444Y-15071008D01*
X14022444Y-15071008D02*
X14031967Y-15080531D01*
X14031967Y-15080531D02*
X14041491Y-15099579D01*
X14041491Y-15099579D02*
X14051015Y-15137674D01*
X14051015Y-15137674D02*
X14051015Y-15185293D01*
X14051015Y-15185293D02*
X14041491Y-15223388D01*
X14041491Y-15223388D02*
X14031967Y-15242436D01*
X14031967Y-15242436D02*
X14022444Y-15251960D01*
X14022444Y-15251960D02*
X14003396Y-15261484D01*
X14003396Y-15261484D02*
X13984348Y-15261484D01*
X13984348Y-15261484D02*
X13965301Y-15251960D01*
X13965301Y-15251960D02*
X13955777Y-15242436D01*
X13955777Y-15242436D02*
X13946253Y-15223388D01*
X13946253Y-15223388D02*
X13936729Y-15185293D01*
X13936729Y-15185293D02*
X13936729Y-15137674D01*
X13936729Y-15137674D02*
X13946253Y-15099579D01*
X13946253Y-15099579D02*
X13955777Y-15080531D01*
X13955777Y-15080531D02*
X13965301Y-15071008D01*
X13965301Y-15071008D02*
X13984348Y-15061484D01*
X14241491Y-15261484D02*
X14127206Y-15261484D01*
X14184348Y-15261484D02*
X14184348Y-15061484D01*
X14184348Y-15061484D02*
X14165301Y-15090055D01*
X14165301Y-15090055D02*
X14146253Y-15109103D01*
X14146253Y-15109103D02*
X14127206Y-15118627D01*
X14431967Y-15261484D02*
X14317682Y-15261484D01*
X14374825Y-15261484D02*
X14374825Y-15061484D01*
X14374825Y-15061484D02*
X14355777Y-15090055D01*
X14355777Y-15090055D02*
X14336729Y-15109103D01*
X14336729Y-15109103D02*
X14317682Y-15118627D01*
X14546253Y-15147198D02*
X14527206Y-15137674D01*
X14527206Y-15137674D02*
X14517682Y-15128150D01*
X14517682Y-15128150D02*
X14508158Y-15109103D01*
X14508158Y-15109103D02*
X14508158Y-15099579D01*
X14508158Y-15099579D02*
X14517682Y-15080531D01*
X14517682Y-15080531D02*
X14527206Y-15071008D01*
X14527206Y-15071008D02*
X14546253Y-15061484D01*
X14546253Y-15061484D02*
X14584348Y-15061484D01*
X14584348Y-15061484D02*
X14603396Y-15071008D01*
X14603396Y-15071008D02*
X14612920Y-15080531D01*
X14612920Y-15080531D02*
X14622444Y-15099579D01*
X14622444Y-15099579D02*
X14622444Y-15109103D01*
X14622444Y-15109103D02*
X14612920Y-15128150D01*
X14612920Y-15128150D02*
X14603396Y-15137674D01*
X14603396Y-15137674D02*
X14584348Y-15147198D01*
X14584348Y-15147198D02*
X14546253Y-15147198D01*
X14546253Y-15147198D02*
X14527206Y-15156722D01*
X14527206Y-15156722D02*
X14517682Y-15166246D01*
X14517682Y-15166246D02*
X14508158Y-15185293D01*
X14508158Y-15185293D02*
X14508158Y-15223388D01*
X14508158Y-15223388D02*
X14517682Y-15242436D01*
X14517682Y-15242436D02*
X14527206Y-15251960D01*
X14527206Y-15251960D02*
X14546253Y-15261484D01*
X14546253Y-15261484D02*
X14584348Y-15261484D01*
X14584348Y-15261484D02*
X14603396Y-15251960D01*
X14603396Y-15251960D02*
X14612920Y-15242436D01*
X14612920Y-15242436D02*
X14622444Y-15223388D01*
X14622444Y-15223388D02*
X14622444Y-15185293D01*
X14622444Y-15185293D02*
X14612920Y-15166246D01*
X14612920Y-15166246D02*
X14603396Y-15156722D01*
X14603396Y-15156722D02*
X14584348Y-15147198D01*
X14698634Y-15061484D02*
X14698634Y-15099579D01*
X14774825Y-15061484D02*
X14774825Y-15099579D01*
X15070063Y-15337674D02*
X15060539Y-15328150D01*
X15060539Y-15328150D02*
X15041491Y-15299579D01*
X15041491Y-15299579D02*
X15031968Y-15280531D01*
X15031968Y-15280531D02*
X15022444Y-15251960D01*
X15022444Y-15251960D02*
X15012920Y-15204341D01*
X15012920Y-15204341D02*
X15012920Y-15166246D01*
X15012920Y-15166246D02*
X15022444Y-15118627D01*
X15022444Y-15118627D02*
X15031968Y-15090055D01*
X15031968Y-15090055D02*
X15041491Y-15071008D01*
X15041491Y-15071008D02*
X15060539Y-15042436D01*
X15060539Y-15042436D02*
X15070063Y-15032912D01*
X15136729Y-15080531D02*
X15146253Y-15071008D01*
X15146253Y-15071008D02*
X15165301Y-15061484D01*
X15165301Y-15061484D02*
X15212920Y-15061484D01*
X15212920Y-15061484D02*
X15231968Y-15071008D01*
X15231968Y-15071008D02*
X15241491Y-15080531D01*
X15241491Y-15080531D02*
X15251015Y-15099579D01*
X15251015Y-15099579D02*
X15251015Y-15118627D01*
X15251015Y-15118627D02*
X15241491Y-15147198D01*
X15241491Y-15147198D02*
X15127206Y-15261484D01*
X15127206Y-15261484D02*
X15251015Y-15261484D01*
X15374825Y-15061484D02*
X15393872Y-15061484D01*
X15393872Y-15061484D02*
X15412920Y-15071008D01*
X15412920Y-15071008D02*
X15422444Y-15080531D01*
X15422444Y-15080531D02*
X15431968Y-15099579D01*
X15431968Y-15099579D02*
X15441491Y-15137674D01*
X15441491Y-15137674D02*
X15441491Y-15185293D01*
X15441491Y-15185293D02*
X15431968Y-15223388D01*
X15431968Y-15223388D02*
X15422444Y-15242436D01*
X15422444Y-15242436D02*
X15412920Y-15251960D01*
X15412920Y-15251960D02*
X15393872Y-15261484D01*
X15393872Y-15261484D02*
X15374825Y-15261484D01*
X15374825Y-15261484D02*
X15355777Y-15251960D01*
X15355777Y-15251960D02*
X15346253Y-15242436D01*
X15346253Y-15242436D02*
X15336729Y-15223388D01*
X15336729Y-15223388D02*
X15327206Y-15185293D01*
X15327206Y-15185293D02*
X15327206Y-15137674D01*
X15327206Y-15137674D02*
X15336729Y-15099579D01*
X15336729Y-15099579D02*
X15346253Y-15080531D01*
X15346253Y-15080531D02*
X15355777Y-15071008D01*
X15355777Y-15071008D02*
X15374825Y-15061484D01*
X15631968Y-15261484D02*
X15517682Y-15261484D01*
X15574825Y-15261484D02*
X15574825Y-15061484D01*
X15574825Y-15061484D02*
X15555777Y-15090055D01*
X15555777Y-15090055D02*
X15536729Y-15109103D01*
X15536729Y-15109103D02*
X15517682Y-15118627D01*
X15870063Y-15261484D02*
X15870063Y-15061484D01*
X15955777Y-15261484D02*
X15955777Y-15156722D01*
X15955777Y-15156722D02*
X15946253Y-15137674D01*
X15946253Y-15137674D02*
X15927206Y-15128150D01*
X15927206Y-15128150D02*
X15898634Y-15128150D01*
X15898634Y-15128150D02*
X15879587Y-15137674D01*
X15879587Y-15137674D02*
X15870063Y-15147198D01*
X16079587Y-15261484D02*
X16060539Y-15251960D01*
X16060539Y-15251960D02*
X16051015Y-15242436D01*
X16051015Y-15242436D02*
X16041491Y-15223388D01*
X16041491Y-15223388D02*
X16041491Y-15166246D01*
X16041491Y-15166246D02*
X16051015Y-15147198D01*
X16051015Y-15147198D02*
X16060539Y-15137674D01*
X16060539Y-15137674D02*
X16079587Y-15128150D01*
X16079587Y-15128150D02*
X16108158Y-15128150D01*
X16108158Y-15128150D02*
X16127206Y-15137674D01*
X16127206Y-15137674D02*
X16136730Y-15147198D01*
X16136730Y-15147198D02*
X16146253Y-15166246D01*
X16146253Y-15166246D02*
X16146253Y-15223388D01*
X16146253Y-15223388D02*
X16136730Y-15242436D01*
X16136730Y-15242436D02*
X16127206Y-15251960D01*
X16127206Y-15251960D02*
X16108158Y-15261484D01*
X16108158Y-15261484D02*
X16079587Y-15261484D01*
X16260539Y-15261484D02*
X16241491Y-15251960D01*
X16241491Y-15251960D02*
X16231968Y-15232912D01*
X16231968Y-15232912D02*
X16231968Y-15061484D01*
X16412920Y-15251960D02*
X16393872Y-15261484D01*
X16393872Y-15261484D02*
X16355777Y-15261484D01*
X16355777Y-15261484D02*
X16336730Y-15251960D01*
X16336730Y-15251960D02*
X16327206Y-15232912D01*
X16327206Y-15232912D02*
X16327206Y-15156722D01*
X16327206Y-15156722D02*
X16336730Y-15137674D01*
X16336730Y-15137674D02*
X16355777Y-15128150D01*
X16355777Y-15128150D02*
X16393872Y-15128150D01*
X16393872Y-15128150D02*
X16412920Y-15137674D01*
X16412920Y-15137674D02*
X16422444Y-15156722D01*
X16422444Y-15156722D02*
X16422444Y-15175769D01*
X16422444Y-15175769D02*
X16327206Y-15194817D01*
X16498634Y-15251960D02*
X16517682Y-15261484D01*
X16517682Y-15261484D02*
X16555777Y-15261484D01*
X16555777Y-15261484D02*
X16574825Y-15251960D01*
X16574825Y-15251960D02*
X16584349Y-15232912D01*
X16584349Y-15232912D02*
X16584349Y-15223388D01*
X16584349Y-15223388D02*
X16574825Y-15204341D01*
X16574825Y-15204341D02*
X16555777Y-15194817D01*
X16555777Y-15194817D02*
X16527206Y-15194817D01*
X16527206Y-15194817D02*
X16508158Y-15185293D01*
X16508158Y-15185293D02*
X16498634Y-15166246D01*
X16498634Y-15166246D02*
X16498634Y-15156722D01*
X16498634Y-15156722D02*
X16508158Y-15137674D01*
X16508158Y-15137674D02*
X16527206Y-15128150D01*
X16527206Y-15128150D02*
X16555777Y-15128150D01*
X16555777Y-15128150D02*
X16574825Y-15137674D01*
X16651015Y-15337674D02*
X16660539Y-15328150D01*
X16660539Y-15328150D02*
X16679587Y-15299579D01*
X16679587Y-15299579D02*
X16689111Y-15280531D01*
X16689111Y-15280531D02*
X16698634Y-15251960D01*
X16698634Y-15251960D02*
X16708158Y-15204341D01*
X16708158Y-15204341D02*
X16708158Y-15166246D01*
X16708158Y-15166246D02*
X16698634Y-15118627D01*
X16698634Y-15118627D02*
X16689111Y-15090055D01*
X16689111Y-15090055D02*
X16679587Y-15071008D01*
X16679587Y-15071008D02*
X16660539Y-15042436D01*
X16660539Y-15042436D02*
X16651015Y-15032912D01*
D10*
X11495000Y-15434000D02*
G75*
G02*
X11420000Y-15434000I-37500J0D01*
G01*
X11420000Y-15434000D02*
G75*
G02*
X11495000Y-15434000I37500J0D01*
G01*
D11*
X11793872Y-15325484D02*
X11812920Y-15325484D01*
X11812920Y-15325484D02*
X11831967Y-15335008D01*
X11831967Y-15335008D02*
X11841491Y-15344531D01*
X11841491Y-15344531D02*
X11851015Y-15363579D01*
X11851015Y-15363579D02*
X11860539Y-15401674D01*
X11860539Y-15401674D02*
X11860539Y-15449293D01*
X11860539Y-15449293D02*
X11851015Y-15487388D01*
X11851015Y-15487388D02*
X11841491Y-15506436D01*
X11841491Y-15506436D02*
X11831967Y-15515960D01*
X11831967Y-15515960D02*
X11812920Y-15525484D01*
X11812920Y-15525484D02*
X11793872Y-15525484D01*
X11793872Y-15525484D02*
X11774824Y-15515960D01*
X11774824Y-15515960D02*
X11765301Y-15506436D01*
X11765301Y-15506436D02*
X11755777Y-15487388D01*
X11755777Y-15487388D02*
X11746253Y-15449293D01*
X11746253Y-15449293D02*
X11746253Y-15401674D01*
X11746253Y-15401674D02*
X11755777Y-15363579D01*
X11755777Y-15363579D02*
X11765301Y-15344531D01*
X11765301Y-15344531D02*
X11774824Y-15335008D01*
X11774824Y-15335008D02*
X11793872Y-15325484D01*
X11946253Y-15506436D02*
X11955777Y-15515960D01*
X11955777Y-15515960D02*
X11946253Y-15525484D01*
X11946253Y-15525484D02*
X11936729Y-15515960D01*
X11936729Y-15515960D02*
X11946253Y-15506436D01*
X11946253Y-15506436D02*
X11946253Y-15525484D01*
X12022443Y-15325484D02*
X12155777Y-15325484D01*
X12155777Y-15325484D02*
X12070062Y-15525484D01*
X12327205Y-15325484D02*
X12231967Y-15325484D01*
X12231967Y-15325484D02*
X12222443Y-15420722D01*
X12222443Y-15420722D02*
X12231967Y-15411198D01*
X12231967Y-15411198D02*
X12251015Y-15401674D01*
X12251015Y-15401674D02*
X12298634Y-15401674D01*
X12298634Y-15401674D02*
X12317682Y-15411198D01*
X12317682Y-15411198D02*
X12327205Y-15420722D01*
X12327205Y-15420722D02*
X12336729Y-15439769D01*
X12336729Y-15439769D02*
X12336729Y-15487388D01*
X12336729Y-15487388D02*
X12327205Y-15506436D01*
X12327205Y-15506436D02*
X12317682Y-15515960D01*
X12317682Y-15515960D02*
X12298634Y-15525484D01*
X12298634Y-15525484D02*
X12251015Y-15525484D01*
X12251015Y-15525484D02*
X12231967Y-15515960D01*
X12231967Y-15515960D02*
X12222443Y-15506436D01*
X12460539Y-15325484D02*
X12479586Y-15325484D01*
X12479586Y-15325484D02*
X12498634Y-15335008D01*
X12498634Y-15335008D02*
X12508158Y-15344531D01*
X12508158Y-15344531D02*
X12517682Y-15363579D01*
X12517682Y-15363579D02*
X12527205Y-15401674D01*
X12527205Y-15401674D02*
X12527205Y-15449293D01*
X12527205Y-15449293D02*
X12517682Y-15487388D01*
X12517682Y-15487388D02*
X12508158Y-15506436D01*
X12508158Y-15506436D02*
X12498634Y-15515960D01*
X12498634Y-15515960D02*
X12479586Y-15525484D01*
X12479586Y-15525484D02*
X12460539Y-15525484D01*
X12460539Y-15525484D02*
X12441491Y-15515960D01*
X12441491Y-15515960D02*
X12431967Y-15506436D01*
X12431967Y-15506436D02*
X12422443Y-15487388D01*
X12422443Y-15487388D02*
X12412920Y-15449293D01*
X12412920Y-15449293D02*
X12412920Y-15401674D01*
X12412920Y-15401674D02*
X12422443Y-15363579D01*
X12422443Y-15363579D02*
X12431967Y-15344531D01*
X12431967Y-15344531D02*
X12441491Y-15335008D01*
X12441491Y-15335008D02*
X12460539Y-15325484D01*
X12612920Y-15525484D02*
X12612920Y-15392150D01*
X12612920Y-15411198D02*
X12622443Y-15401674D01*
X12622443Y-15401674D02*
X12641491Y-15392150D01*
X12641491Y-15392150D02*
X12670063Y-15392150D01*
X12670063Y-15392150D02*
X12689110Y-15401674D01*
X12689110Y-15401674D02*
X12698634Y-15420722D01*
X12698634Y-15420722D02*
X12698634Y-15525484D01*
X12698634Y-15420722D02*
X12708158Y-15401674D01*
X12708158Y-15401674D02*
X12727205Y-15392150D01*
X12727205Y-15392150D02*
X12755777Y-15392150D01*
X12755777Y-15392150D02*
X12774824Y-15401674D01*
X12774824Y-15401674D02*
X12784348Y-15420722D01*
X12784348Y-15420722D02*
X12784348Y-15525484D01*
X12879586Y-15525484D02*
X12879586Y-15392150D01*
X12879586Y-15411198D02*
X12889110Y-15401674D01*
X12889110Y-15401674D02*
X12908158Y-15392150D01*
X12908158Y-15392150D02*
X12936729Y-15392150D01*
X12936729Y-15392150D02*
X12955777Y-15401674D01*
X12955777Y-15401674D02*
X12965301Y-15420722D01*
X12965301Y-15420722D02*
X12965301Y-15525484D01*
X12965301Y-15420722D02*
X12974824Y-15401674D01*
X12974824Y-15401674D02*
X12993872Y-15392150D01*
X12993872Y-15392150D02*
X13022443Y-15392150D01*
X13022443Y-15392150D02*
X13041491Y-15401674D01*
X13041491Y-15401674D02*
X13051015Y-15420722D01*
X13051015Y-15420722D02*
X13051015Y-15525484D01*
X13441491Y-15315960D02*
X13270063Y-15573103D01*
X13698634Y-15325484D02*
X13717682Y-15325484D01*
X13717682Y-15325484D02*
X13736729Y-15335008D01*
X13736729Y-15335008D02*
X13746253Y-15344531D01*
X13746253Y-15344531D02*
X13755777Y-15363579D01*
X13755777Y-15363579D02*
X13765301Y-15401674D01*
X13765301Y-15401674D02*
X13765301Y-15449293D01*
X13765301Y-15449293D02*
X13755777Y-15487388D01*
X13755777Y-15487388D02*
X13746253Y-15506436D01*
X13746253Y-15506436D02*
X13736729Y-15515960D01*
X13736729Y-15515960D02*
X13717682Y-15525484D01*
X13717682Y-15525484D02*
X13698634Y-15525484D01*
X13698634Y-15525484D02*
X13679586Y-15515960D01*
X13679586Y-15515960D02*
X13670063Y-15506436D01*
X13670063Y-15506436D02*
X13660539Y-15487388D01*
X13660539Y-15487388D02*
X13651015Y-15449293D01*
X13651015Y-15449293D02*
X13651015Y-15401674D01*
X13651015Y-15401674D02*
X13660539Y-15363579D01*
X13660539Y-15363579D02*
X13670063Y-15344531D01*
X13670063Y-15344531D02*
X13679586Y-15335008D01*
X13679586Y-15335008D02*
X13698634Y-15325484D01*
X13851015Y-15506436D02*
X13860539Y-15515960D01*
X13860539Y-15515960D02*
X13851015Y-15525484D01*
X13851015Y-15525484D02*
X13841491Y-15515960D01*
X13841491Y-15515960D02*
X13851015Y-15506436D01*
X13851015Y-15506436D02*
X13851015Y-15525484D01*
X13984348Y-15325484D02*
X14003396Y-15325484D01*
X14003396Y-15325484D02*
X14022444Y-15335008D01*
X14022444Y-15335008D02*
X14031967Y-15344531D01*
X14031967Y-15344531D02*
X14041491Y-15363579D01*
X14041491Y-15363579D02*
X14051015Y-15401674D01*
X14051015Y-15401674D02*
X14051015Y-15449293D01*
X14051015Y-15449293D02*
X14041491Y-15487388D01*
X14041491Y-15487388D02*
X14031967Y-15506436D01*
X14031967Y-15506436D02*
X14022444Y-15515960D01*
X14022444Y-15515960D02*
X14003396Y-15525484D01*
X14003396Y-15525484D02*
X13984348Y-15525484D01*
X13984348Y-15525484D02*
X13965301Y-15515960D01*
X13965301Y-15515960D02*
X13955777Y-15506436D01*
X13955777Y-15506436D02*
X13946253Y-15487388D01*
X13946253Y-15487388D02*
X13936729Y-15449293D01*
X13936729Y-15449293D02*
X13936729Y-15401674D01*
X13936729Y-15401674D02*
X13946253Y-15363579D01*
X13946253Y-15363579D02*
X13955777Y-15344531D01*
X13955777Y-15344531D02*
X13965301Y-15335008D01*
X13965301Y-15335008D02*
X13984348Y-15325484D01*
X14127206Y-15344531D02*
X14136729Y-15335008D01*
X14136729Y-15335008D02*
X14155777Y-15325484D01*
X14155777Y-15325484D02*
X14203396Y-15325484D01*
X14203396Y-15325484D02*
X14222444Y-15335008D01*
X14222444Y-15335008D02*
X14231967Y-15344531D01*
X14231967Y-15344531D02*
X14241491Y-15363579D01*
X14241491Y-15363579D02*
X14241491Y-15382627D01*
X14241491Y-15382627D02*
X14231967Y-15411198D01*
X14231967Y-15411198D02*
X14117682Y-15525484D01*
X14117682Y-15525484D02*
X14241491Y-15525484D01*
X14336729Y-15525484D02*
X14374825Y-15525484D01*
X14374825Y-15525484D02*
X14393872Y-15515960D01*
X14393872Y-15515960D02*
X14403396Y-15506436D01*
X14403396Y-15506436D02*
X14422444Y-15477865D01*
X14422444Y-15477865D02*
X14431967Y-15439769D01*
X14431967Y-15439769D02*
X14431967Y-15363579D01*
X14431967Y-15363579D02*
X14422444Y-15344531D01*
X14422444Y-15344531D02*
X14412920Y-15335008D01*
X14412920Y-15335008D02*
X14393872Y-15325484D01*
X14393872Y-15325484D02*
X14355777Y-15325484D01*
X14355777Y-15325484D02*
X14336729Y-15335008D01*
X14336729Y-15335008D02*
X14327206Y-15344531D01*
X14327206Y-15344531D02*
X14317682Y-15363579D01*
X14317682Y-15363579D02*
X14317682Y-15411198D01*
X14317682Y-15411198D02*
X14327206Y-15430246D01*
X14327206Y-15430246D02*
X14336729Y-15439769D01*
X14336729Y-15439769D02*
X14355777Y-15449293D01*
X14355777Y-15449293D02*
X14393872Y-15449293D01*
X14393872Y-15449293D02*
X14412920Y-15439769D01*
X14412920Y-15439769D02*
X14422444Y-15430246D01*
X14422444Y-15430246D02*
X14431967Y-15411198D01*
X14612920Y-15325484D02*
X14517682Y-15325484D01*
X14517682Y-15325484D02*
X14508158Y-15420722D01*
X14508158Y-15420722D02*
X14517682Y-15411198D01*
X14517682Y-15411198D02*
X14536729Y-15401674D01*
X14536729Y-15401674D02*
X14584348Y-15401674D01*
X14584348Y-15401674D02*
X14603396Y-15411198D01*
X14603396Y-15411198D02*
X14612920Y-15420722D01*
X14612920Y-15420722D02*
X14622444Y-15439769D01*
X14622444Y-15439769D02*
X14622444Y-15487388D01*
X14622444Y-15487388D02*
X14612920Y-15506436D01*
X14612920Y-15506436D02*
X14603396Y-15515960D01*
X14603396Y-15515960D02*
X14584348Y-15525484D01*
X14584348Y-15525484D02*
X14536729Y-15525484D01*
X14536729Y-15525484D02*
X14517682Y-15515960D01*
X14517682Y-15515960D02*
X14508158Y-15506436D01*
X14698634Y-15325484D02*
X14698634Y-15363579D01*
X14774825Y-15325484D02*
X14774825Y-15363579D01*
X15070063Y-15601674D02*
X15060539Y-15592150D01*
X15060539Y-15592150D02*
X15041491Y-15563579D01*
X15041491Y-15563579D02*
X15031968Y-15544531D01*
X15031968Y-15544531D02*
X15022444Y-15515960D01*
X15022444Y-15515960D02*
X15012920Y-15468341D01*
X15012920Y-15468341D02*
X15012920Y-15430246D01*
X15012920Y-15430246D02*
X15022444Y-15382627D01*
X15022444Y-15382627D02*
X15031968Y-15354055D01*
X15031968Y-15354055D02*
X15041491Y-15335008D01*
X15041491Y-15335008D02*
X15060539Y-15306436D01*
X15060539Y-15306436D02*
X15070063Y-15296912D01*
X15241491Y-15325484D02*
X15146253Y-15325484D01*
X15146253Y-15325484D02*
X15136729Y-15420722D01*
X15136729Y-15420722D02*
X15146253Y-15411198D01*
X15146253Y-15411198D02*
X15165301Y-15401674D01*
X15165301Y-15401674D02*
X15212920Y-15401674D01*
X15212920Y-15401674D02*
X15231968Y-15411198D01*
X15231968Y-15411198D02*
X15241491Y-15420722D01*
X15241491Y-15420722D02*
X15251015Y-15439769D01*
X15251015Y-15439769D02*
X15251015Y-15487388D01*
X15251015Y-15487388D02*
X15241491Y-15506436D01*
X15241491Y-15506436D02*
X15231968Y-15515960D01*
X15231968Y-15515960D02*
X15212920Y-15525484D01*
X15212920Y-15525484D02*
X15165301Y-15525484D01*
X15165301Y-15525484D02*
X15146253Y-15515960D01*
X15146253Y-15515960D02*
X15136729Y-15506436D01*
X15489110Y-15525484D02*
X15489110Y-15325484D01*
X15574825Y-15525484D02*
X15574825Y-15420722D01*
X15574825Y-15420722D02*
X15565301Y-15401674D01*
X15565301Y-15401674D02*
X15546253Y-15392150D01*
X15546253Y-15392150D02*
X15517682Y-15392150D01*
X15517682Y-15392150D02*
X15498634Y-15401674D01*
X15498634Y-15401674D02*
X15489110Y-15411198D01*
X15698634Y-15525484D02*
X15679587Y-15515960D01*
X15679587Y-15515960D02*
X15670063Y-15506436D01*
X15670063Y-15506436D02*
X15660539Y-15487388D01*
X15660539Y-15487388D02*
X15660539Y-15430246D01*
X15660539Y-15430246D02*
X15670063Y-15411198D01*
X15670063Y-15411198D02*
X15679587Y-15401674D01*
X15679587Y-15401674D02*
X15698634Y-15392150D01*
X15698634Y-15392150D02*
X15727206Y-15392150D01*
X15727206Y-15392150D02*
X15746253Y-15401674D01*
X15746253Y-15401674D02*
X15755777Y-15411198D01*
X15755777Y-15411198D02*
X15765301Y-15430246D01*
X15765301Y-15430246D02*
X15765301Y-15487388D01*
X15765301Y-15487388D02*
X15755777Y-15506436D01*
X15755777Y-15506436D02*
X15746253Y-15515960D01*
X15746253Y-15515960D02*
X15727206Y-15525484D01*
X15727206Y-15525484D02*
X15698634Y-15525484D01*
X15879587Y-15525484D02*
X15860539Y-15515960D01*
X15860539Y-15515960D02*
X15851015Y-15496912D01*
X15851015Y-15496912D02*
X15851015Y-15325484D01*
X16031968Y-15515960D02*
X16012920Y-15525484D01*
X16012920Y-15525484D02*
X15974825Y-15525484D01*
X15974825Y-15525484D02*
X15955777Y-15515960D01*
X15955777Y-15515960D02*
X15946253Y-15496912D01*
X15946253Y-15496912D02*
X15946253Y-15420722D01*
X15946253Y-15420722D02*
X15955777Y-15401674D01*
X15955777Y-15401674D02*
X15974825Y-15392150D01*
X15974825Y-15392150D02*
X16012920Y-15392150D01*
X16012920Y-15392150D02*
X16031968Y-15401674D01*
X16031968Y-15401674D02*
X16041491Y-15420722D01*
X16041491Y-15420722D02*
X16041491Y-15439769D01*
X16041491Y-15439769D02*
X15946253Y-15458817D01*
X16117682Y-15515960D02*
X16136730Y-15525484D01*
X16136730Y-15525484D02*
X16174825Y-15525484D01*
X16174825Y-15525484D02*
X16193872Y-15515960D01*
X16193872Y-15515960D02*
X16203396Y-15496912D01*
X16203396Y-15496912D02*
X16203396Y-15487388D01*
X16203396Y-15487388D02*
X16193872Y-15468341D01*
X16193872Y-15468341D02*
X16174825Y-15458817D01*
X16174825Y-15458817D02*
X16146253Y-15458817D01*
X16146253Y-15458817D02*
X16127206Y-15449293D01*
X16127206Y-15449293D02*
X16117682Y-15430246D01*
X16117682Y-15430246D02*
X16117682Y-15420722D01*
X16117682Y-15420722D02*
X16127206Y-15401674D01*
X16127206Y-15401674D02*
X16146253Y-15392150D01*
X16146253Y-15392150D02*
X16174825Y-15392150D01*
X16174825Y-15392150D02*
X16193872Y-15401674D01*
X16270063Y-15601674D02*
X16279587Y-15592150D01*
X16279587Y-15592150D02*
X16298634Y-15563579D01*
X16298634Y-15563579D02*
X16308158Y-15544531D01*
X16308158Y-15544531D02*
X16317682Y-15515960D01*
X16317682Y-15515960D02*
X16327206Y-15468341D01*
X16327206Y-15468341D02*
X16327206Y-15430246D01*
X16327206Y-15430246D02*
X16317682Y-15382627D01*
X16317682Y-15382627D02*
X16308158Y-15354055D01*
X16308158Y-15354055D02*
X16298634Y-15335008D01*
X16298634Y-15335008D02*
X16279587Y-15306436D01*
X16279587Y-15306436D02*
X16270063Y-15296912D01*
D12*
X11435000Y-15638000D02*
X11435000Y-15758000D01*
X11375000Y-15698000D02*
X11495000Y-15698000D01*
D11*
X11860539Y-15789484D02*
X11746253Y-15789484D01*
X11803396Y-15789484D02*
X11803396Y-15589484D01*
X11803396Y-15589484D02*
X11784348Y-15618055D01*
X11784348Y-15618055D02*
X11765301Y-15637103D01*
X11765301Y-15637103D02*
X11746253Y-15646627D01*
X11946253Y-15770436D02*
X11955777Y-15779960D01*
X11955777Y-15779960D02*
X11946253Y-15789484D01*
X11946253Y-15789484D02*
X11936729Y-15779960D01*
X11936729Y-15779960D02*
X11946253Y-15770436D01*
X11946253Y-15770436D02*
X11946253Y-15789484D01*
X12031967Y-15608531D02*
X12041491Y-15599008D01*
X12041491Y-15599008D02*
X12060539Y-15589484D01*
X12060539Y-15589484D02*
X12108158Y-15589484D01*
X12108158Y-15589484D02*
X12127205Y-15599008D01*
X12127205Y-15599008D02*
X12136729Y-15608531D01*
X12136729Y-15608531D02*
X12146253Y-15627579D01*
X12146253Y-15627579D02*
X12146253Y-15646627D01*
X12146253Y-15646627D02*
X12136729Y-15675198D01*
X12136729Y-15675198D02*
X12022443Y-15789484D01*
X12022443Y-15789484D02*
X12146253Y-15789484D01*
X12270062Y-15589484D02*
X12289110Y-15589484D01*
X12289110Y-15589484D02*
X12308158Y-15599008D01*
X12308158Y-15599008D02*
X12317682Y-15608531D01*
X12317682Y-15608531D02*
X12327205Y-15627579D01*
X12327205Y-15627579D02*
X12336729Y-15665674D01*
X12336729Y-15665674D02*
X12336729Y-15713293D01*
X12336729Y-15713293D02*
X12327205Y-15751388D01*
X12327205Y-15751388D02*
X12317682Y-15770436D01*
X12317682Y-15770436D02*
X12308158Y-15779960D01*
X12308158Y-15779960D02*
X12289110Y-15789484D01*
X12289110Y-15789484D02*
X12270062Y-15789484D01*
X12270062Y-15789484D02*
X12251015Y-15779960D01*
X12251015Y-15779960D02*
X12241491Y-15770436D01*
X12241491Y-15770436D02*
X12231967Y-15751388D01*
X12231967Y-15751388D02*
X12222443Y-15713293D01*
X12222443Y-15713293D02*
X12222443Y-15665674D01*
X12222443Y-15665674D02*
X12231967Y-15627579D01*
X12231967Y-15627579D02*
X12241491Y-15608531D01*
X12241491Y-15608531D02*
X12251015Y-15599008D01*
X12251015Y-15599008D02*
X12270062Y-15589484D01*
X12460539Y-15589484D02*
X12479586Y-15589484D01*
X12479586Y-15589484D02*
X12498634Y-15599008D01*
X12498634Y-15599008D02*
X12508158Y-15608531D01*
X12508158Y-15608531D02*
X12517682Y-15627579D01*
X12517682Y-15627579D02*
X12527205Y-15665674D01*
X12527205Y-15665674D02*
X12527205Y-15713293D01*
X12527205Y-15713293D02*
X12517682Y-15751388D01*
X12517682Y-15751388D02*
X12508158Y-15770436D01*
X12508158Y-15770436D02*
X12498634Y-15779960D01*
X12498634Y-15779960D02*
X12479586Y-15789484D01*
X12479586Y-15789484D02*
X12460539Y-15789484D01*
X12460539Y-15789484D02*
X12441491Y-15779960D01*
X12441491Y-15779960D02*
X12431967Y-15770436D01*
X12431967Y-15770436D02*
X12422443Y-15751388D01*
X12422443Y-15751388D02*
X12412920Y-15713293D01*
X12412920Y-15713293D02*
X12412920Y-15665674D01*
X12412920Y-15665674D02*
X12422443Y-15627579D01*
X12422443Y-15627579D02*
X12431967Y-15608531D01*
X12431967Y-15608531D02*
X12441491Y-15599008D01*
X12441491Y-15599008D02*
X12460539Y-15589484D01*
X12612920Y-15789484D02*
X12612920Y-15656150D01*
X12612920Y-15675198D02*
X12622443Y-15665674D01*
X12622443Y-15665674D02*
X12641491Y-15656150D01*
X12641491Y-15656150D02*
X12670063Y-15656150D01*
X12670063Y-15656150D02*
X12689110Y-15665674D01*
X12689110Y-15665674D02*
X12698634Y-15684722D01*
X12698634Y-15684722D02*
X12698634Y-15789484D01*
X12698634Y-15684722D02*
X12708158Y-15665674D01*
X12708158Y-15665674D02*
X12727205Y-15656150D01*
X12727205Y-15656150D02*
X12755777Y-15656150D01*
X12755777Y-15656150D02*
X12774824Y-15665674D01*
X12774824Y-15665674D02*
X12784348Y-15684722D01*
X12784348Y-15684722D02*
X12784348Y-15789484D01*
X12879586Y-15789484D02*
X12879586Y-15656150D01*
X12879586Y-15675198D02*
X12889110Y-15665674D01*
X12889110Y-15665674D02*
X12908158Y-15656150D01*
X12908158Y-15656150D02*
X12936729Y-15656150D01*
X12936729Y-15656150D02*
X12955777Y-15665674D01*
X12955777Y-15665674D02*
X12965301Y-15684722D01*
X12965301Y-15684722D02*
X12965301Y-15789484D01*
X12965301Y-15684722D02*
X12974824Y-15665674D01*
X12974824Y-15665674D02*
X12993872Y-15656150D01*
X12993872Y-15656150D02*
X13022443Y-15656150D01*
X13022443Y-15656150D02*
X13041491Y-15665674D01*
X13041491Y-15665674D02*
X13051015Y-15684722D01*
X13051015Y-15684722D02*
X13051015Y-15789484D01*
X13441491Y-15579960D02*
X13270063Y-15837103D01*
X13698634Y-15589484D02*
X13717682Y-15589484D01*
X13717682Y-15589484D02*
X13736729Y-15599008D01*
X13736729Y-15599008D02*
X13746253Y-15608531D01*
X13746253Y-15608531D02*
X13755777Y-15627579D01*
X13755777Y-15627579D02*
X13765301Y-15665674D01*
X13765301Y-15665674D02*
X13765301Y-15713293D01*
X13765301Y-15713293D02*
X13755777Y-15751388D01*
X13755777Y-15751388D02*
X13746253Y-15770436D01*
X13746253Y-15770436D02*
X13736729Y-15779960D01*
X13736729Y-15779960D02*
X13717682Y-15789484D01*
X13717682Y-15789484D02*
X13698634Y-15789484D01*
X13698634Y-15789484D02*
X13679586Y-15779960D01*
X13679586Y-15779960D02*
X13670063Y-15770436D01*
X13670063Y-15770436D02*
X13660539Y-15751388D01*
X13660539Y-15751388D02*
X13651015Y-15713293D01*
X13651015Y-15713293D02*
X13651015Y-15665674D01*
X13651015Y-15665674D02*
X13660539Y-15627579D01*
X13660539Y-15627579D02*
X13670063Y-15608531D01*
X13670063Y-15608531D02*
X13679586Y-15599008D01*
X13679586Y-15599008D02*
X13698634Y-15589484D01*
X13851015Y-15770436D02*
X13860539Y-15779960D01*
X13860539Y-15779960D02*
X13851015Y-15789484D01*
X13851015Y-15789484D02*
X13841491Y-15779960D01*
X13841491Y-15779960D02*
X13851015Y-15770436D01*
X13851015Y-15770436D02*
X13851015Y-15789484D01*
X13984348Y-15589484D02*
X14003396Y-15589484D01*
X14003396Y-15589484D02*
X14022444Y-15599008D01*
X14022444Y-15599008D02*
X14031967Y-15608531D01*
X14031967Y-15608531D02*
X14041491Y-15627579D01*
X14041491Y-15627579D02*
X14051015Y-15665674D01*
X14051015Y-15665674D02*
X14051015Y-15713293D01*
X14051015Y-15713293D02*
X14041491Y-15751388D01*
X14041491Y-15751388D02*
X14031967Y-15770436D01*
X14031967Y-15770436D02*
X14022444Y-15779960D01*
X14022444Y-15779960D02*
X14003396Y-15789484D01*
X14003396Y-15789484D02*
X13984348Y-15789484D01*
X13984348Y-15789484D02*
X13965301Y-15779960D01*
X13965301Y-15779960D02*
X13955777Y-15770436D01*
X13955777Y-15770436D02*
X13946253Y-15751388D01*
X13946253Y-15751388D02*
X13936729Y-15713293D01*
X13936729Y-15713293D02*
X13936729Y-15665674D01*
X13936729Y-15665674D02*
X13946253Y-15627579D01*
X13946253Y-15627579D02*
X13955777Y-15608531D01*
X13955777Y-15608531D02*
X13965301Y-15599008D01*
X13965301Y-15599008D02*
X13984348Y-15589484D01*
X14222444Y-15656150D02*
X14222444Y-15789484D01*
X14174825Y-15579960D02*
X14127206Y-15722817D01*
X14127206Y-15722817D02*
X14251015Y-15722817D01*
X14308158Y-15589484D02*
X14441491Y-15589484D01*
X14441491Y-15589484D02*
X14355777Y-15789484D01*
X14508158Y-15608531D02*
X14517682Y-15599008D01*
X14517682Y-15599008D02*
X14536729Y-15589484D01*
X14536729Y-15589484D02*
X14584348Y-15589484D01*
X14584348Y-15589484D02*
X14603396Y-15599008D01*
X14603396Y-15599008D02*
X14612920Y-15608531D01*
X14612920Y-15608531D02*
X14622444Y-15627579D01*
X14622444Y-15627579D02*
X14622444Y-15646627D01*
X14622444Y-15646627D02*
X14612920Y-15675198D01*
X14612920Y-15675198D02*
X14498634Y-15789484D01*
X14498634Y-15789484D02*
X14622444Y-15789484D01*
X14698634Y-15589484D02*
X14698634Y-15627579D01*
X14774825Y-15589484D02*
X14774825Y-15627579D01*
X15070063Y-15865674D02*
X15060539Y-15856150D01*
X15060539Y-15856150D02*
X15041491Y-15827579D01*
X15041491Y-15827579D02*
X15031968Y-15808531D01*
X15031968Y-15808531D02*
X15022444Y-15779960D01*
X15022444Y-15779960D02*
X15012920Y-15732341D01*
X15012920Y-15732341D02*
X15012920Y-15694246D01*
X15012920Y-15694246D02*
X15022444Y-15646627D01*
X15022444Y-15646627D02*
X15031968Y-15618055D01*
X15031968Y-15618055D02*
X15041491Y-15599008D01*
X15041491Y-15599008D02*
X15060539Y-15570436D01*
X15060539Y-15570436D02*
X15070063Y-15560912D01*
X15231968Y-15589484D02*
X15193872Y-15589484D01*
X15193872Y-15589484D02*
X15174825Y-15599008D01*
X15174825Y-15599008D02*
X15165301Y-15608531D01*
X15165301Y-15608531D02*
X15146253Y-15637103D01*
X15146253Y-15637103D02*
X15136729Y-15675198D01*
X15136729Y-15675198D02*
X15136729Y-15751388D01*
X15136729Y-15751388D02*
X15146253Y-15770436D01*
X15146253Y-15770436D02*
X15155777Y-15779960D01*
X15155777Y-15779960D02*
X15174825Y-15789484D01*
X15174825Y-15789484D02*
X15212920Y-15789484D01*
X15212920Y-15789484D02*
X15231968Y-15779960D01*
X15231968Y-15779960D02*
X15241491Y-15770436D01*
X15241491Y-15770436D02*
X15251015Y-15751388D01*
X15251015Y-15751388D02*
X15251015Y-15703769D01*
X15251015Y-15703769D02*
X15241491Y-15684722D01*
X15241491Y-15684722D02*
X15231968Y-15675198D01*
X15231968Y-15675198D02*
X15212920Y-15665674D01*
X15212920Y-15665674D02*
X15174825Y-15665674D01*
X15174825Y-15665674D02*
X15155777Y-15675198D01*
X15155777Y-15675198D02*
X15146253Y-15684722D01*
X15146253Y-15684722D02*
X15136729Y-15703769D01*
X15489110Y-15789484D02*
X15489110Y-15589484D01*
X15574825Y-15789484D02*
X15574825Y-15684722D01*
X15574825Y-15684722D02*
X15565301Y-15665674D01*
X15565301Y-15665674D02*
X15546253Y-15656150D01*
X15546253Y-15656150D02*
X15517682Y-15656150D01*
X15517682Y-15656150D02*
X15498634Y-15665674D01*
X15498634Y-15665674D02*
X15489110Y-15675198D01*
X15698634Y-15789484D02*
X15679587Y-15779960D01*
X15679587Y-15779960D02*
X15670063Y-15770436D01*
X15670063Y-15770436D02*
X15660539Y-15751388D01*
X15660539Y-15751388D02*
X15660539Y-15694246D01*
X15660539Y-15694246D02*
X15670063Y-15675198D01*
X15670063Y-15675198D02*
X15679587Y-15665674D01*
X15679587Y-15665674D02*
X15698634Y-15656150D01*
X15698634Y-15656150D02*
X15727206Y-15656150D01*
X15727206Y-15656150D02*
X15746253Y-15665674D01*
X15746253Y-15665674D02*
X15755777Y-15675198D01*
X15755777Y-15675198D02*
X15765301Y-15694246D01*
X15765301Y-15694246D02*
X15765301Y-15751388D01*
X15765301Y-15751388D02*
X15755777Y-15770436D01*
X15755777Y-15770436D02*
X15746253Y-15779960D01*
X15746253Y-15779960D02*
X15727206Y-15789484D01*
X15727206Y-15789484D02*
X15698634Y-15789484D01*
X15879587Y-15789484D02*
X15860539Y-15779960D01*
X15860539Y-15779960D02*
X15851015Y-15760912D01*
X15851015Y-15760912D02*
X15851015Y-15589484D01*
X16031968Y-15779960D02*
X16012920Y-15789484D01*
X16012920Y-15789484D02*
X15974825Y-15789484D01*
X15974825Y-15789484D02*
X15955777Y-15779960D01*
X15955777Y-15779960D02*
X15946253Y-15760912D01*
X15946253Y-15760912D02*
X15946253Y-15684722D01*
X15946253Y-15684722D02*
X15955777Y-15665674D01*
X15955777Y-15665674D02*
X15974825Y-15656150D01*
X15974825Y-15656150D02*
X16012920Y-15656150D01*
X16012920Y-15656150D02*
X16031968Y-15665674D01*
X16031968Y-15665674D02*
X16041491Y-15684722D01*
X16041491Y-15684722D02*
X16041491Y-15703769D01*
X16041491Y-15703769D02*
X15946253Y-15722817D01*
X16117682Y-15779960D02*
X16136730Y-15789484D01*
X16136730Y-15789484D02*
X16174825Y-15789484D01*
X16174825Y-15789484D02*
X16193872Y-15779960D01*
X16193872Y-15779960D02*
X16203396Y-15760912D01*
X16203396Y-15760912D02*
X16203396Y-15751388D01*
X16203396Y-15751388D02*
X16193872Y-15732341D01*
X16193872Y-15732341D02*
X16174825Y-15722817D01*
X16174825Y-15722817D02*
X16146253Y-15722817D01*
X16146253Y-15722817D02*
X16127206Y-15713293D01*
X16127206Y-15713293D02*
X16117682Y-15694246D01*
X16117682Y-15694246D02*
X16117682Y-15684722D01*
X16117682Y-15684722D02*
X16127206Y-15665674D01*
X16127206Y-15665674D02*
X16146253Y-15656150D01*
X16146253Y-15656150D02*
X16174825Y-15656150D01*
X16174825Y-15656150D02*
X16193872Y-15665674D01*
X16270063Y-15865674D02*
X16279587Y-15856150D01*
X16279587Y-15856150D02*
X16298634Y-15827579D01*
X16298634Y-15827579D02*
X16308158Y-15808531D01*
X16308158Y-15808531D02*
X16317682Y-15779960D01*
X16317682Y-15779960D02*
X16327206Y-15732341D01*
X16327206Y-15732341D02*
X16327206Y-15694246D01*
X16327206Y-15694246D02*
X16317682Y-15646627D01*
X16317682Y-15646627D02*
X16308158Y-15618055D01*
X16308158Y-15618055D02*
X16298634Y-15599008D01*
X16298634Y-15599008D02*
X16279587Y-15570436D01*
X16279587Y-15570436D02*
X16270063Y-15560912D01*
D13*
X11476402Y-16006902D02*
X11476402Y-15917098D01*
X11386598Y-15917098D01*
X11386598Y-16006902D01*
X11476402Y-16006902D01*
D11*
X11860539Y-16053484D02*
X11746253Y-16053484D01*
X11803396Y-16053484D02*
X11803396Y-15853484D01*
X11803396Y-15853484D02*
X11784348Y-15882055D01*
X11784348Y-15882055D02*
X11765301Y-15901103D01*
X11765301Y-15901103D02*
X11746253Y-15910627D01*
X11946253Y-16034436D02*
X11955777Y-16043960D01*
X11955777Y-16043960D02*
X11946253Y-16053484D01*
X11946253Y-16053484D02*
X11936729Y-16043960D01*
X11936729Y-16043960D02*
X11946253Y-16034436D01*
X11946253Y-16034436D02*
X11946253Y-16053484D01*
X12031967Y-15872531D02*
X12041491Y-15863008D01*
X12041491Y-15863008D02*
X12060539Y-15853484D01*
X12060539Y-15853484D02*
X12108158Y-15853484D01*
X12108158Y-15853484D02*
X12127205Y-15863008D01*
X12127205Y-15863008D02*
X12136729Y-15872531D01*
X12136729Y-15872531D02*
X12146253Y-15891579D01*
X12146253Y-15891579D02*
X12146253Y-15910627D01*
X12146253Y-15910627D02*
X12136729Y-15939198D01*
X12136729Y-15939198D02*
X12022443Y-16053484D01*
X12022443Y-16053484D02*
X12146253Y-16053484D01*
X12212920Y-15853484D02*
X12346253Y-15853484D01*
X12346253Y-15853484D02*
X12260539Y-16053484D01*
X12460539Y-15853484D02*
X12479586Y-15853484D01*
X12479586Y-15853484D02*
X12498634Y-15863008D01*
X12498634Y-15863008D02*
X12508158Y-15872531D01*
X12508158Y-15872531D02*
X12517682Y-15891579D01*
X12517682Y-15891579D02*
X12527205Y-15929674D01*
X12527205Y-15929674D02*
X12527205Y-15977293D01*
X12527205Y-15977293D02*
X12517682Y-16015388D01*
X12517682Y-16015388D02*
X12508158Y-16034436D01*
X12508158Y-16034436D02*
X12498634Y-16043960D01*
X12498634Y-16043960D02*
X12479586Y-16053484D01*
X12479586Y-16053484D02*
X12460539Y-16053484D01*
X12460539Y-16053484D02*
X12441491Y-16043960D01*
X12441491Y-16043960D02*
X12431967Y-16034436D01*
X12431967Y-16034436D02*
X12422443Y-16015388D01*
X12422443Y-16015388D02*
X12412920Y-15977293D01*
X12412920Y-15977293D02*
X12412920Y-15929674D01*
X12412920Y-15929674D02*
X12422443Y-15891579D01*
X12422443Y-15891579D02*
X12431967Y-15872531D01*
X12431967Y-15872531D02*
X12441491Y-15863008D01*
X12441491Y-15863008D02*
X12460539Y-15853484D01*
X12612920Y-16053484D02*
X12612920Y-15920150D01*
X12612920Y-15939198D02*
X12622443Y-15929674D01*
X12622443Y-15929674D02*
X12641491Y-15920150D01*
X12641491Y-15920150D02*
X12670063Y-15920150D01*
X12670063Y-15920150D02*
X12689110Y-15929674D01*
X12689110Y-15929674D02*
X12698634Y-15948722D01*
X12698634Y-15948722D02*
X12698634Y-16053484D01*
X12698634Y-15948722D02*
X12708158Y-15929674D01*
X12708158Y-15929674D02*
X12727205Y-15920150D01*
X12727205Y-15920150D02*
X12755777Y-15920150D01*
X12755777Y-15920150D02*
X12774824Y-15929674D01*
X12774824Y-15929674D02*
X12784348Y-15948722D01*
X12784348Y-15948722D02*
X12784348Y-16053484D01*
X12879586Y-16053484D02*
X12879586Y-15920150D01*
X12879586Y-15939198D02*
X12889110Y-15929674D01*
X12889110Y-15929674D02*
X12908158Y-15920150D01*
X12908158Y-15920150D02*
X12936729Y-15920150D01*
X12936729Y-15920150D02*
X12955777Y-15929674D01*
X12955777Y-15929674D02*
X12965301Y-15948722D01*
X12965301Y-15948722D02*
X12965301Y-16053484D01*
X12965301Y-15948722D02*
X12974824Y-15929674D01*
X12974824Y-15929674D02*
X12993872Y-15920150D01*
X12993872Y-15920150D02*
X13022443Y-15920150D01*
X13022443Y-15920150D02*
X13041491Y-15929674D01*
X13041491Y-15929674D02*
X13051015Y-15948722D01*
X13051015Y-15948722D02*
X13051015Y-16053484D01*
X13441491Y-15843960D02*
X13270063Y-16101103D01*
X13698634Y-15853484D02*
X13717682Y-15853484D01*
X13717682Y-15853484D02*
X13736729Y-15863008D01*
X13736729Y-15863008D02*
X13746253Y-15872531D01*
X13746253Y-15872531D02*
X13755777Y-15891579D01*
X13755777Y-15891579D02*
X13765301Y-15929674D01*
X13765301Y-15929674D02*
X13765301Y-15977293D01*
X13765301Y-15977293D02*
X13755777Y-16015388D01*
X13755777Y-16015388D02*
X13746253Y-16034436D01*
X13746253Y-16034436D02*
X13736729Y-16043960D01*
X13736729Y-16043960D02*
X13717682Y-16053484D01*
X13717682Y-16053484D02*
X13698634Y-16053484D01*
X13698634Y-16053484D02*
X13679586Y-16043960D01*
X13679586Y-16043960D02*
X13670063Y-16034436D01*
X13670063Y-16034436D02*
X13660539Y-16015388D01*
X13660539Y-16015388D02*
X13651015Y-15977293D01*
X13651015Y-15977293D02*
X13651015Y-15929674D01*
X13651015Y-15929674D02*
X13660539Y-15891579D01*
X13660539Y-15891579D02*
X13670063Y-15872531D01*
X13670063Y-15872531D02*
X13679586Y-15863008D01*
X13679586Y-15863008D02*
X13698634Y-15853484D01*
X13851015Y-16034436D02*
X13860539Y-16043960D01*
X13860539Y-16043960D02*
X13851015Y-16053484D01*
X13851015Y-16053484D02*
X13841491Y-16043960D01*
X13841491Y-16043960D02*
X13851015Y-16034436D01*
X13851015Y-16034436D02*
X13851015Y-16053484D01*
X13984348Y-15853484D02*
X14003396Y-15853484D01*
X14003396Y-15853484D02*
X14022444Y-15863008D01*
X14022444Y-15863008D02*
X14031967Y-15872531D01*
X14031967Y-15872531D02*
X14041491Y-15891579D01*
X14041491Y-15891579D02*
X14051015Y-15929674D01*
X14051015Y-15929674D02*
X14051015Y-15977293D01*
X14051015Y-15977293D02*
X14041491Y-16015388D01*
X14041491Y-16015388D02*
X14031967Y-16034436D01*
X14031967Y-16034436D02*
X14022444Y-16043960D01*
X14022444Y-16043960D02*
X14003396Y-16053484D01*
X14003396Y-16053484D02*
X13984348Y-16053484D01*
X13984348Y-16053484D02*
X13965301Y-16043960D01*
X13965301Y-16043960D02*
X13955777Y-16034436D01*
X13955777Y-16034436D02*
X13946253Y-16015388D01*
X13946253Y-16015388D02*
X13936729Y-15977293D01*
X13936729Y-15977293D02*
X13936729Y-15929674D01*
X13936729Y-15929674D02*
X13946253Y-15891579D01*
X13946253Y-15891579D02*
X13955777Y-15872531D01*
X13955777Y-15872531D02*
X13965301Y-15863008D01*
X13965301Y-15863008D02*
X13984348Y-15853484D01*
X14231967Y-15853484D02*
X14136729Y-15853484D01*
X14136729Y-15853484D02*
X14127206Y-15948722D01*
X14127206Y-15948722D02*
X14136729Y-15939198D01*
X14136729Y-15939198D02*
X14155777Y-15929674D01*
X14155777Y-15929674D02*
X14203396Y-15929674D01*
X14203396Y-15929674D02*
X14222444Y-15939198D01*
X14222444Y-15939198D02*
X14231967Y-15948722D01*
X14231967Y-15948722D02*
X14241491Y-15967769D01*
X14241491Y-15967769D02*
X14241491Y-16015388D01*
X14241491Y-16015388D02*
X14231967Y-16034436D01*
X14231967Y-16034436D02*
X14222444Y-16043960D01*
X14222444Y-16043960D02*
X14203396Y-16053484D01*
X14203396Y-16053484D02*
X14155777Y-16053484D01*
X14155777Y-16053484D02*
X14136729Y-16043960D01*
X14136729Y-16043960D02*
X14127206Y-16034436D01*
X14365301Y-15853484D02*
X14384348Y-15853484D01*
X14384348Y-15853484D02*
X14403396Y-15863008D01*
X14403396Y-15863008D02*
X14412920Y-15872531D01*
X14412920Y-15872531D02*
X14422444Y-15891579D01*
X14422444Y-15891579D02*
X14431967Y-15929674D01*
X14431967Y-15929674D02*
X14431967Y-15977293D01*
X14431967Y-15977293D02*
X14422444Y-16015388D01*
X14422444Y-16015388D02*
X14412920Y-16034436D01*
X14412920Y-16034436D02*
X14403396Y-16043960D01*
X14403396Y-16043960D02*
X14384348Y-16053484D01*
X14384348Y-16053484D02*
X14365301Y-16053484D01*
X14365301Y-16053484D02*
X14346253Y-16043960D01*
X14346253Y-16043960D02*
X14336729Y-16034436D01*
X14336729Y-16034436D02*
X14327206Y-16015388D01*
X14327206Y-16015388D02*
X14317682Y-15977293D01*
X14317682Y-15977293D02*
X14317682Y-15929674D01*
X14317682Y-15929674D02*
X14327206Y-15891579D01*
X14327206Y-15891579D02*
X14336729Y-15872531D01*
X14336729Y-15872531D02*
X14346253Y-15863008D01*
X14346253Y-15863008D02*
X14365301Y-15853484D01*
X14555777Y-15853484D02*
X14574825Y-15853484D01*
X14574825Y-15853484D02*
X14593872Y-15863008D01*
X14593872Y-15863008D02*
X14603396Y-15872531D01*
X14603396Y-15872531D02*
X14612920Y-15891579D01*
X14612920Y-15891579D02*
X14622444Y-15929674D01*
X14622444Y-15929674D02*
X14622444Y-15977293D01*
X14622444Y-15977293D02*
X14612920Y-16015388D01*
X14612920Y-16015388D02*
X14603396Y-16034436D01*
X14603396Y-16034436D02*
X14593872Y-16043960D01*
X14593872Y-16043960D02*
X14574825Y-16053484D01*
X14574825Y-16053484D02*
X14555777Y-16053484D01*
X14555777Y-16053484D02*
X14536729Y-16043960D01*
X14536729Y-16043960D02*
X14527206Y-16034436D01*
X14527206Y-16034436D02*
X14517682Y-16015388D01*
X14517682Y-16015388D02*
X14508158Y-15977293D01*
X14508158Y-15977293D02*
X14508158Y-15929674D01*
X14508158Y-15929674D02*
X14517682Y-15891579D01*
X14517682Y-15891579D02*
X14527206Y-15872531D01*
X14527206Y-15872531D02*
X14536729Y-15863008D01*
X14536729Y-15863008D02*
X14555777Y-15853484D01*
X14698634Y-15853484D02*
X14698634Y-15891579D01*
X14774825Y-15853484D02*
X14774825Y-15891579D01*
X15070063Y-16129674D02*
X15060539Y-16120150D01*
X15060539Y-16120150D02*
X15041491Y-16091579D01*
X15041491Y-16091579D02*
X15031968Y-16072531D01*
X15031968Y-16072531D02*
X15022444Y-16043960D01*
X15022444Y-16043960D02*
X15012920Y-15996341D01*
X15012920Y-15996341D02*
X15012920Y-15958246D01*
X15012920Y-15958246D02*
X15022444Y-15910627D01*
X15022444Y-15910627D02*
X15031968Y-15882055D01*
X15031968Y-15882055D02*
X15041491Y-15863008D01*
X15041491Y-15863008D02*
X15060539Y-15834436D01*
X15060539Y-15834436D02*
X15070063Y-15824912D01*
X15184348Y-15853484D02*
X15203396Y-15853484D01*
X15203396Y-15853484D02*
X15222444Y-15863008D01*
X15222444Y-15863008D02*
X15231968Y-15872531D01*
X15231968Y-15872531D02*
X15241491Y-15891579D01*
X15241491Y-15891579D02*
X15251015Y-15929674D01*
X15251015Y-15929674D02*
X15251015Y-15977293D01*
X15251015Y-15977293D02*
X15241491Y-16015388D01*
X15241491Y-16015388D02*
X15231968Y-16034436D01*
X15231968Y-16034436D02*
X15222444Y-16043960D01*
X15222444Y-16043960D02*
X15203396Y-16053484D01*
X15203396Y-16053484D02*
X15184348Y-16053484D01*
X15184348Y-16053484D02*
X15165301Y-16043960D01*
X15165301Y-16043960D02*
X15155777Y-16034436D01*
X15155777Y-16034436D02*
X15146253Y-16015388D01*
X15146253Y-16015388D02*
X15136729Y-15977293D01*
X15136729Y-15977293D02*
X15136729Y-15929674D01*
X15136729Y-15929674D02*
X15146253Y-15891579D01*
X15146253Y-15891579D02*
X15155777Y-15872531D01*
X15155777Y-15872531D02*
X15165301Y-15863008D01*
X15165301Y-15863008D02*
X15184348Y-15853484D01*
X15489110Y-16053484D02*
X15489110Y-15853484D01*
X15574825Y-16053484D02*
X15574825Y-15948722D01*
X15574825Y-15948722D02*
X15565301Y-15929674D01*
X15565301Y-15929674D02*
X15546253Y-15920150D01*
X15546253Y-15920150D02*
X15517682Y-15920150D01*
X15517682Y-15920150D02*
X15498634Y-15929674D01*
X15498634Y-15929674D02*
X15489110Y-15939198D01*
X15698634Y-16053484D02*
X15679587Y-16043960D01*
X15679587Y-16043960D02*
X15670063Y-16034436D01*
X15670063Y-16034436D02*
X15660539Y-16015388D01*
X15660539Y-16015388D02*
X15660539Y-15958246D01*
X15660539Y-15958246D02*
X15670063Y-15939198D01*
X15670063Y-15939198D02*
X15679587Y-15929674D01*
X15679587Y-15929674D02*
X15698634Y-15920150D01*
X15698634Y-15920150D02*
X15727206Y-15920150D01*
X15727206Y-15920150D02*
X15746253Y-15929674D01*
X15746253Y-15929674D02*
X15755777Y-15939198D01*
X15755777Y-15939198D02*
X15765301Y-15958246D01*
X15765301Y-15958246D02*
X15765301Y-16015388D01*
X15765301Y-16015388D02*
X15755777Y-16034436D01*
X15755777Y-16034436D02*
X15746253Y-16043960D01*
X15746253Y-16043960D02*
X15727206Y-16053484D01*
X15727206Y-16053484D02*
X15698634Y-16053484D01*
X15879587Y-16053484D02*
X15860539Y-16043960D01*
X15860539Y-16043960D02*
X15851015Y-16024912D01*
X15851015Y-16024912D02*
X15851015Y-15853484D01*
X16031968Y-16043960D02*
X16012920Y-16053484D01*
X16012920Y-16053484D02*
X15974825Y-16053484D01*
X15974825Y-16053484D02*
X15955777Y-16043960D01*
X15955777Y-16043960D02*
X15946253Y-16024912D01*
X15946253Y-16024912D02*
X15946253Y-15948722D01*
X15946253Y-15948722D02*
X15955777Y-15929674D01*
X15955777Y-15929674D02*
X15974825Y-15920150D01*
X15974825Y-15920150D02*
X16012920Y-15920150D01*
X16012920Y-15920150D02*
X16031968Y-15929674D01*
X16031968Y-15929674D02*
X16041491Y-15948722D01*
X16041491Y-15948722D02*
X16041491Y-15967769D01*
X16041491Y-15967769D02*
X15946253Y-15986817D01*
X16117682Y-16043960D02*
X16136730Y-16053484D01*
X16136730Y-16053484D02*
X16174825Y-16053484D01*
X16174825Y-16053484D02*
X16193872Y-16043960D01*
X16193872Y-16043960D02*
X16203396Y-16024912D01*
X16203396Y-16024912D02*
X16203396Y-16015388D01*
X16203396Y-16015388D02*
X16193872Y-15996341D01*
X16193872Y-15996341D02*
X16174825Y-15986817D01*
X16174825Y-15986817D02*
X16146253Y-15986817D01*
X16146253Y-15986817D02*
X16127206Y-15977293D01*
X16127206Y-15977293D02*
X16117682Y-15958246D01*
X16117682Y-15958246D02*
X16117682Y-15948722D01*
X16117682Y-15948722D02*
X16127206Y-15929674D01*
X16127206Y-15929674D02*
X16146253Y-15920150D01*
X16146253Y-15920150D02*
X16174825Y-15920150D01*
X16174825Y-15920150D02*
X16193872Y-15929674D01*
X16441492Y-15977293D02*
X16593873Y-15977293D01*
X16517682Y-16053484D02*
X16517682Y-15901103D01*
X16927206Y-15920150D02*
X16927206Y-16053484D01*
X16879587Y-15843960D02*
X16831968Y-15986817D01*
X16831968Y-15986817D02*
X16955777Y-15986817D01*
X17174825Y-16043960D02*
X17193873Y-16053484D01*
X17193873Y-16053484D02*
X17231968Y-16053484D01*
X17231968Y-16053484D02*
X17251016Y-16043960D01*
X17251016Y-16043960D02*
X17260539Y-16024912D01*
X17260539Y-16024912D02*
X17260539Y-16015388D01*
X17260539Y-16015388D02*
X17251016Y-15996341D01*
X17251016Y-15996341D02*
X17231968Y-15986817D01*
X17231968Y-15986817D02*
X17203396Y-15986817D01*
X17203396Y-15986817D02*
X17184349Y-15977293D01*
X17184349Y-15977293D02*
X17174825Y-15958246D01*
X17174825Y-15958246D02*
X17174825Y-15948722D01*
X17174825Y-15948722D02*
X17184349Y-15929674D01*
X17184349Y-15929674D02*
X17203396Y-15920150D01*
X17203396Y-15920150D02*
X17231968Y-15920150D01*
X17231968Y-15920150D02*
X17251016Y-15929674D01*
X17374825Y-16053484D02*
X17355777Y-16043960D01*
X17355777Y-16043960D02*
X17346254Y-16024912D01*
X17346254Y-16024912D02*
X17346254Y-15853484D01*
X17479587Y-16053484D02*
X17460539Y-16043960D01*
X17460539Y-16043960D02*
X17451016Y-16034436D01*
X17451016Y-16034436D02*
X17441492Y-16015388D01*
X17441492Y-16015388D02*
X17441492Y-15958246D01*
X17441492Y-15958246D02*
X17451016Y-15939198D01*
X17451016Y-15939198D02*
X17460539Y-15929674D01*
X17460539Y-15929674D02*
X17479587Y-15920150D01*
X17479587Y-15920150D02*
X17508158Y-15920150D01*
X17508158Y-15920150D02*
X17527206Y-15929674D01*
X17527206Y-15929674D02*
X17536730Y-15939198D01*
X17536730Y-15939198D02*
X17546254Y-15958246D01*
X17546254Y-15958246D02*
X17546254Y-16015388D01*
X17546254Y-16015388D02*
X17536730Y-16034436D01*
X17536730Y-16034436D02*
X17527206Y-16043960D01*
X17527206Y-16043960D02*
X17508158Y-16053484D01*
X17508158Y-16053484D02*
X17479587Y-16053484D01*
X17603397Y-15920150D02*
X17679587Y-15920150D01*
X17631968Y-15853484D02*
X17631968Y-16024912D01*
X17631968Y-16024912D02*
X17641492Y-16043960D01*
X17641492Y-16043960D02*
X17660539Y-16053484D01*
X17660539Y-16053484D02*
X17679587Y-16053484D01*
X17736730Y-16043960D02*
X17755777Y-16053484D01*
X17755777Y-16053484D02*
X17793873Y-16053484D01*
X17793873Y-16053484D02*
X17812920Y-16043960D01*
X17812920Y-16043960D02*
X17822444Y-16024912D01*
X17822444Y-16024912D02*
X17822444Y-16015388D01*
X17822444Y-16015388D02*
X17812920Y-15996341D01*
X17812920Y-15996341D02*
X17793873Y-15986817D01*
X17793873Y-15986817D02*
X17765301Y-15986817D01*
X17765301Y-15986817D02*
X17746254Y-15977293D01*
X17746254Y-15977293D02*
X17736730Y-15958246D01*
X17736730Y-15958246D02*
X17736730Y-15948722D01*
X17736730Y-15948722D02*
X17746254Y-15929674D01*
X17746254Y-15929674D02*
X17765301Y-15920150D01*
X17765301Y-15920150D02*
X17793873Y-15920150D01*
X17793873Y-15920150D02*
X17812920Y-15929674D01*
X17889111Y-16129674D02*
X17898635Y-16120150D01*
X17898635Y-16120150D02*
X17917682Y-16091579D01*
X17917682Y-16091579D02*
X17927206Y-16072531D01*
X17927206Y-16072531D02*
X17936730Y-16043960D01*
X17936730Y-16043960D02*
X17946254Y-15996341D01*
X17946254Y-15996341D02*
X17946254Y-15958246D01*
X17946254Y-15958246D02*
X17936730Y-15910627D01*
X17936730Y-15910627D02*
X17927206Y-15882055D01*
X17927206Y-15882055D02*
X17917682Y-15863008D01*
X17917682Y-15863008D02*
X17898635Y-15834436D01*
X17898635Y-15834436D02*
X17889111Y-15824912D01*
D14*
X11406000Y-16315000D02*
X11495000Y-16226000D01*
X11406000Y-16137000D01*
X11317000Y-16226000D01*
X11406000Y-16315000D01*
D11*
X11860539Y-16317484D02*
X11746253Y-16317484D01*
X11803396Y-16317484D02*
X11803396Y-16117484D01*
X11803396Y-16117484D02*
X11784348Y-16146055D01*
X11784348Y-16146055D02*
X11765301Y-16165103D01*
X11765301Y-16165103D02*
X11746253Y-16174627D01*
X11946253Y-16298436D02*
X11955777Y-16307960D01*
X11955777Y-16307960D02*
X11946253Y-16317484D01*
X11946253Y-16317484D02*
X11936729Y-16307960D01*
X11936729Y-16307960D02*
X11946253Y-16298436D01*
X11946253Y-16298436D02*
X11946253Y-16317484D01*
X12022443Y-16117484D02*
X12155777Y-16117484D01*
X12155777Y-16117484D02*
X12070062Y-16317484D01*
X12260539Y-16203198D02*
X12241491Y-16193674D01*
X12241491Y-16193674D02*
X12231967Y-16184150D01*
X12231967Y-16184150D02*
X12222443Y-16165103D01*
X12222443Y-16165103D02*
X12222443Y-16155579D01*
X12222443Y-16155579D02*
X12231967Y-16136531D01*
X12231967Y-16136531D02*
X12241491Y-16127008D01*
X12241491Y-16127008D02*
X12260539Y-16117484D01*
X12260539Y-16117484D02*
X12298634Y-16117484D01*
X12298634Y-16117484D02*
X12317682Y-16127008D01*
X12317682Y-16127008D02*
X12327205Y-16136531D01*
X12327205Y-16136531D02*
X12336729Y-16155579D01*
X12336729Y-16155579D02*
X12336729Y-16165103D01*
X12336729Y-16165103D02*
X12327205Y-16184150D01*
X12327205Y-16184150D02*
X12317682Y-16193674D01*
X12317682Y-16193674D02*
X12298634Y-16203198D01*
X12298634Y-16203198D02*
X12260539Y-16203198D01*
X12260539Y-16203198D02*
X12241491Y-16212722D01*
X12241491Y-16212722D02*
X12231967Y-16222246D01*
X12231967Y-16222246D02*
X12222443Y-16241293D01*
X12222443Y-16241293D02*
X12222443Y-16279388D01*
X12222443Y-16279388D02*
X12231967Y-16298436D01*
X12231967Y-16298436D02*
X12241491Y-16307960D01*
X12241491Y-16307960D02*
X12260539Y-16317484D01*
X12260539Y-16317484D02*
X12298634Y-16317484D01*
X12298634Y-16317484D02*
X12317682Y-16307960D01*
X12317682Y-16307960D02*
X12327205Y-16298436D01*
X12327205Y-16298436D02*
X12336729Y-16279388D01*
X12336729Y-16279388D02*
X12336729Y-16241293D01*
X12336729Y-16241293D02*
X12327205Y-16222246D01*
X12327205Y-16222246D02*
X12317682Y-16212722D01*
X12317682Y-16212722D02*
X12298634Y-16203198D01*
X12460539Y-16117484D02*
X12479586Y-16117484D01*
X12479586Y-16117484D02*
X12498634Y-16127008D01*
X12498634Y-16127008D02*
X12508158Y-16136531D01*
X12508158Y-16136531D02*
X12517682Y-16155579D01*
X12517682Y-16155579D02*
X12527205Y-16193674D01*
X12527205Y-16193674D02*
X12527205Y-16241293D01*
X12527205Y-16241293D02*
X12517682Y-16279388D01*
X12517682Y-16279388D02*
X12508158Y-16298436D01*
X12508158Y-16298436D02*
X12498634Y-16307960D01*
X12498634Y-16307960D02*
X12479586Y-16317484D01*
X12479586Y-16317484D02*
X12460539Y-16317484D01*
X12460539Y-16317484D02*
X12441491Y-16307960D01*
X12441491Y-16307960D02*
X12431967Y-16298436D01*
X12431967Y-16298436D02*
X12422443Y-16279388D01*
X12422443Y-16279388D02*
X12412920Y-16241293D01*
X12412920Y-16241293D02*
X12412920Y-16193674D01*
X12412920Y-16193674D02*
X12422443Y-16155579D01*
X12422443Y-16155579D02*
X12431967Y-16136531D01*
X12431967Y-16136531D02*
X12441491Y-16127008D01*
X12441491Y-16127008D02*
X12460539Y-16117484D01*
X12612920Y-16317484D02*
X12612920Y-16184150D01*
X12612920Y-16203198D02*
X12622443Y-16193674D01*
X12622443Y-16193674D02*
X12641491Y-16184150D01*
X12641491Y-16184150D02*
X12670063Y-16184150D01*
X12670063Y-16184150D02*
X12689110Y-16193674D01*
X12689110Y-16193674D02*
X12698634Y-16212722D01*
X12698634Y-16212722D02*
X12698634Y-16317484D01*
X12698634Y-16212722D02*
X12708158Y-16193674D01*
X12708158Y-16193674D02*
X12727205Y-16184150D01*
X12727205Y-16184150D02*
X12755777Y-16184150D01*
X12755777Y-16184150D02*
X12774824Y-16193674D01*
X12774824Y-16193674D02*
X12784348Y-16212722D01*
X12784348Y-16212722D02*
X12784348Y-16317484D01*
X12879586Y-16317484D02*
X12879586Y-16184150D01*
X12879586Y-16203198D02*
X12889110Y-16193674D01*
X12889110Y-16193674D02*
X12908158Y-16184150D01*
X12908158Y-16184150D02*
X12936729Y-16184150D01*
X12936729Y-16184150D02*
X12955777Y-16193674D01*
X12955777Y-16193674D02*
X12965301Y-16212722D01*
X12965301Y-16212722D02*
X12965301Y-16317484D01*
X12965301Y-16212722D02*
X12974824Y-16193674D01*
X12974824Y-16193674D02*
X12993872Y-16184150D01*
X12993872Y-16184150D02*
X13022443Y-16184150D01*
X13022443Y-16184150D02*
X13041491Y-16193674D01*
X13041491Y-16193674D02*
X13051015Y-16212722D01*
X13051015Y-16212722D02*
X13051015Y-16317484D01*
X13441491Y-16107960D02*
X13270063Y-16365103D01*
X13698634Y-16117484D02*
X13717682Y-16117484D01*
X13717682Y-16117484D02*
X13736729Y-16127008D01*
X13736729Y-16127008D02*
X13746253Y-16136531D01*
X13746253Y-16136531D02*
X13755777Y-16155579D01*
X13755777Y-16155579D02*
X13765301Y-16193674D01*
X13765301Y-16193674D02*
X13765301Y-16241293D01*
X13765301Y-16241293D02*
X13755777Y-16279388D01*
X13755777Y-16279388D02*
X13746253Y-16298436D01*
X13746253Y-16298436D02*
X13736729Y-16307960D01*
X13736729Y-16307960D02*
X13717682Y-16317484D01*
X13717682Y-16317484D02*
X13698634Y-16317484D01*
X13698634Y-16317484D02*
X13679586Y-16307960D01*
X13679586Y-16307960D02*
X13670063Y-16298436D01*
X13670063Y-16298436D02*
X13660539Y-16279388D01*
X13660539Y-16279388D02*
X13651015Y-16241293D01*
X13651015Y-16241293D02*
X13651015Y-16193674D01*
X13651015Y-16193674D02*
X13660539Y-16155579D01*
X13660539Y-16155579D02*
X13670063Y-16136531D01*
X13670063Y-16136531D02*
X13679586Y-16127008D01*
X13679586Y-16127008D02*
X13698634Y-16117484D01*
X13851015Y-16298436D02*
X13860539Y-16307960D01*
X13860539Y-16307960D02*
X13851015Y-16317484D01*
X13851015Y-16317484D02*
X13841491Y-16307960D01*
X13841491Y-16307960D02*
X13851015Y-16298436D01*
X13851015Y-16298436D02*
X13851015Y-16317484D01*
X13984348Y-16117484D02*
X14003396Y-16117484D01*
X14003396Y-16117484D02*
X14022444Y-16127008D01*
X14022444Y-16127008D02*
X14031967Y-16136531D01*
X14031967Y-16136531D02*
X14041491Y-16155579D01*
X14041491Y-16155579D02*
X14051015Y-16193674D01*
X14051015Y-16193674D02*
X14051015Y-16241293D01*
X14051015Y-16241293D02*
X14041491Y-16279388D01*
X14041491Y-16279388D02*
X14031967Y-16298436D01*
X14031967Y-16298436D02*
X14022444Y-16307960D01*
X14022444Y-16307960D02*
X14003396Y-16317484D01*
X14003396Y-16317484D02*
X13984348Y-16317484D01*
X13984348Y-16317484D02*
X13965301Y-16307960D01*
X13965301Y-16307960D02*
X13955777Y-16298436D01*
X13955777Y-16298436D02*
X13946253Y-16279388D01*
X13946253Y-16279388D02*
X13936729Y-16241293D01*
X13936729Y-16241293D02*
X13936729Y-16193674D01*
X13936729Y-16193674D02*
X13946253Y-16155579D01*
X13946253Y-16155579D02*
X13955777Y-16136531D01*
X13955777Y-16136531D02*
X13965301Y-16127008D01*
X13965301Y-16127008D02*
X13984348Y-16117484D01*
X14117682Y-16117484D02*
X14251015Y-16117484D01*
X14251015Y-16117484D02*
X14165301Y-16317484D01*
X14365301Y-16117484D02*
X14384348Y-16117484D01*
X14384348Y-16117484D02*
X14403396Y-16127008D01*
X14403396Y-16127008D02*
X14412920Y-16136531D01*
X14412920Y-16136531D02*
X14422444Y-16155579D01*
X14422444Y-16155579D02*
X14431967Y-16193674D01*
X14431967Y-16193674D02*
X14431967Y-16241293D01*
X14431967Y-16241293D02*
X14422444Y-16279388D01*
X14422444Y-16279388D02*
X14412920Y-16298436D01*
X14412920Y-16298436D02*
X14403396Y-16307960D01*
X14403396Y-16307960D02*
X14384348Y-16317484D01*
X14384348Y-16317484D02*
X14365301Y-16317484D01*
X14365301Y-16317484D02*
X14346253Y-16307960D01*
X14346253Y-16307960D02*
X14336729Y-16298436D01*
X14336729Y-16298436D02*
X14327206Y-16279388D01*
X14327206Y-16279388D02*
X14317682Y-16241293D01*
X14317682Y-16241293D02*
X14317682Y-16193674D01*
X14317682Y-16193674D02*
X14327206Y-16155579D01*
X14327206Y-16155579D02*
X14336729Y-16136531D01*
X14336729Y-16136531D02*
X14346253Y-16127008D01*
X14346253Y-16127008D02*
X14365301Y-16117484D01*
X14622444Y-16317484D02*
X14508158Y-16317484D01*
X14565301Y-16317484D02*
X14565301Y-16117484D01*
X14565301Y-16117484D02*
X14546253Y-16146055D01*
X14546253Y-16146055D02*
X14527206Y-16165103D01*
X14527206Y-16165103D02*
X14508158Y-16174627D01*
X14698634Y-16117484D02*
X14698634Y-16155579D01*
X14774825Y-16117484D02*
X14774825Y-16155579D01*
X15070063Y-16393674D02*
X15060539Y-16384150D01*
X15060539Y-16384150D02*
X15041491Y-16355579D01*
X15041491Y-16355579D02*
X15031968Y-16336531D01*
X15031968Y-16336531D02*
X15022444Y-16307960D01*
X15022444Y-16307960D02*
X15012920Y-16260341D01*
X15012920Y-16260341D02*
X15012920Y-16222246D01*
X15012920Y-16222246D02*
X15022444Y-16174627D01*
X15022444Y-16174627D02*
X15031968Y-16146055D01*
X15031968Y-16146055D02*
X15041491Y-16127008D01*
X15041491Y-16127008D02*
X15060539Y-16098436D01*
X15060539Y-16098436D02*
X15070063Y-16088912D01*
X15231968Y-16184150D02*
X15231968Y-16317484D01*
X15184348Y-16107960D02*
X15136729Y-16250817D01*
X15136729Y-16250817D02*
X15260539Y-16250817D01*
X15489110Y-16317484D02*
X15489110Y-16117484D01*
X15574825Y-16317484D02*
X15574825Y-16212722D01*
X15574825Y-16212722D02*
X15565301Y-16193674D01*
X15565301Y-16193674D02*
X15546253Y-16184150D01*
X15546253Y-16184150D02*
X15517682Y-16184150D01*
X15517682Y-16184150D02*
X15498634Y-16193674D01*
X15498634Y-16193674D02*
X15489110Y-16203198D01*
X15698634Y-16317484D02*
X15679587Y-16307960D01*
X15679587Y-16307960D02*
X15670063Y-16298436D01*
X15670063Y-16298436D02*
X15660539Y-16279388D01*
X15660539Y-16279388D02*
X15660539Y-16222246D01*
X15660539Y-16222246D02*
X15670063Y-16203198D01*
X15670063Y-16203198D02*
X15679587Y-16193674D01*
X15679587Y-16193674D02*
X15698634Y-16184150D01*
X15698634Y-16184150D02*
X15727206Y-16184150D01*
X15727206Y-16184150D02*
X15746253Y-16193674D01*
X15746253Y-16193674D02*
X15755777Y-16203198D01*
X15755777Y-16203198D02*
X15765301Y-16222246D01*
X15765301Y-16222246D02*
X15765301Y-16279388D01*
X15765301Y-16279388D02*
X15755777Y-16298436D01*
X15755777Y-16298436D02*
X15746253Y-16307960D01*
X15746253Y-16307960D02*
X15727206Y-16317484D01*
X15727206Y-16317484D02*
X15698634Y-16317484D01*
X15879587Y-16317484D02*
X15860539Y-16307960D01*
X15860539Y-16307960D02*
X15851015Y-16288912D01*
X15851015Y-16288912D02*
X15851015Y-16117484D01*
X16031968Y-16307960D02*
X16012920Y-16317484D01*
X16012920Y-16317484D02*
X15974825Y-16317484D01*
X15974825Y-16317484D02*
X15955777Y-16307960D01*
X15955777Y-16307960D02*
X15946253Y-16288912D01*
X15946253Y-16288912D02*
X15946253Y-16212722D01*
X15946253Y-16212722D02*
X15955777Y-16193674D01*
X15955777Y-16193674D02*
X15974825Y-16184150D01*
X15974825Y-16184150D02*
X16012920Y-16184150D01*
X16012920Y-16184150D02*
X16031968Y-16193674D01*
X16031968Y-16193674D02*
X16041491Y-16212722D01*
X16041491Y-16212722D02*
X16041491Y-16231769D01*
X16041491Y-16231769D02*
X15946253Y-16250817D01*
X16117682Y-16307960D02*
X16136730Y-16317484D01*
X16136730Y-16317484D02*
X16174825Y-16317484D01*
X16174825Y-16317484D02*
X16193872Y-16307960D01*
X16193872Y-16307960D02*
X16203396Y-16288912D01*
X16203396Y-16288912D02*
X16203396Y-16279388D01*
X16203396Y-16279388D02*
X16193872Y-16260341D01*
X16193872Y-16260341D02*
X16174825Y-16250817D01*
X16174825Y-16250817D02*
X16146253Y-16250817D01*
X16146253Y-16250817D02*
X16127206Y-16241293D01*
X16127206Y-16241293D02*
X16117682Y-16222246D01*
X16117682Y-16222246D02*
X16117682Y-16212722D01*
X16117682Y-16212722D02*
X16127206Y-16193674D01*
X16127206Y-16193674D02*
X16146253Y-16184150D01*
X16146253Y-16184150D02*
X16174825Y-16184150D01*
X16174825Y-16184150D02*
X16193872Y-16193674D01*
X16270063Y-16393674D02*
X16279587Y-16384150D01*
X16279587Y-16384150D02*
X16298634Y-16355579D01*
X16298634Y-16355579D02*
X16308158Y-16336531D01*
X16308158Y-16336531D02*
X16317682Y-16307960D01*
X16317682Y-16307960D02*
X16327206Y-16260341D01*
X16327206Y-16260341D02*
X16327206Y-16222246D01*
X16327206Y-16222246D02*
X16317682Y-16174627D01*
X16317682Y-16174627D02*
X16308158Y-16146055D01*
X16308158Y-16146055D02*
X16298634Y-16127008D01*
X16298634Y-16127008D02*
X16279587Y-16098436D01*
X16279587Y-16098436D02*
X16270063Y-16088912D01*
X11295000Y-16424000D02*
X11495000Y-16624000D01*
X11495000Y-16424000D02*
X11295000Y-16624000D01*
X11495000Y-16524000D02*
G75*
G02*
X11295000Y-16524000I-100000J0D01*
G01*
X11295000Y-16524000D02*
G75*
G02*
X11495000Y-16524000I100000J0D01*
G01*
X11736729Y-16415484D02*
X11860539Y-16415484D01*
X11860539Y-16415484D02*
X11793872Y-16491674D01*
X11793872Y-16491674D02*
X11822443Y-16491674D01*
X11822443Y-16491674D02*
X11841491Y-16501198D01*
X11841491Y-16501198D02*
X11851015Y-16510722D01*
X11851015Y-16510722D02*
X11860539Y-16529769D01*
X11860539Y-16529769D02*
X11860539Y-16577388D01*
X11860539Y-16577388D02*
X11851015Y-16596436D01*
X11851015Y-16596436D02*
X11841491Y-16605960D01*
X11841491Y-16605960D02*
X11822443Y-16615484D01*
X11822443Y-16615484D02*
X11765301Y-16615484D01*
X11765301Y-16615484D02*
X11746253Y-16605960D01*
X11746253Y-16605960D02*
X11736729Y-16596436D01*
X11946253Y-16596436D02*
X11955777Y-16605960D01*
X11955777Y-16605960D02*
X11946253Y-16615484D01*
X11946253Y-16615484D02*
X11936729Y-16605960D01*
X11936729Y-16605960D02*
X11946253Y-16596436D01*
X11946253Y-16596436D02*
X11946253Y-16615484D01*
X12079586Y-16415484D02*
X12098634Y-16415484D01*
X12098634Y-16415484D02*
X12117682Y-16425008D01*
X12117682Y-16425008D02*
X12127205Y-16434531D01*
X12127205Y-16434531D02*
X12136729Y-16453579D01*
X12136729Y-16453579D02*
X12146253Y-16491674D01*
X12146253Y-16491674D02*
X12146253Y-16539293D01*
X12146253Y-16539293D02*
X12136729Y-16577388D01*
X12136729Y-16577388D02*
X12127205Y-16596436D01*
X12127205Y-16596436D02*
X12117682Y-16605960D01*
X12117682Y-16605960D02*
X12098634Y-16615484D01*
X12098634Y-16615484D02*
X12079586Y-16615484D01*
X12079586Y-16615484D02*
X12060539Y-16605960D01*
X12060539Y-16605960D02*
X12051015Y-16596436D01*
X12051015Y-16596436D02*
X12041491Y-16577388D01*
X12041491Y-16577388D02*
X12031967Y-16539293D01*
X12031967Y-16539293D02*
X12031967Y-16491674D01*
X12031967Y-16491674D02*
X12041491Y-16453579D01*
X12041491Y-16453579D02*
X12051015Y-16434531D01*
X12051015Y-16434531D02*
X12060539Y-16425008D01*
X12060539Y-16425008D02*
X12079586Y-16415484D01*
X12270062Y-16415484D02*
X12289110Y-16415484D01*
X12289110Y-16415484D02*
X12308158Y-16425008D01*
X12308158Y-16425008D02*
X12317682Y-16434531D01*
X12317682Y-16434531D02*
X12327205Y-16453579D01*
X12327205Y-16453579D02*
X12336729Y-16491674D01*
X12336729Y-16491674D02*
X12336729Y-16539293D01*
X12336729Y-16539293D02*
X12327205Y-16577388D01*
X12327205Y-16577388D02*
X12317682Y-16596436D01*
X12317682Y-16596436D02*
X12308158Y-16605960D01*
X12308158Y-16605960D02*
X12289110Y-16615484D01*
X12289110Y-16615484D02*
X12270062Y-16615484D01*
X12270062Y-16615484D02*
X12251015Y-16605960D01*
X12251015Y-16605960D02*
X12241491Y-16596436D01*
X12241491Y-16596436D02*
X12231967Y-16577388D01*
X12231967Y-16577388D02*
X12222443Y-16539293D01*
X12222443Y-16539293D02*
X12222443Y-16491674D01*
X12222443Y-16491674D02*
X12231967Y-16453579D01*
X12231967Y-16453579D02*
X12241491Y-16434531D01*
X12241491Y-16434531D02*
X12251015Y-16425008D01*
X12251015Y-16425008D02*
X12270062Y-16415484D01*
X12460539Y-16415484D02*
X12479586Y-16415484D01*
X12479586Y-16415484D02*
X12498634Y-16425008D01*
X12498634Y-16425008D02*
X12508158Y-16434531D01*
X12508158Y-16434531D02*
X12517682Y-16453579D01*
X12517682Y-16453579D02*
X12527205Y-16491674D01*
X12527205Y-16491674D02*
X12527205Y-16539293D01*
X12527205Y-16539293D02*
X12517682Y-16577388D01*
X12517682Y-16577388D02*
X12508158Y-16596436D01*
X12508158Y-16596436D02*
X12498634Y-16605960D01*
X12498634Y-16605960D02*
X12479586Y-16615484D01*
X12479586Y-16615484D02*
X12460539Y-16615484D01*
X12460539Y-16615484D02*
X12441491Y-16605960D01*
X12441491Y-16605960D02*
X12431967Y-16596436D01*
X12431967Y-16596436D02*
X12422443Y-16577388D01*
X12422443Y-16577388D02*
X12412920Y-16539293D01*
X12412920Y-16539293D02*
X12412920Y-16491674D01*
X12412920Y-16491674D02*
X12422443Y-16453579D01*
X12422443Y-16453579D02*
X12431967Y-16434531D01*
X12431967Y-16434531D02*
X12441491Y-16425008D01*
X12441491Y-16425008D02*
X12460539Y-16415484D01*
X12612920Y-16615484D02*
X12612920Y-16482150D01*
X12612920Y-16501198D02*
X12622443Y-16491674D01*
X12622443Y-16491674D02*
X12641491Y-16482150D01*
X12641491Y-16482150D02*
X12670063Y-16482150D01*
X12670063Y-16482150D02*
X12689110Y-16491674D01*
X12689110Y-16491674D02*
X12698634Y-16510722D01*
X12698634Y-16510722D02*
X12698634Y-16615484D01*
X12698634Y-16510722D02*
X12708158Y-16491674D01*
X12708158Y-16491674D02*
X12727205Y-16482150D01*
X12727205Y-16482150D02*
X12755777Y-16482150D01*
X12755777Y-16482150D02*
X12774824Y-16491674D01*
X12774824Y-16491674D02*
X12784348Y-16510722D01*
X12784348Y-16510722D02*
X12784348Y-16615484D01*
X12879586Y-16615484D02*
X12879586Y-16482150D01*
X12879586Y-16501198D02*
X12889110Y-16491674D01*
X12889110Y-16491674D02*
X12908158Y-16482150D01*
X12908158Y-16482150D02*
X12936729Y-16482150D01*
X12936729Y-16482150D02*
X12955777Y-16491674D01*
X12955777Y-16491674D02*
X12965301Y-16510722D01*
X12965301Y-16510722D02*
X12965301Y-16615484D01*
X12965301Y-16510722D02*
X12974824Y-16491674D01*
X12974824Y-16491674D02*
X12993872Y-16482150D01*
X12993872Y-16482150D02*
X13022443Y-16482150D01*
X13022443Y-16482150D02*
X13041491Y-16491674D01*
X13041491Y-16491674D02*
X13051015Y-16510722D01*
X13051015Y-16510722D02*
X13051015Y-16615484D01*
X13441491Y-16405960D02*
X13270063Y-16663103D01*
X13698634Y-16415484D02*
X13717682Y-16415484D01*
X13717682Y-16415484D02*
X13736729Y-16425008D01*
X13736729Y-16425008D02*
X13746253Y-16434531D01*
X13746253Y-16434531D02*
X13755777Y-16453579D01*
X13755777Y-16453579D02*
X13765301Y-16491674D01*
X13765301Y-16491674D02*
X13765301Y-16539293D01*
X13765301Y-16539293D02*
X13755777Y-16577388D01*
X13755777Y-16577388D02*
X13746253Y-16596436D01*
X13746253Y-16596436D02*
X13736729Y-16605960D01*
X13736729Y-16605960D02*
X13717682Y-16615484D01*
X13717682Y-16615484D02*
X13698634Y-16615484D01*
X13698634Y-16615484D02*
X13679586Y-16605960D01*
X13679586Y-16605960D02*
X13670063Y-16596436D01*
X13670063Y-16596436D02*
X13660539Y-16577388D01*
X13660539Y-16577388D02*
X13651015Y-16539293D01*
X13651015Y-16539293D02*
X13651015Y-16491674D01*
X13651015Y-16491674D02*
X13660539Y-16453579D01*
X13660539Y-16453579D02*
X13670063Y-16434531D01*
X13670063Y-16434531D02*
X13679586Y-16425008D01*
X13679586Y-16425008D02*
X13698634Y-16415484D01*
X13851015Y-16596436D02*
X13860539Y-16605960D01*
X13860539Y-16605960D02*
X13851015Y-16615484D01*
X13851015Y-16615484D02*
X13841491Y-16605960D01*
X13841491Y-16605960D02*
X13851015Y-16596436D01*
X13851015Y-16596436D02*
X13851015Y-16615484D01*
X14051015Y-16615484D02*
X13936729Y-16615484D01*
X13993872Y-16615484D02*
X13993872Y-16415484D01*
X13993872Y-16415484D02*
X13974825Y-16444055D01*
X13974825Y-16444055D02*
X13955777Y-16463103D01*
X13955777Y-16463103D02*
X13936729Y-16472627D01*
X14241491Y-16615484D02*
X14127206Y-16615484D01*
X14184348Y-16615484D02*
X14184348Y-16415484D01*
X14184348Y-16415484D02*
X14165301Y-16444055D01*
X14165301Y-16444055D02*
X14146253Y-16463103D01*
X14146253Y-16463103D02*
X14127206Y-16472627D01*
X14355777Y-16501198D02*
X14336729Y-16491674D01*
X14336729Y-16491674D02*
X14327206Y-16482150D01*
X14327206Y-16482150D02*
X14317682Y-16463103D01*
X14317682Y-16463103D02*
X14317682Y-16453579D01*
X14317682Y-16453579D02*
X14327206Y-16434531D01*
X14327206Y-16434531D02*
X14336729Y-16425008D01*
X14336729Y-16425008D02*
X14355777Y-16415484D01*
X14355777Y-16415484D02*
X14393872Y-16415484D01*
X14393872Y-16415484D02*
X14412920Y-16425008D01*
X14412920Y-16425008D02*
X14422444Y-16434531D01*
X14422444Y-16434531D02*
X14431967Y-16453579D01*
X14431967Y-16453579D02*
X14431967Y-16463103D01*
X14431967Y-16463103D02*
X14422444Y-16482150D01*
X14422444Y-16482150D02*
X14412920Y-16491674D01*
X14412920Y-16491674D02*
X14393872Y-16501198D01*
X14393872Y-16501198D02*
X14355777Y-16501198D01*
X14355777Y-16501198D02*
X14336729Y-16510722D01*
X14336729Y-16510722D02*
X14327206Y-16520246D01*
X14327206Y-16520246D02*
X14317682Y-16539293D01*
X14317682Y-16539293D02*
X14317682Y-16577388D01*
X14317682Y-16577388D02*
X14327206Y-16596436D01*
X14327206Y-16596436D02*
X14336729Y-16605960D01*
X14336729Y-16605960D02*
X14355777Y-16615484D01*
X14355777Y-16615484D02*
X14393872Y-16615484D01*
X14393872Y-16615484D02*
X14412920Y-16605960D01*
X14412920Y-16605960D02*
X14422444Y-16596436D01*
X14422444Y-16596436D02*
X14431967Y-16577388D01*
X14431967Y-16577388D02*
X14431967Y-16539293D01*
X14431967Y-16539293D02*
X14422444Y-16520246D01*
X14422444Y-16520246D02*
X14412920Y-16510722D01*
X14412920Y-16510722D02*
X14393872Y-16501198D01*
X14622444Y-16615484D02*
X14508158Y-16615484D01*
X14565301Y-16615484D02*
X14565301Y-16415484D01*
X14565301Y-16415484D02*
X14546253Y-16444055D01*
X14546253Y-16444055D02*
X14527206Y-16463103D01*
X14527206Y-16463103D02*
X14508158Y-16472627D01*
X14698634Y-16415484D02*
X14698634Y-16453579D01*
X14774825Y-16415484D02*
X14774825Y-16453579D01*
X15070063Y-16691674D02*
X15060539Y-16682150D01*
X15060539Y-16682150D02*
X15041491Y-16653579D01*
X15041491Y-16653579D02*
X15031968Y-16634531D01*
X15031968Y-16634531D02*
X15022444Y-16605960D01*
X15022444Y-16605960D02*
X15012920Y-16558341D01*
X15012920Y-16558341D02*
X15012920Y-16520246D01*
X15012920Y-16520246D02*
X15022444Y-16472627D01*
X15022444Y-16472627D02*
X15031968Y-16444055D01*
X15031968Y-16444055D02*
X15041491Y-16425008D01*
X15041491Y-16425008D02*
X15060539Y-16396436D01*
X15060539Y-16396436D02*
X15070063Y-16386912D01*
X15231968Y-16482150D02*
X15231968Y-16615484D01*
X15184348Y-16405960D02*
X15136729Y-16548817D01*
X15136729Y-16548817D02*
X15260539Y-16548817D01*
X15489110Y-16615484D02*
X15489110Y-16415484D01*
X15574825Y-16615484D02*
X15574825Y-16510722D01*
X15574825Y-16510722D02*
X15565301Y-16491674D01*
X15565301Y-16491674D02*
X15546253Y-16482150D01*
X15546253Y-16482150D02*
X15517682Y-16482150D01*
X15517682Y-16482150D02*
X15498634Y-16491674D01*
X15498634Y-16491674D02*
X15489110Y-16501198D01*
X15698634Y-16615484D02*
X15679587Y-16605960D01*
X15679587Y-16605960D02*
X15670063Y-16596436D01*
X15670063Y-16596436D02*
X15660539Y-16577388D01*
X15660539Y-16577388D02*
X15660539Y-16520246D01*
X15660539Y-16520246D02*
X15670063Y-16501198D01*
X15670063Y-16501198D02*
X15679587Y-16491674D01*
X15679587Y-16491674D02*
X15698634Y-16482150D01*
X15698634Y-16482150D02*
X15727206Y-16482150D01*
X15727206Y-16482150D02*
X15746253Y-16491674D01*
X15746253Y-16491674D02*
X15755777Y-16501198D01*
X15755777Y-16501198D02*
X15765301Y-16520246D01*
X15765301Y-16520246D02*
X15765301Y-16577388D01*
X15765301Y-16577388D02*
X15755777Y-16596436D01*
X15755777Y-16596436D02*
X15746253Y-16605960D01*
X15746253Y-16605960D02*
X15727206Y-16615484D01*
X15727206Y-16615484D02*
X15698634Y-16615484D01*
X15879587Y-16615484D02*
X15860539Y-16605960D01*
X15860539Y-16605960D02*
X15851015Y-16586912D01*
X15851015Y-16586912D02*
X15851015Y-16415484D01*
X16031968Y-16605960D02*
X16012920Y-16615484D01*
X16012920Y-16615484D02*
X15974825Y-16615484D01*
X15974825Y-16615484D02*
X15955777Y-16605960D01*
X15955777Y-16605960D02*
X15946253Y-16586912D01*
X15946253Y-16586912D02*
X15946253Y-16510722D01*
X15946253Y-16510722D02*
X15955777Y-16491674D01*
X15955777Y-16491674D02*
X15974825Y-16482150D01*
X15974825Y-16482150D02*
X16012920Y-16482150D01*
X16012920Y-16482150D02*
X16031968Y-16491674D01*
X16031968Y-16491674D02*
X16041491Y-16510722D01*
X16041491Y-16510722D02*
X16041491Y-16529769D01*
X16041491Y-16529769D02*
X15946253Y-16548817D01*
X16117682Y-16605960D02*
X16136730Y-16615484D01*
X16136730Y-16615484D02*
X16174825Y-16615484D01*
X16174825Y-16615484D02*
X16193872Y-16605960D01*
X16193872Y-16605960D02*
X16203396Y-16586912D01*
X16203396Y-16586912D02*
X16203396Y-16577388D01*
X16203396Y-16577388D02*
X16193872Y-16558341D01*
X16193872Y-16558341D02*
X16174825Y-16548817D01*
X16174825Y-16548817D02*
X16146253Y-16548817D01*
X16146253Y-16548817D02*
X16127206Y-16539293D01*
X16127206Y-16539293D02*
X16117682Y-16520246D01*
X16117682Y-16520246D02*
X16117682Y-16510722D01*
X16117682Y-16510722D02*
X16127206Y-16491674D01*
X16127206Y-16491674D02*
X16146253Y-16482150D01*
X16146253Y-16482150D02*
X16174825Y-16482150D01*
X16174825Y-16482150D02*
X16193872Y-16491674D01*
X16270063Y-16691674D02*
X16279587Y-16682150D01*
X16279587Y-16682150D02*
X16298634Y-16653579D01*
X16298634Y-16653579D02*
X16308158Y-16634531D01*
X16308158Y-16634531D02*
X16317682Y-16605960D01*
X16317682Y-16605960D02*
X16327206Y-16558341D01*
X16327206Y-16558341D02*
X16327206Y-16520246D01*
X16327206Y-16520246D02*
X16317682Y-16472627D01*
X16317682Y-16472627D02*
X16308158Y-16444055D01*
X16308158Y-16444055D02*
X16298634Y-16425008D01*
X16298634Y-16425008D02*
X16279587Y-16396436D01*
X16279587Y-16396436D02*
X16270063Y-16386912D01*
X11295000Y-16744000D02*
X11495000Y-16944000D01*
X11495000Y-16744000D02*
X11295000Y-16944000D01*
X11395000Y-16744000D02*
X11395000Y-16944000D01*
X11295000Y-16844000D02*
X11495000Y-16844000D01*
X11841491Y-16802150D02*
X11841491Y-16935484D01*
X11793872Y-16725960D02*
X11746253Y-16868817D01*
X11746253Y-16868817D02*
X11870062Y-16868817D01*
X11946253Y-16916436D02*
X11955777Y-16925960D01*
X11955777Y-16925960D02*
X11946253Y-16935484D01*
X11946253Y-16935484D02*
X11936729Y-16925960D01*
X11936729Y-16925960D02*
X11946253Y-16916436D01*
X11946253Y-16916436D02*
X11946253Y-16935484D01*
X12136729Y-16735484D02*
X12041491Y-16735484D01*
X12041491Y-16735484D02*
X12031967Y-16830722D01*
X12031967Y-16830722D02*
X12041491Y-16821198D01*
X12041491Y-16821198D02*
X12060539Y-16811674D01*
X12060539Y-16811674D02*
X12108158Y-16811674D01*
X12108158Y-16811674D02*
X12127205Y-16821198D01*
X12127205Y-16821198D02*
X12136729Y-16830722D01*
X12136729Y-16830722D02*
X12146253Y-16849770D01*
X12146253Y-16849770D02*
X12146253Y-16897389D01*
X12146253Y-16897389D02*
X12136729Y-16916436D01*
X12136729Y-16916436D02*
X12127205Y-16925960D01*
X12127205Y-16925960D02*
X12108158Y-16935484D01*
X12108158Y-16935484D02*
X12060539Y-16935484D01*
X12060539Y-16935484D02*
X12041491Y-16925960D01*
X12041491Y-16925960D02*
X12031967Y-16916436D01*
X12212920Y-16735484D02*
X12346253Y-16735484D01*
X12346253Y-16735484D02*
X12260539Y-16935484D01*
X12460539Y-16735484D02*
X12479586Y-16735484D01*
X12479586Y-16735484D02*
X12498634Y-16745008D01*
X12498634Y-16745008D02*
X12508158Y-16754531D01*
X12508158Y-16754531D02*
X12517682Y-16773579D01*
X12517682Y-16773579D02*
X12527205Y-16811674D01*
X12527205Y-16811674D02*
X12527205Y-16859293D01*
X12527205Y-16859293D02*
X12517682Y-16897389D01*
X12517682Y-16897389D02*
X12508158Y-16916436D01*
X12508158Y-16916436D02*
X12498634Y-16925960D01*
X12498634Y-16925960D02*
X12479586Y-16935484D01*
X12479586Y-16935484D02*
X12460539Y-16935484D01*
X12460539Y-16935484D02*
X12441491Y-16925960D01*
X12441491Y-16925960D02*
X12431967Y-16916436D01*
X12431967Y-16916436D02*
X12422443Y-16897389D01*
X12422443Y-16897389D02*
X12412920Y-16859293D01*
X12412920Y-16859293D02*
X12412920Y-16811674D01*
X12412920Y-16811674D02*
X12422443Y-16773579D01*
X12422443Y-16773579D02*
X12431967Y-16754531D01*
X12431967Y-16754531D02*
X12441491Y-16745008D01*
X12441491Y-16745008D02*
X12460539Y-16735484D01*
X12612920Y-16935484D02*
X12612920Y-16802150D01*
X12612920Y-16821198D02*
X12622443Y-16811674D01*
X12622443Y-16811674D02*
X12641491Y-16802150D01*
X12641491Y-16802150D02*
X12670063Y-16802150D01*
X12670063Y-16802150D02*
X12689110Y-16811674D01*
X12689110Y-16811674D02*
X12698634Y-16830722D01*
X12698634Y-16830722D02*
X12698634Y-16935484D01*
X12698634Y-16830722D02*
X12708158Y-16811674D01*
X12708158Y-16811674D02*
X12727205Y-16802150D01*
X12727205Y-16802150D02*
X12755777Y-16802150D01*
X12755777Y-16802150D02*
X12774824Y-16811674D01*
X12774824Y-16811674D02*
X12784348Y-16830722D01*
X12784348Y-16830722D02*
X12784348Y-16935484D01*
X12879586Y-16935484D02*
X12879586Y-16802150D01*
X12879586Y-16821198D02*
X12889110Y-16811674D01*
X12889110Y-16811674D02*
X12908158Y-16802150D01*
X12908158Y-16802150D02*
X12936729Y-16802150D01*
X12936729Y-16802150D02*
X12955777Y-16811674D01*
X12955777Y-16811674D02*
X12965301Y-16830722D01*
X12965301Y-16830722D02*
X12965301Y-16935484D01*
X12965301Y-16830722D02*
X12974824Y-16811674D01*
X12974824Y-16811674D02*
X12993872Y-16802150D01*
X12993872Y-16802150D02*
X13022443Y-16802150D01*
X13022443Y-16802150D02*
X13041491Y-16811674D01*
X13041491Y-16811674D02*
X13051015Y-16830722D01*
X13051015Y-16830722D02*
X13051015Y-16935484D01*
X13441491Y-16725960D02*
X13270063Y-16983103D01*
X13698634Y-16735484D02*
X13717682Y-16735484D01*
X13717682Y-16735484D02*
X13736729Y-16745008D01*
X13736729Y-16745008D02*
X13746253Y-16754531D01*
X13746253Y-16754531D02*
X13755777Y-16773579D01*
X13755777Y-16773579D02*
X13765301Y-16811674D01*
X13765301Y-16811674D02*
X13765301Y-16859293D01*
X13765301Y-16859293D02*
X13755777Y-16897389D01*
X13755777Y-16897389D02*
X13746253Y-16916436D01*
X13746253Y-16916436D02*
X13736729Y-16925960D01*
X13736729Y-16925960D02*
X13717682Y-16935484D01*
X13717682Y-16935484D02*
X13698634Y-16935484D01*
X13698634Y-16935484D02*
X13679586Y-16925960D01*
X13679586Y-16925960D02*
X13670063Y-16916436D01*
X13670063Y-16916436D02*
X13660539Y-16897389D01*
X13660539Y-16897389D02*
X13651015Y-16859293D01*
X13651015Y-16859293D02*
X13651015Y-16811674D01*
X13651015Y-16811674D02*
X13660539Y-16773579D01*
X13660539Y-16773579D02*
X13670063Y-16754531D01*
X13670063Y-16754531D02*
X13679586Y-16745008D01*
X13679586Y-16745008D02*
X13698634Y-16735484D01*
X13851015Y-16916436D02*
X13860539Y-16925960D01*
X13860539Y-16925960D02*
X13851015Y-16935484D01*
X13851015Y-16935484D02*
X13841491Y-16925960D01*
X13841491Y-16925960D02*
X13851015Y-16916436D01*
X13851015Y-16916436D02*
X13851015Y-16935484D01*
X14051015Y-16935484D02*
X13936729Y-16935484D01*
X13993872Y-16935484D02*
X13993872Y-16735484D01*
X13993872Y-16735484D02*
X13974825Y-16764055D01*
X13974825Y-16764055D02*
X13955777Y-16783103D01*
X13955777Y-16783103D02*
X13936729Y-16792627D01*
X14117682Y-16735484D02*
X14251015Y-16735484D01*
X14251015Y-16735484D02*
X14165301Y-16935484D01*
X14336729Y-16935484D02*
X14374825Y-16935484D01*
X14374825Y-16935484D02*
X14393872Y-16925960D01*
X14393872Y-16925960D02*
X14403396Y-16916436D01*
X14403396Y-16916436D02*
X14422444Y-16887865D01*
X14422444Y-16887865D02*
X14431967Y-16849770D01*
X14431967Y-16849770D02*
X14431967Y-16773579D01*
X14431967Y-16773579D02*
X14422444Y-16754531D01*
X14422444Y-16754531D02*
X14412920Y-16745008D01*
X14412920Y-16745008D02*
X14393872Y-16735484D01*
X14393872Y-16735484D02*
X14355777Y-16735484D01*
X14355777Y-16735484D02*
X14336729Y-16745008D01*
X14336729Y-16745008D02*
X14327206Y-16754531D01*
X14327206Y-16754531D02*
X14317682Y-16773579D01*
X14317682Y-16773579D02*
X14317682Y-16821198D01*
X14317682Y-16821198D02*
X14327206Y-16840246D01*
X14327206Y-16840246D02*
X14336729Y-16849770D01*
X14336729Y-16849770D02*
X14355777Y-16859293D01*
X14355777Y-16859293D02*
X14393872Y-16859293D01*
X14393872Y-16859293D02*
X14412920Y-16849770D01*
X14412920Y-16849770D02*
X14422444Y-16840246D01*
X14422444Y-16840246D02*
X14431967Y-16821198D01*
X14527206Y-16935484D02*
X14565301Y-16935484D01*
X14565301Y-16935484D02*
X14584348Y-16925960D01*
X14584348Y-16925960D02*
X14593872Y-16916436D01*
X14593872Y-16916436D02*
X14612920Y-16887865D01*
X14612920Y-16887865D02*
X14622444Y-16849770D01*
X14622444Y-16849770D02*
X14622444Y-16773579D01*
X14622444Y-16773579D02*
X14612920Y-16754531D01*
X14612920Y-16754531D02*
X14603396Y-16745008D01*
X14603396Y-16745008D02*
X14584348Y-16735484D01*
X14584348Y-16735484D02*
X14546253Y-16735484D01*
X14546253Y-16735484D02*
X14527206Y-16745008D01*
X14527206Y-16745008D02*
X14517682Y-16754531D01*
X14517682Y-16754531D02*
X14508158Y-16773579D01*
X14508158Y-16773579D02*
X14508158Y-16821198D01*
X14508158Y-16821198D02*
X14517682Y-16840246D01*
X14517682Y-16840246D02*
X14527206Y-16849770D01*
X14527206Y-16849770D02*
X14546253Y-16859293D01*
X14546253Y-16859293D02*
X14584348Y-16859293D01*
X14584348Y-16859293D02*
X14603396Y-16849770D01*
X14603396Y-16849770D02*
X14612920Y-16840246D01*
X14612920Y-16840246D02*
X14622444Y-16821198D01*
X14698634Y-16735484D02*
X14698634Y-16773579D01*
X14774825Y-16735484D02*
X14774825Y-16773579D01*
X15070063Y-17011674D02*
X15060539Y-17002150D01*
X15060539Y-17002150D02*
X15041491Y-16973579D01*
X15041491Y-16973579D02*
X15031968Y-16954531D01*
X15031968Y-16954531D02*
X15022444Y-16925960D01*
X15022444Y-16925960D02*
X15012920Y-16878341D01*
X15012920Y-16878341D02*
X15012920Y-16840246D01*
X15012920Y-16840246D02*
X15022444Y-16792627D01*
X15022444Y-16792627D02*
X15031968Y-16764055D01*
X15031968Y-16764055D02*
X15041491Y-16745008D01*
X15041491Y-16745008D02*
X15060539Y-16716436D01*
X15060539Y-16716436D02*
X15070063Y-16706912D01*
X15231968Y-16802150D02*
X15231968Y-16935484D01*
X15184348Y-16725960D02*
X15136729Y-16868817D01*
X15136729Y-16868817D02*
X15260539Y-16868817D01*
X15489110Y-16935484D02*
X15489110Y-16735484D01*
X15574825Y-16935484D02*
X15574825Y-16830722D01*
X15574825Y-16830722D02*
X15565301Y-16811674D01*
X15565301Y-16811674D02*
X15546253Y-16802150D01*
X15546253Y-16802150D02*
X15517682Y-16802150D01*
X15517682Y-16802150D02*
X15498634Y-16811674D01*
X15498634Y-16811674D02*
X15489110Y-16821198D01*
X15698634Y-16935484D02*
X15679587Y-16925960D01*
X15679587Y-16925960D02*
X15670063Y-16916436D01*
X15670063Y-16916436D02*
X15660539Y-16897389D01*
X15660539Y-16897389D02*
X15660539Y-16840246D01*
X15660539Y-16840246D02*
X15670063Y-16821198D01*
X15670063Y-16821198D02*
X15679587Y-16811674D01*
X15679587Y-16811674D02*
X15698634Y-16802150D01*
X15698634Y-16802150D02*
X15727206Y-16802150D01*
X15727206Y-16802150D02*
X15746253Y-16811674D01*
X15746253Y-16811674D02*
X15755777Y-16821198D01*
X15755777Y-16821198D02*
X15765301Y-16840246D01*
X15765301Y-16840246D02*
X15765301Y-16897389D01*
X15765301Y-16897389D02*
X15755777Y-16916436D01*
X15755777Y-16916436D02*
X15746253Y-16925960D01*
X15746253Y-16925960D02*
X15727206Y-16935484D01*
X15727206Y-16935484D02*
X15698634Y-16935484D01*
X15879587Y-16935484D02*
X15860539Y-16925960D01*
X15860539Y-16925960D02*
X15851015Y-16906912D01*
X15851015Y-16906912D02*
X15851015Y-16735484D01*
X16031968Y-16925960D02*
X16012920Y-16935484D01*
X16012920Y-16935484D02*
X15974825Y-16935484D01*
X15974825Y-16935484D02*
X15955777Y-16925960D01*
X15955777Y-16925960D02*
X15946253Y-16906912D01*
X15946253Y-16906912D02*
X15946253Y-16830722D01*
X15946253Y-16830722D02*
X15955777Y-16811674D01*
X15955777Y-16811674D02*
X15974825Y-16802150D01*
X15974825Y-16802150D02*
X16012920Y-16802150D01*
X16012920Y-16802150D02*
X16031968Y-16811674D01*
X16031968Y-16811674D02*
X16041491Y-16830722D01*
X16041491Y-16830722D02*
X16041491Y-16849770D01*
X16041491Y-16849770D02*
X15946253Y-16868817D01*
X16117682Y-16925960D02*
X16136730Y-16935484D01*
X16136730Y-16935484D02*
X16174825Y-16935484D01*
X16174825Y-16935484D02*
X16193872Y-16925960D01*
X16193872Y-16925960D02*
X16203396Y-16906912D01*
X16203396Y-16906912D02*
X16203396Y-16897389D01*
X16203396Y-16897389D02*
X16193872Y-16878341D01*
X16193872Y-16878341D02*
X16174825Y-16868817D01*
X16174825Y-16868817D02*
X16146253Y-16868817D01*
X16146253Y-16868817D02*
X16127206Y-16859293D01*
X16127206Y-16859293D02*
X16117682Y-16840246D01*
X16117682Y-16840246D02*
X16117682Y-16830722D01*
X16117682Y-16830722D02*
X16127206Y-16811674D01*
X16127206Y-16811674D02*
X16146253Y-16802150D01*
X16146253Y-16802150D02*
X16174825Y-16802150D01*
X16174825Y-16802150D02*
X16193872Y-16811674D01*
X16270063Y-17011674D02*
X16279587Y-17002150D01*
X16279587Y-17002150D02*
X16298634Y-16973579D01*
X16298634Y-16973579D02*
X16308158Y-16954531D01*
X16308158Y-16954531D02*
X16317682Y-16925960D01*
X16317682Y-16925960D02*
X16327206Y-16878341D01*
X16327206Y-16878341D02*
X16327206Y-16840246D01*
X16327206Y-16840246D02*
X16317682Y-16792627D01*
X16317682Y-16792627D02*
X16308158Y-16764055D01*
X16308158Y-16764055D02*
X16298634Y-16745008D01*
X16298634Y-16745008D02*
X16279587Y-16716436D01*
X16279587Y-16716436D02*
X16270063Y-16706912D01*
M02*
