%TF.GenerationSoftware,KiCad,Pcbnew,8.0.5*%
%TF.CreationDate,2025-05-09T00:08:28-04:00*%
%TF.ProjectId,precharge-electrium-f24,70726563-6861-4726-9765-2d656c656374,rev?*%
%TF.SameCoordinates,Original*%
%TF.FileFunction,Soldermask,Top*%
%TF.FilePolarity,Negative*%
%FSLAX46Y46*%
G04 Gerber Fmt 4.6, Leading zero omitted, Abs format (unit mm)*
G04 Created by KiCad (PCBNEW 8.0.5) date 2025-05-09 00:08:28*
%MOMM*%
%LPD*%
G01*
G04 APERTURE LIST*
G04 Aperture macros list*
%AMRoundRect*
0 Rectangle with rounded corners*
0 $1 Rounding radius*
0 $2 $3 $4 $5 $6 $7 $8 $9 X,Y pos of 4 corners*
0 Add a 4 corners polygon primitive as box body*
4,1,4,$2,$3,$4,$5,$6,$7,$8,$9,$2,$3,0*
0 Add four circle primitives for the rounded corners*
1,1,$1+$1,$2,$3*
1,1,$1+$1,$4,$5*
1,1,$1+$1,$6,$7*
1,1,$1+$1,$8,$9*
0 Add four rect primitives between the rounded corners*
20,1,$1+$1,$2,$3,$4,$5,0*
20,1,$1+$1,$4,$5,$6,$7,0*
20,1,$1+$1,$6,$7,$8,$9,0*
20,1,$1+$1,$8,$9,$2,$3,0*%
G04 Aperture macros list end*
%ADD10RoundRect,0.200000X-0.275000X0.200000X-0.275000X-0.200000X0.275000X-0.200000X0.275000X0.200000X0*%
%ADD11RoundRect,0.200000X0.200000X-2.100000X0.200000X2.100000X-0.200000X2.100000X-0.200000X-2.100000X0*%
%ADD12RoundRect,0.250002X5.149998X-4.449998X5.149998X4.449998X-5.149998X4.449998X-5.149998X-4.449998X0*%
%ADD13RoundRect,0.225000X-0.375000X0.225000X-0.375000X-0.225000X0.375000X-0.225000X0.375000X0.225000X0*%
%ADD14C,2.780000*%
%ADD15RoundRect,0.250000X0.625000X-0.350000X0.625000X0.350000X-0.625000X0.350000X-0.625000X-0.350000X0*%
%ADD16O,1.750000X1.200000*%
%ADD17O,3.474000X6.744000*%
%ADD18C,5.790000*%
%ADD19C,2.004000*%
%ADD20RoundRect,0.225000X-0.250000X0.225000X-0.250000X-0.225000X0.250000X-0.225000X0.250000X0.225000X0*%
G04 APERTURE END LIST*
D10*
%TO.C,R3*%
X121250000Y-124975000D03*
X121250000Y-126625000D03*
%TD*%
D11*
%TO.C,Q1*%
X133415000Y-138150000D03*
X134685000Y-138150000D03*
X135955000Y-138150000D03*
D12*
X137225000Y-129000000D03*
D11*
X138495000Y-138150000D03*
X139765000Y-138150000D03*
X141035000Y-138150000D03*
%TD*%
D13*
%TO.C,D1*%
X126750000Y-129100000D03*
X126750000Y-132400000D03*
%TD*%
D11*
%TO.C,Q2*%
X146190000Y-138150000D03*
X147460000Y-138150000D03*
X148730000Y-138150000D03*
D12*
X150000000Y-129000000D03*
D11*
X151270000Y-138150000D03*
X152540000Y-138150000D03*
X153810000Y-138150000D03*
%TD*%
D14*
%TO.C,F1*%
X144740000Y-104200000D03*
X144740000Y-107600000D03*
X154660000Y-104200000D03*
X154660000Y-107600000D03*
%TD*%
D15*
%TO.C,J3*%
X173250000Y-134500000D03*
D16*
X173250000Y-132500000D03*
X173250000Y-130500000D03*
X173250000Y-128500000D03*
X173250000Y-126500000D03*
%TD*%
D10*
%TO.C,R1*%
X123750000Y-125000000D03*
X123750000Y-126650000D03*
%TD*%
%TO.C,R4*%
X178500000Y-130425000D03*
X178500000Y-132075000D03*
%TD*%
D17*
%TO.C,J1*%
X137255000Y-109795000D03*
X137255000Y-101895000D03*
D18*
X126335000Y-118000000D03*
X126335000Y-93690000D03*
D19*
X119015000Y-113235000D03*
X119015000Y-98455000D03*
X119015000Y-106375000D03*
%TD*%
D10*
%TO.C,R5*%
X128900000Y-125025000D03*
X128900000Y-126675000D03*
%TD*%
D20*
%TO.C,C1*%
X126000000Y-124975000D03*
X126000000Y-126525000D03*
%TD*%
D10*
%TO.C,R2*%
X123750000Y-129175000D03*
X123750000Y-130825000D03*
%TD*%
D17*
%TO.C,J2*%
X161945000Y-101895000D03*
X161945000Y-109795000D03*
D18*
X172865000Y-93690000D03*
X172865000Y-118000000D03*
D19*
X180185000Y-98455000D03*
X180185000Y-113235000D03*
X180185000Y-105315000D03*
%TD*%
D10*
%TO.C,R6*%
X178500000Y-126175000D03*
X178500000Y-127825000D03*
%TD*%
D11*
%TO.C,Q3*%
X158690000Y-138150000D03*
X159960000Y-138150000D03*
X161230000Y-138150000D03*
D12*
X162500000Y-129000000D03*
D11*
X163770000Y-138150000D03*
X165040000Y-138150000D03*
X166310000Y-138150000D03*
%TD*%
G36*
X148443039Y-101269685D02*
G01*
X148488794Y-101322489D01*
X148500000Y-101374000D01*
X148500000Y-110446765D01*
X148480315Y-110513804D01*
X148461405Y-110536665D01*
X143535895Y-115215900D01*
X143473734Y-115247802D01*
X143450490Y-115250000D01*
X134374000Y-115250000D01*
X134306961Y-115230315D01*
X134261206Y-115177511D01*
X134250000Y-115126000D01*
X134250000Y-107624000D01*
X134269685Y-107556961D01*
X134322489Y-107511206D01*
X134374000Y-107500000D01*
X140000000Y-107500000D01*
X140000000Y-105303577D01*
X140019685Y-105236538D01*
X140039015Y-105213280D01*
X144214191Y-101283703D01*
X144276500Y-101252091D01*
X144299176Y-101250000D01*
X148376000Y-101250000D01*
X148443039Y-101269685D01*
G37*
G36*
X164693039Y-96769685D02*
G01*
X164738794Y-96822489D01*
X164750000Y-96874000D01*
X164750000Y-104126000D01*
X164730315Y-104193039D01*
X164677511Y-104238794D01*
X164626000Y-104250000D01*
X159750000Y-104250000D01*
X159750000Y-105946550D01*
X159730315Y-106013589D01*
X159711141Y-106036700D01*
X155285841Y-110216150D01*
X155223587Y-110247870D01*
X155200700Y-110250000D01*
X151124000Y-110250000D01*
X151056961Y-110230315D01*
X151011206Y-110177511D01*
X151000000Y-110126000D01*
X151000000Y-101053449D01*
X151019685Y-100986410D01*
X151038859Y-100963299D01*
X155464159Y-96783850D01*
X155526413Y-96752130D01*
X155549300Y-96750000D01*
X164626000Y-96750000D01*
X164693039Y-96769685D01*
G37*
G36*
X165515677Y-108769685D02*
G01*
X165536319Y-108786319D01*
X167713681Y-110963681D01*
X167747166Y-111025004D01*
X167750000Y-111051362D01*
X167750000Y-122376000D01*
X167730315Y-122443039D01*
X167677511Y-122488794D01*
X167626000Y-122500000D01*
X140554539Y-122500000D01*
X140487500Y-122480315D01*
X140441745Y-122427511D01*
X140431801Y-122358353D01*
X140460826Y-122294797D01*
X140467920Y-122287269D01*
X150713871Y-112285269D01*
X150775594Y-112252525D01*
X150800490Y-112250000D01*
X156500000Y-112250000D01*
X156500000Y-112249999D01*
X159963681Y-108786319D01*
X160025004Y-108752834D01*
X160051362Y-108750000D01*
X165448638Y-108750000D01*
X165515677Y-108769685D01*
G37*
M02*
